G75*
%MOIN*%
%OFA0B0*%
%FSLAX24Y24*%
%IPPOS*%
%LPD*%
%AMOC8*
5,1,8,0,0,1.08239X$1,22.5*
%
%ADD10R,0.0433X0.0394*%
%ADD11R,0.0394X0.0433*%
%ADD12C,0.0600*%
%ADD13R,0.0591X0.0512*%
%ADD14R,0.0260X0.0800*%
%ADD15C,0.0594*%
%ADD16C,0.0669*%
%ADD17R,0.2441X0.2126*%
%ADD18R,0.0630X0.0394*%
%ADD19R,0.0276X0.0118*%
%ADD20R,0.0880X0.0480*%
%ADD21R,0.0866X0.1417*%
%ADD22C,0.1004*%
%ADD23R,0.0157X0.0295*%
%ADD24R,0.0551X0.0394*%
%ADD25OC8,0.0600*%
%ADD26R,0.0492X0.0256*%
%ADD27R,0.1000X0.0500*%
%ADD28C,0.0160*%
%ADD29C,0.0396*%
%ADD30C,0.0120*%
%ADD31C,0.0700*%
%ADD32C,0.0320*%
D10*
X009862Y014022D03*
X010531Y014022D03*
X011962Y014022D03*
X012631Y014022D03*
X015597Y014188D03*
X015597Y014857D03*
X015597Y017388D03*
X015597Y018057D03*
X014531Y020222D03*
X013862Y020222D03*
X013862Y021222D03*
X014531Y021222D03*
X015362Y023122D03*
X016031Y023122D03*
X016162Y024022D03*
X016831Y024022D03*
X019341Y014843D03*
X020011Y014843D03*
X021797Y015057D03*
X021797Y014388D03*
D11*
X022662Y014422D03*
X023331Y014422D03*
X024362Y013122D03*
X025031Y013122D03*
X025031Y012122D03*
X024362Y012122D03*
X026562Y009622D03*
X027231Y009622D03*
X023531Y008822D03*
X022862Y008822D03*
X014431Y014922D03*
X013762Y014922D03*
X012631Y013022D03*
X011962Y013022D03*
X010531Y013022D03*
X009862Y013022D03*
X013862Y017422D03*
X014531Y017422D03*
X021062Y016922D03*
X021731Y016922D03*
X021731Y015922D03*
X021062Y015922D03*
D12*
X030497Y014822D02*
X031097Y014822D01*
X031097Y013822D02*
X030497Y013822D01*
X030497Y012822D02*
X031097Y012822D01*
X031097Y020822D02*
X030497Y020822D01*
X030497Y021822D02*
X031097Y021822D01*
X031097Y022822D02*
X030497Y022822D01*
D13*
X024297Y010796D03*
X024297Y010048D03*
D14*
X023447Y010012D03*
X022947Y010012D03*
X022447Y010012D03*
X021947Y010012D03*
X021947Y012432D03*
X022447Y012432D03*
X022947Y012432D03*
X023447Y012432D03*
D15*
X043197Y012122D03*
X045952Y012122D03*
D16*
X049457Y010249D03*
X049457Y008871D03*
X007657Y012778D03*
X007657Y014156D03*
X007657Y015533D03*
X007657Y016911D03*
X007657Y018289D03*
X007657Y019667D03*
X007657Y021844D03*
X007657Y023222D03*
X007657Y024600D03*
D17*
X011612Y023122D03*
D18*
X014486Y022225D03*
X014486Y024020D03*
D19*
X022682Y016678D03*
X022682Y016422D03*
X022682Y016167D03*
X023311Y016167D03*
X023311Y016422D03*
X023311Y016678D03*
D20*
X016677Y020212D03*
X016677Y021122D03*
X016677Y022032D03*
D21*
X019117Y021122D03*
D22*
X047356Y019791D03*
X047356Y018610D03*
X047356Y017035D03*
X047356Y015854D03*
X049325Y017822D03*
D23*
X015852Y016656D03*
X015597Y016656D03*
X015341Y016656D03*
X015341Y015789D03*
X015597Y015789D03*
X015852Y015789D03*
D24*
X038363Y014196D03*
X038363Y013448D03*
X039230Y013822D03*
X038363Y021448D03*
X038363Y022196D03*
X039230Y021822D03*
D25*
X012697Y016722D03*
X011697Y016722D03*
X010697Y016722D03*
X010697Y015722D03*
X011697Y015722D03*
X012697Y015722D03*
D26*
X017264Y015722D03*
X017264Y016222D03*
X017264Y016722D03*
X017264Y017222D03*
X019509Y017222D03*
X019509Y016722D03*
X019509Y016222D03*
X019509Y015722D03*
D27*
X045097Y016843D03*
X045097Y017843D03*
X045097Y018843D03*
D28*
X005677Y011222D02*
X005677Y004523D01*
X030090Y004523D01*
X030090Y007705D01*
X029077Y006692D01*
X029037Y006652D01*
X028708Y006323D01*
X019185Y006323D01*
X019056Y006452D01*
X016005Y009502D01*
X011405Y009502D01*
X011277Y009631D01*
X010277Y010631D01*
X010277Y011222D01*
X005677Y011222D01*
X005677Y011175D02*
X010277Y011175D01*
X010277Y011017D02*
X005677Y011017D01*
X005677Y010858D02*
X010277Y010858D01*
X010277Y010700D02*
X005677Y010700D01*
X005677Y010541D02*
X010366Y010541D01*
X010497Y010722D02*
X011497Y009722D01*
X016097Y009722D01*
X019276Y006543D01*
X028617Y006543D01*
X028817Y006743D01*
X028857Y006783D01*
X033597Y011522D01*
X033597Y013622D01*
X034197Y014222D01*
X038337Y014222D01*
X038363Y014196D01*
X038779Y014187D02*
X045400Y014187D01*
X045462Y014124D02*
X045462Y012025D01*
X045537Y011845D01*
X045675Y011707D01*
X045855Y011632D01*
X046050Y011632D01*
X046230Y011707D01*
X046368Y011845D01*
X046442Y012025D01*
X046442Y014424D01*
X046368Y014605D01*
X046230Y014742D01*
X045580Y015392D01*
X045648Y015364D01*
X046938Y015364D01*
X046993Y015310D01*
X047229Y015212D01*
X047484Y015212D01*
X047720Y015310D01*
X047901Y015490D01*
X047998Y015726D01*
X047998Y015982D01*
X047901Y016218D01*
X047720Y016398D01*
X047608Y016444D01*
X047720Y016491D01*
X047901Y016671D01*
X047998Y016907D01*
X047998Y017035D01*
X048110Y017035D01*
X048110Y007980D01*
X046141Y006011D01*
X030393Y006011D01*
X030393Y008008D01*
X033777Y011391D01*
X033777Y011181D01*
X033710Y011114D01*
X033658Y010990D01*
X033658Y010855D01*
X033710Y010731D01*
X033805Y010636D01*
X033929Y010584D01*
X034064Y010584D01*
X034188Y010636D01*
X034283Y010731D01*
X034335Y010855D01*
X034335Y010990D01*
X034283Y011114D01*
X034217Y011181D01*
X034217Y011331D01*
X034329Y011284D01*
X034464Y011284D01*
X034588Y011336D01*
X034683Y011431D01*
X034735Y011555D01*
X034735Y011690D01*
X034683Y011814D01*
X034617Y011881D01*
X034617Y013031D01*
X034788Y013202D01*
X037948Y013202D01*
X037948Y013194D01*
X038030Y013112D01*
X038697Y013112D01*
X038779Y013194D01*
X038779Y013602D01*
X038814Y013602D01*
X038814Y013568D01*
X038896Y013486D01*
X039563Y013486D01*
X039645Y013568D01*
X039645Y014077D01*
X039563Y014159D01*
X038896Y014159D01*
X038814Y014077D01*
X038814Y014042D01*
X038779Y014042D01*
X038779Y014451D01*
X038697Y014533D01*
X038030Y014533D01*
X037948Y014451D01*
X037948Y014442D01*
X034105Y014442D01*
X033505Y013842D01*
X033417Y013754D01*
X033417Y017035D01*
X043427Y017035D01*
X043427Y016265D01*
X043501Y016085D01*
X045462Y014124D01*
X045462Y014028D02*
X039645Y014028D01*
X039645Y013870D02*
X045462Y013870D01*
X045462Y013711D02*
X039645Y013711D01*
X039631Y013553D02*
X045462Y013553D01*
X045462Y013394D02*
X038779Y013394D01*
X038779Y013236D02*
X045462Y013236D01*
X045462Y013077D02*
X034663Y013077D01*
X034617Y012919D02*
X045462Y012919D01*
X045462Y012760D02*
X034617Y012760D01*
X034617Y012602D02*
X045462Y012602D01*
X045462Y012443D02*
X034617Y012443D01*
X034617Y012285D02*
X045462Y012285D01*
X045462Y012126D02*
X034617Y012126D01*
X034617Y011968D02*
X045486Y011968D01*
X045572Y011809D02*
X034685Y011809D01*
X034735Y011651D02*
X045810Y011651D01*
X046095Y011651D02*
X048110Y011651D01*
X048110Y011809D02*
X046332Y011809D01*
X046419Y011968D02*
X048110Y011968D01*
X048110Y012126D02*
X046442Y012126D01*
X046442Y012285D02*
X048110Y012285D01*
X048110Y012443D02*
X046442Y012443D01*
X046442Y012602D02*
X048110Y012602D01*
X048110Y012760D02*
X046442Y012760D01*
X046442Y012919D02*
X048110Y012919D01*
X048110Y013077D02*
X046442Y013077D01*
X046442Y013236D02*
X048110Y013236D01*
X048110Y013394D02*
X046442Y013394D01*
X046442Y013553D02*
X048110Y013553D01*
X048110Y013711D02*
X046442Y013711D01*
X046442Y013870D02*
X048110Y013870D01*
X048110Y014028D02*
X046442Y014028D01*
X046442Y014187D02*
X048110Y014187D01*
X048110Y014345D02*
X046442Y014345D01*
X046410Y014504D02*
X048110Y014504D01*
X048110Y014662D02*
X046310Y014662D01*
X046151Y014821D02*
X048110Y014821D01*
X048110Y014979D02*
X045993Y014979D01*
X045834Y015138D02*
X048110Y015138D01*
X048110Y015296D02*
X047688Y015296D01*
X047865Y015455D02*
X048110Y015455D01*
X048110Y015613D02*
X047952Y015613D01*
X047998Y015772D02*
X048110Y015772D01*
X048110Y015930D02*
X047998Y015930D01*
X047954Y016089D02*
X048110Y016089D01*
X048110Y016247D02*
X047871Y016247D01*
X047701Y016406D02*
X048110Y016406D01*
X048110Y016564D02*
X047794Y016564D01*
X047922Y016723D02*
X048110Y016723D01*
X048110Y016881D02*
X047988Y016881D01*
X048504Y016881D02*
X051961Y016881D01*
X051961Y016723D02*
X048504Y016723D01*
X048504Y016564D02*
X049169Y016564D01*
X049182Y016570D02*
X048919Y016461D01*
X048718Y016260D01*
X048609Y015996D01*
X048609Y015711D01*
X048718Y015448D01*
X048919Y015247D01*
X049182Y015138D01*
X048504Y015138D01*
X048504Y015296D02*
X048869Y015296D01*
X048715Y015455D02*
X048504Y015455D01*
X048504Y015613D02*
X048649Y015613D01*
X048609Y015772D02*
X048504Y015772D01*
X048504Y015930D02*
X048609Y015930D01*
X048647Y016089D02*
X048504Y016089D01*
X048504Y016247D02*
X048713Y016247D01*
X048864Y016406D02*
X048504Y016406D01*
X048504Y017040D02*
X051961Y017040D01*
X051961Y017198D02*
X049496Y017198D01*
X049453Y017180D02*
X049689Y017278D01*
X049869Y017459D01*
X049967Y017695D01*
X049967Y017950D01*
X049869Y018186D01*
X049689Y018367D01*
X049453Y018464D01*
X049197Y018464D01*
X048961Y018367D01*
X048781Y018186D01*
X048683Y017950D01*
X048683Y017695D01*
X048781Y017459D01*
X048961Y017278D01*
X049197Y017180D01*
X049453Y017180D01*
X049154Y017198D02*
X048504Y017198D01*
X048504Y017357D02*
X048882Y017357D01*
X048757Y017515D02*
X048504Y017515D01*
X048504Y017674D02*
X048692Y017674D01*
X048683Y017832D02*
X048504Y017832D01*
X048504Y017991D02*
X048700Y017991D01*
X048765Y018149D02*
X048504Y018149D01*
X048504Y018308D02*
X048902Y018308D01*
X048504Y018466D02*
X051961Y018466D01*
X051961Y018308D02*
X049747Y018308D01*
X049884Y018149D02*
X051961Y018149D01*
X051961Y017991D02*
X049950Y017991D01*
X049967Y017832D02*
X051961Y017832D01*
X051961Y017674D02*
X049958Y017674D01*
X049893Y017515D02*
X051961Y017515D01*
X051961Y017357D02*
X049767Y017357D01*
X049467Y016570D02*
X049182Y016570D01*
X049467Y016570D02*
X049731Y016461D01*
X049817Y016375D01*
X049903Y016461D01*
X050167Y016570D01*
X050452Y016570D01*
X050715Y016461D01*
X050916Y016260D01*
X051025Y015996D01*
X051025Y015711D01*
X050916Y015448D01*
X050715Y015247D01*
X050452Y015138D01*
X051961Y015138D01*
X051961Y015296D02*
X050765Y015296D01*
X050919Y015455D02*
X051961Y015455D01*
X051961Y015613D02*
X050985Y015613D01*
X051025Y015772D02*
X051961Y015772D01*
X051961Y015930D02*
X051025Y015930D01*
X050987Y016089D02*
X051961Y016089D01*
X051961Y016247D02*
X050921Y016247D01*
X050770Y016406D02*
X051961Y016406D01*
X051961Y016564D02*
X050465Y016564D01*
X050153Y016564D02*
X049481Y016564D01*
X049786Y016406D02*
X049848Y016406D01*
X049817Y015333D02*
X049731Y015247D01*
X049467Y015138D01*
X049182Y015138D01*
X049468Y015138D02*
X050166Y015138D01*
X050167Y015138D02*
X050452Y015138D01*
X050167Y015138D02*
X049903Y015247D01*
X049817Y015333D01*
X049780Y015296D02*
X049854Y015296D01*
X048504Y014979D02*
X051961Y014979D01*
X051961Y014821D02*
X048504Y014821D01*
X048504Y014662D02*
X051961Y014662D01*
X051961Y014504D02*
X048504Y014504D01*
X048504Y014345D02*
X051961Y014345D01*
X051961Y014187D02*
X048504Y014187D01*
X048504Y014028D02*
X051961Y014028D01*
X051961Y013870D02*
X048504Y013870D01*
X048504Y013711D02*
X051961Y013711D01*
X051961Y013553D02*
X048504Y013553D01*
X048504Y013394D02*
X051961Y013394D01*
X051961Y013236D02*
X048504Y013236D01*
X048504Y013077D02*
X051961Y013077D01*
X051961Y012919D02*
X048504Y012919D01*
X048504Y012760D02*
X051961Y012760D01*
X051961Y012602D02*
X048504Y012602D01*
X048504Y012443D02*
X051961Y012443D01*
X051961Y012285D02*
X048504Y012285D01*
X048504Y012126D02*
X051961Y012126D01*
X051961Y011968D02*
X048504Y011968D01*
X048504Y011809D02*
X051961Y011809D01*
X051961Y011651D02*
X048504Y011651D01*
X048504Y011492D02*
X051961Y011492D01*
X051961Y011334D02*
X048504Y011334D01*
X048504Y011175D02*
X051961Y011175D01*
X051961Y011017D02*
X048504Y011017D01*
X048504Y010858D02*
X051961Y010858D01*
X051961Y010700D02*
X049609Y010700D01*
X049552Y010724D02*
X049363Y010724D01*
X049188Y010652D01*
X049055Y010518D01*
X048983Y010344D01*
X048983Y010155D01*
X049055Y009980D01*
X049188Y009847D01*
X049363Y009775D01*
X049552Y009775D01*
X049726Y009847D01*
X049860Y009980D01*
X049932Y010155D01*
X049932Y010344D01*
X049860Y010518D01*
X049726Y010652D01*
X049552Y010724D01*
X049305Y010700D02*
X048504Y010700D01*
X048504Y010541D02*
X049078Y010541D01*
X048999Y010383D02*
X048504Y010383D01*
X048504Y010224D02*
X048983Y010224D01*
X049019Y010066D02*
X048504Y010066D01*
X048504Y009907D02*
X049128Y009907D01*
X048504Y009749D02*
X051961Y009749D01*
X051961Y009907D02*
X049787Y009907D01*
X049895Y010066D02*
X051961Y010066D01*
X051961Y010224D02*
X049932Y010224D01*
X049916Y010383D02*
X051961Y010383D01*
X051961Y010541D02*
X049836Y010541D01*
X049552Y009346D02*
X049363Y009346D01*
X049188Y009274D01*
X049055Y009140D01*
X048983Y008966D01*
X048983Y008777D01*
X049055Y008602D01*
X049188Y008469D01*
X049363Y008397D01*
X049552Y008397D01*
X049726Y008469D01*
X049860Y008602D01*
X049932Y008777D01*
X049932Y008966D01*
X049860Y009140D01*
X049726Y009274D01*
X049552Y009346D01*
X049726Y009273D02*
X051961Y009273D01*
X051961Y009115D02*
X049870Y009115D01*
X049932Y008956D02*
X051961Y008956D01*
X051961Y008798D02*
X049932Y008798D01*
X049875Y008639D02*
X051961Y008639D01*
X051961Y008481D02*
X049738Y008481D01*
X049176Y008481D02*
X048504Y008481D01*
X048504Y008639D02*
X049039Y008639D01*
X048983Y008798D02*
X048504Y008798D01*
X048504Y008956D02*
X048983Y008956D01*
X049044Y009115D02*
X048504Y009115D01*
X048504Y009273D02*
X049188Y009273D01*
X048504Y009432D02*
X051961Y009432D01*
X051961Y009590D02*
X048504Y009590D01*
X048110Y009590D02*
X031976Y009590D01*
X031817Y009432D02*
X048110Y009432D01*
X048110Y009273D02*
X031659Y009273D01*
X031500Y009115D02*
X048110Y009115D01*
X048110Y008956D02*
X031342Y008956D01*
X031183Y008798D02*
X048110Y008798D01*
X048110Y008639D02*
X031025Y008639D01*
X030866Y008481D02*
X048110Y008481D01*
X048110Y008322D02*
X030708Y008322D01*
X030549Y008164D02*
X048110Y008164D01*
X048110Y008005D02*
X030393Y008005D01*
X030393Y007847D02*
X047977Y007847D01*
X047818Y007688D02*
X030393Y007688D01*
X030393Y007530D02*
X047660Y007530D01*
X047501Y007371D02*
X030393Y007371D01*
X030393Y007213D02*
X047343Y007213D01*
X047184Y007054D02*
X030393Y007054D01*
X030393Y006896D02*
X047026Y006896D01*
X046867Y006737D02*
X030393Y006737D01*
X030393Y006579D02*
X046709Y006579D01*
X046550Y006420D02*
X030393Y006420D01*
X030393Y006262D02*
X046392Y006262D01*
X046233Y006103D02*
X030393Y006103D01*
X030090Y006103D02*
X008827Y006103D01*
X008841Y006117D02*
X008634Y005911D01*
X008381Y005765D01*
X008099Y005689D01*
X007806Y005689D01*
X007524Y005765D01*
X007271Y005911D01*
X007064Y006117D01*
X006918Y006370D01*
X006843Y006653D01*
X006843Y006945D01*
X006918Y007227D01*
X007064Y007480D01*
X007271Y007687D01*
X007524Y007833D01*
X007806Y007909D01*
X008099Y007909D01*
X008381Y007833D01*
X008634Y007687D01*
X008841Y007480D01*
X008987Y007227D01*
X009062Y006945D01*
X009062Y006653D01*
X008987Y006370D01*
X008841Y006117D01*
X008924Y006262D02*
X030090Y006262D01*
X030090Y006420D02*
X028806Y006420D01*
X028964Y006579D02*
X030090Y006579D01*
X030090Y006737D02*
X029123Y006737D01*
X029281Y006896D02*
X030090Y006896D01*
X030090Y007054D02*
X029440Y007054D01*
X029598Y007213D02*
X030090Y007213D01*
X030090Y007371D02*
X029757Y007371D01*
X029915Y007530D02*
X030090Y007530D01*
X030074Y007688D02*
X030090Y007688D01*
X029768Y008005D02*
X029091Y008005D01*
X028932Y007847D02*
X029610Y007847D01*
X029451Y007688D02*
X028774Y007688D01*
X028615Y007530D02*
X029293Y007530D01*
X029134Y007371D02*
X028457Y007371D01*
X028437Y007352D02*
X030090Y009005D01*
X030090Y008327D01*
X028766Y007003D01*
X028726Y006963D01*
X028526Y006763D01*
X019367Y006763D01*
X016317Y009814D01*
X016188Y009942D01*
X011588Y009942D01*
X010717Y010814D01*
X010717Y011222D01*
X011777Y011222D01*
X011777Y010631D01*
X012077Y010331D01*
X012205Y010202D01*
X016305Y010202D01*
X019156Y007352D01*
X019285Y007223D01*
X028308Y007223D01*
X028437Y007352D01*
X028437Y007352D01*
X028217Y007443D02*
X019376Y007443D01*
X016397Y010422D01*
X012297Y010422D01*
X011997Y010722D01*
X011997Y012988D01*
X011962Y013022D01*
X012297Y012746D02*
X012376Y012666D01*
X012886Y012666D01*
X012968Y012748D01*
X012968Y013297D01*
X012886Y013379D01*
X012851Y013379D01*
X012851Y013686D01*
X012906Y013686D01*
X012988Y013768D01*
X012988Y013802D01*
X014238Y013802D01*
X014305Y013736D01*
X014429Y013684D01*
X014564Y013684D01*
X014688Y013736D01*
X014783Y013831D01*
X014835Y013955D01*
X014835Y014090D01*
X014783Y014214D01*
X014688Y014309D01*
X014564Y014361D01*
X014429Y014361D01*
X014305Y014309D01*
X014238Y014242D01*
X012988Y014242D01*
X012988Y014277D01*
X012906Y014359D01*
X012357Y014359D01*
X012297Y014299D01*
X012236Y014359D01*
X011687Y014359D01*
X011605Y014277D01*
X011605Y014242D01*
X011455Y014242D01*
X011388Y014309D01*
X011264Y014361D01*
X011129Y014361D01*
X011005Y014309D01*
X010938Y014242D01*
X010888Y014242D01*
X010888Y014277D01*
X010806Y014359D01*
X010257Y014359D01*
X010197Y014299D01*
X010136Y014359D01*
X009587Y014359D01*
X009505Y014277D01*
X009505Y014263D01*
X009288Y014263D01*
X009175Y014376D01*
X008080Y014376D01*
X008060Y014424D01*
X007926Y014558D01*
X007752Y014630D01*
X007563Y014630D01*
X007388Y014558D01*
X007255Y014424D01*
X007183Y014250D01*
X007183Y014061D01*
X007255Y013887D01*
X007388Y013753D01*
X007563Y013681D01*
X007752Y013681D01*
X007926Y013753D01*
X008060Y013887D01*
X008080Y013936D01*
X008993Y013936D01*
X009105Y013823D01*
X009505Y013823D01*
X009505Y013768D01*
X009587Y013686D01*
X009642Y013686D01*
X009642Y013379D01*
X009607Y013379D01*
X009525Y013297D01*
X009525Y012748D01*
X009607Y012666D01*
X010117Y012666D01*
X010197Y012746D01*
X010276Y012666D01*
X010277Y012666D01*
X010277Y011722D01*
X005677Y011722D01*
X005677Y020522D01*
X009407Y020512D01*
X010797Y019122D01*
X016897Y019122D01*
X017997Y017922D01*
X017997Y013722D01*
X016097Y011722D01*
X012217Y011722D01*
X012217Y012666D01*
X012297Y012746D01*
X012217Y012666D02*
X012217Y012666D01*
X012217Y012602D02*
X016932Y012602D01*
X017083Y012760D02*
X012968Y012760D01*
X012968Y012919D02*
X017233Y012919D01*
X017384Y013077D02*
X012968Y013077D01*
X012968Y013236D02*
X017534Y013236D01*
X017685Y013394D02*
X012851Y013394D01*
X012851Y013553D02*
X017835Y013553D01*
X017986Y013711D02*
X014629Y013711D01*
X014799Y013870D02*
X015246Y013870D01*
X015236Y013880D02*
X015269Y013847D01*
X015311Y013823D01*
X015356Y013811D01*
X015578Y013811D01*
X015578Y014169D01*
X015615Y014169D01*
X015615Y013811D01*
X015837Y013811D01*
X015883Y013823D01*
X015924Y013847D01*
X015957Y013880D01*
X015981Y013921D01*
X015993Y013967D01*
X015993Y014169D01*
X015615Y014169D01*
X015615Y014206D01*
X015993Y014206D01*
X015993Y014408D01*
X015981Y014454D01*
X015957Y014495D01*
X015924Y014529D01*
X015896Y014545D01*
X015953Y014602D01*
X015953Y015112D01*
X015871Y015194D01*
X015817Y015194D01*
X015817Y015462D01*
X015852Y015462D01*
X015852Y015789D01*
X015852Y015789D01*
X015852Y015462D01*
X015955Y015462D01*
X016001Y015474D01*
X016042Y015498D01*
X016075Y015531D01*
X016099Y015572D01*
X016111Y015618D01*
X016111Y015789D01*
X015852Y015789D01*
X015852Y015789D01*
X016111Y015789D01*
X016111Y015961D01*
X016100Y016002D01*
X016318Y016002D01*
X016230Y015914D01*
X016178Y015790D01*
X016178Y015655D01*
X016230Y015531D01*
X016325Y015436D01*
X016449Y015384D01*
X016584Y015384D01*
X016708Y015436D01*
X016775Y015502D01*
X016912Y015502D01*
X016960Y015454D01*
X017569Y015454D01*
X017651Y015536D01*
X017651Y015908D01*
X017586Y015972D01*
X017651Y016036D01*
X017651Y016408D01*
X017586Y016472D01*
X017651Y016536D01*
X017651Y016908D01*
X017586Y016972D01*
X017651Y017036D01*
X017651Y017408D01*
X017569Y017490D01*
X016960Y017490D01*
X016912Y017442D01*
X016775Y017442D01*
X016708Y017509D01*
X016584Y017561D01*
X016449Y017561D01*
X016325Y017509D01*
X016230Y017414D01*
X016178Y017290D01*
X016178Y017155D01*
X016230Y017031D01*
X016318Y016942D01*
X015990Y016942D01*
X015989Y016943D01*
X015817Y016943D01*
X015817Y017051D01*
X015871Y017051D01*
X015953Y017133D01*
X015953Y017643D01*
X015896Y017700D01*
X015924Y017716D01*
X015957Y017750D01*
X015981Y017791D01*
X015993Y017837D01*
X015993Y018039D01*
X015615Y018039D01*
X015615Y018076D01*
X015578Y018076D01*
X015578Y018434D01*
X015356Y018434D01*
X015311Y018422D01*
X015269Y018398D01*
X015236Y018364D01*
X015212Y018323D01*
X015200Y018278D01*
X015200Y018076D01*
X015578Y018076D01*
X015578Y018039D01*
X015200Y018039D01*
X015200Y017837D01*
X015212Y017791D01*
X015236Y017750D01*
X015269Y017716D01*
X015297Y017700D01*
X015240Y017643D01*
X015240Y017608D01*
X014868Y017608D01*
X014868Y017697D01*
X014786Y017779D01*
X014276Y017779D01*
X014197Y017699D01*
X014117Y017779D01*
X013607Y017779D01*
X013525Y017697D01*
X013525Y017692D01*
X008127Y017692D01*
X007800Y017366D01*
X007752Y017386D01*
X007563Y017386D01*
X007388Y017314D01*
X007255Y017180D01*
X007183Y017006D01*
X007183Y016817D01*
X007255Y016643D01*
X007388Y016509D01*
X007563Y016437D01*
X007752Y016437D01*
X007926Y016509D01*
X008060Y016643D01*
X008132Y016817D01*
X008132Y017006D01*
X008112Y017055D01*
X008309Y017252D01*
X011477Y017252D01*
X011477Y017125D01*
X011257Y016905D01*
X011257Y016540D01*
X011514Y016282D01*
X011879Y016282D01*
X012137Y016540D01*
X012137Y016905D01*
X011917Y017125D01*
X011917Y017252D01*
X013525Y017252D01*
X013525Y017148D01*
X013607Y017066D01*
X014117Y017066D01*
X014197Y017146D01*
X014276Y017066D01*
X014786Y017066D01*
X014868Y017148D01*
X014868Y017168D01*
X015240Y017168D01*
X015240Y017133D01*
X015322Y017051D01*
X015377Y017051D01*
X015377Y016983D01*
X015341Y016983D01*
X015341Y016656D01*
X015341Y016656D01*
X015341Y016983D01*
X015238Y016983D01*
X015192Y016971D01*
X015151Y016947D01*
X015118Y016914D01*
X015094Y016873D01*
X015082Y016827D01*
X015082Y016656D01*
X015341Y016656D01*
X015341Y016656D01*
X015082Y016656D01*
X015082Y016484D01*
X015094Y016438D01*
X015118Y016397D01*
X015151Y016364D01*
X015192Y016340D01*
X015238Y016328D01*
X015241Y016328D01*
X015227Y016314D01*
X015121Y016208D01*
X015121Y015698D01*
X015122Y015697D01*
X015122Y015584D01*
X015204Y015502D01*
X015377Y015502D01*
X015377Y015194D01*
X015322Y015194D01*
X015240Y015112D01*
X015240Y015077D01*
X014768Y015077D01*
X014768Y015197D01*
X014686Y015279D01*
X014176Y015279D01*
X014097Y015199D01*
X014017Y015279D01*
X013507Y015279D01*
X013425Y015197D01*
X013425Y015142D01*
X011917Y015142D01*
X011917Y015320D01*
X012137Y015540D01*
X012137Y015905D01*
X011879Y016162D01*
X011514Y016162D01*
X011257Y015905D01*
X011257Y015540D01*
X011477Y015320D01*
X011477Y015142D01*
X008359Y015142D01*
X008112Y015390D01*
X008132Y015439D01*
X008132Y015628D01*
X008060Y015802D01*
X007926Y015936D01*
X007752Y016008D01*
X007563Y016008D01*
X007388Y015936D01*
X007255Y015802D01*
X007183Y015628D01*
X007183Y015439D01*
X007255Y015265D01*
X007388Y015131D01*
X007563Y015059D01*
X007752Y015059D01*
X007800Y015079D01*
X008177Y014702D01*
X013425Y014702D01*
X013425Y014648D01*
X013507Y014566D01*
X014017Y014566D01*
X014097Y014646D01*
X014176Y014566D01*
X014686Y014566D01*
X014757Y014637D01*
X015240Y014637D01*
X015240Y014602D01*
X015297Y014545D01*
X015269Y014529D01*
X015236Y014495D01*
X015212Y014454D01*
X015200Y014408D01*
X015200Y014206D01*
X015578Y014206D01*
X015578Y014169D01*
X015200Y014169D01*
X015200Y013967D01*
X015212Y013921D01*
X015236Y013880D01*
X015200Y014028D02*
X014835Y014028D01*
X014794Y014187D02*
X015578Y014187D01*
X015615Y014187D02*
X017997Y014187D01*
X017997Y014345D02*
X015993Y014345D01*
X015948Y014504D02*
X017997Y014504D01*
X017997Y014662D02*
X015953Y014662D01*
X015953Y014821D02*
X017997Y014821D01*
X017997Y014979D02*
X015953Y014979D01*
X015927Y015138D02*
X017997Y015138D01*
X017997Y015296D02*
X015817Y015296D01*
X015817Y015455D02*
X016306Y015455D01*
X016196Y015613D02*
X016110Y015613D01*
X016111Y015772D02*
X016178Y015772D01*
X016111Y015930D02*
X016246Y015930D01*
X016517Y015722D02*
X017264Y015722D01*
X017651Y015772D02*
X017997Y015772D01*
X017997Y015930D02*
X017628Y015930D01*
X017651Y016089D02*
X017997Y016089D01*
X017997Y016247D02*
X017651Y016247D01*
X017651Y016406D02*
X017997Y016406D01*
X017997Y016564D02*
X017651Y016564D01*
X017651Y016723D02*
X017997Y016723D01*
X017997Y016881D02*
X017651Y016881D01*
X017651Y017040D02*
X017997Y017040D01*
X017997Y017198D02*
X017651Y017198D01*
X017651Y017357D02*
X017997Y017357D01*
X017997Y017515D02*
X016693Y017515D01*
X016517Y017222D02*
X017264Y017222D01*
X017264Y016722D02*
X015919Y016722D01*
X015852Y016656D01*
X015852Y016672D01*
X015597Y016656D02*
X015597Y017388D01*
X014566Y017388D01*
X014531Y017422D01*
X014868Y017674D02*
X015271Y017674D01*
X015201Y017832D02*
X007794Y017832D01*
X007752Y017815D02*
X007926Y017887D01*
X008060Y018021D01*
X008132Y018195D01*
X008132Y018384D01*
X008060Y018558D01*
X007926Y018692D01*
X007752Y018764D01*
X007563Y018764D01*
X007388Y018692D01*
X007255Y018558D01*
X007183Y018384D01*
X007183Y018195D01*
X007255Y018021D01*
X007388Y017887D01*
X007563Y017815D01*
X007752Y017815D01*
X007520Y017832D02*
X005677Y017832D01*
X005677Y017674D02*
X008109Y017674D01*
X007950Y017515D02*
X005677Y017515D01*
X005677Y017357D02*
X007492Y017357D01*
X007273Y017198D02*
X005677Y017198D01*
X005677Y017040D02*
X007197Y017040D01*
X007183Y016881D02*
X005677Y016881D01*
X005677Y016723D02*
X007221Y016723D01*
X007333Y016564D02*
X005677Y016564D01*
X005677Y016406D02*
X009107Y016406D01*
X009110Y016414D02*
X009058Y016290D01*
X009058Y016155D01*
X009110Y016031D01*
X009205Y015936D01*
X009329Y015884D01*
X009464Y015884D01*
X009588Y015936D01*
X009683Y016031D01*
X009735Y016155D01*
X009735Y016249D01*
X009988Y016502D01*
X010294Y016502D01*
X010514Y016282D01*
X010879Y016282D01*
X011137Y016540D01*
X011137Y016905D01*
X010879Y017162D01*
X010514Y017162D01*
X010294Y016942D01*
X009805Y016942D01*
X009677Y016814D01*
X009424Y016561D01*
X009329Y016561D01*
X009205Y016509D01*
X009110Y016414D01*
X009058Y016247D02*
X005677Y016247D01*
X005677Y016089D02*
X009086Y016089D01*
X009218Y015930D02*
X007931Y015930D01*
X008072Y015772D02*
X010217Y015772D01*
X010217Y015742D02*
X010677Y015742D01*
X010677Y015702D01*
X010717Y015702D01*
X010717Y015742D01*
X011177Y015742D01*
X011177Y015921D01*
X010895Y016202D01*
X010717Y016202D01*
X010717Y015742D01*
X010677Y015742D01*
X010677Y016202D01*
X010498Y016202D01*
X010217Y015921D01*
X010217Y015742D01*
X010217Y015702D02*
X010217Y015524D01*
X010498Y015242D01*
X010677Y015242D01*
X010677Y015702D01*
X010217Y015702D01*
X010217Y015613D02*
X008132Y015613D01*
X008132Y015455D02*
X010285Y015455D01*
X010444Y015296D02*
X008205Y015296D01*
X008268Y014922D02*
X007657Y015533D01*
X007242Y015296D02*
X005677Y015296D01*
X005677Y015138D02*
X007381Y015138D01*
X007183Y015455D02*
X005677Y015455D01*
X005677Y015613D02*
X007183Y015613D01*
X007242Y015772D02*
X005677Y015772D01*
X005677Y015930D02*
X007383Y015930D01*
X007981Y016564D02*
X009427Y016564D01*
X009586Y016723D02*
X008093Y016723D01*
X008132Y016881D02*
X009744Y016881D01*
X009897Y016722D02*
X010697Y016722D01*
X011002Y016406D02*
X011391Y016406D01*
X011257Y016564D02*
X011137Y016564D01*
X011137Y016723D02*
X011257Y016723D01*
X011257Y016881D02*
X011137Y016881D01*
X011001Y017040D02*
X011392Y017040D01*
X011477Y017198D02*
X008255Y017198D01*
X008118Y017040D02*
X010392Y017040D01*
X009897Y016722D02*
X009397Y016222D01*
X009707Y016089D02*
X010384Y016089D01*
X010226Y015930D02*
X009575Y015930D01*
X009735Y016247D02*
X014277Y016247D01*
X014277Y016331D02*
X014277Y016081D01*
X014210Y016014D01*
X014158Y015890D01*
X014158Y015755D01*
X014210Y015631D01*
X014305Y015536D01*
X014429Y015484D01*
X014564Y015484D01*
X014688Y015536D01*
X014783Y015631D01*
X014835Y015755D01*
X014835Y015890D01*
X014783Y016014D01*
X014717Y016081D01*
X014717Y016514D01*
X014588Y016642D01*
X014288Y016942D01*
X013099Y016942D01*
X012879Y017162D01*
X012514Y017162D01*
X012257Y016905D01*
X012257Y016540D01*
X012514Y016282D01*
X012879Y016282D01*
X013099Y016502D01*
X014105Y016502D01*
X014277Y016331D01*
X014202Y016406D02*
X013002Y016406D01*
X012879Y016162D02*
X012514Y016162D01*
X012257Y015905D01*
X012257Y015540D01*
X012514Y015282D01*
X012879Y015282D01*
X013137Y015540D01*
X013137Y015905D01*
X012879Y016162D01*
X012952Y016089D02*
X014277Y016089D01*
X014175Y015930D02*
X013111Y015930D01*
X013137Y015772D02*
X014158Y015772D01*
X014227Y015613D02*
X013137Y015613D01*
X013051Y015455D02*
X015377Y015455D01*
X015377Y015296D02*
X012893Y015296D01*
X012500Y015296D02*
X011917Y015296D01*
X012051Y015455D02*
X012342Y015455D01*
X012257Y015613D02*
X012137Y015613D01*
X012137Y015772D02*
X012257Y015772D01*
X012282Y015930D02*
X012111Y015930D01*
X011952Y016089D02*
X012441Y016089D01*
X012391Y016406D02*
X012002Y016406D01*
X012137Y016564D02*
X012257Y016564D01*
X012257Y016723D02*
X012137Y016723D01*
X012137Y016881D02*
X012257Y016881D01*
X012392Y017040D02*
X012001Y017040D01*
X011917Y017198D02*
X013525Y017198D01*
X013812Y017472D02*
X011697Y017472D01*
X008218Y017472D01*
X007657Y016911D01*
X007284Y017991D02*
X005677Y017991D01*
X005677Y018149D02*
X007201Y018149D01*
X007183Y018308D02*
X005677Y018308D01*
X005677Y018466D02*
X007217Y018466D01*
X007321Y018625D02*
X005677Y018625D01*
X005677Y018783D02*
X017207Y018783D01*
X017353Y018625D02*
X007993Y018625D01*
X008098Y018466D02*
X017498Y018466D01*
X017643Y018308D02*
X015985Y018308D01*
X015981Y018323D02*
X015957Y018364D01*
X015924Y018398D01*
X015883Y018422D01*
X015837Y018434D01*
X015615Y018434D01*
X015615Y018076D01*
X015993Y018076D01*
X015993Y018278D01*
X015981Y018323D01*
X015993Y018149D02*
X017788Y018149D01*
X017934Y017991D02*
X015993Y017991D01*
X015992Y017832D02*
X017997Y017832D01*
X017997Y017674D02*
X015922Y017674D01*
X015953Y017515D02*
X016340Y017515D01*
X016206Y017357D02*
X015953Y017357D01*
X015953Y017198D02*
X016178Y017198D01*
X016226Y017040D02*
X015817Y017040D01*
X015377Y017040D02*
X013001Y017040D01*
X012697Y016722D02*
X014197Y016722D01*
X014497Y016422D01*
X014497Y015822D01*
X014818Y015930D02*
X015121Y015930D01*
X015121Y015772D02*
X014835Y015772D01*
X014766Y015613D02*
X015122Y015613D01*
X015341Y015789D02*
X015341Y016117D01*
X015447Y016222D01*
X017264Y016222D01*
X017651Y015613D02*
X017997Y015613D01*
X017997Y015455D02*
X017569Y015455D01*
X016960Y015455D02*
X016727Y015455D01*
X015852Y015613D02*
X015852Y015613D01*
X015852Y015772D02*
X015852Y015772D01*
X015597Y015789D02*
X015597Y014857D01*
X014497Y014857D01*
X014431Y014922D01*
X014768Y015138D02*
X015266Y015138D01*
X015245Y014504D02*
X007980Y014504D01*
X008059Y014821D02*
X005677Y014821D01*
X005677Y014979D02*
X007900Y014979D01*
X008268Y014922D02*
X011697Y014922D01*
X013762Y014922D01*
X013425Y014662D02*
X005677Y014662D01*
X005677Y014504D02*
X007334Y014504D01*
X007222Y014345D02*
X005677Y014345D01*
X005677Y014187D02*
X007183Y014187D01*
X007196Y014028D02*
X005677Y014028D01*
X005677Y013870D02*
X007271Y013870D01*
X007489Y013711D02*
X005677Y013711D01*
X005677Y013553D02*
X009642Y013553D01*
X009642Y013394D02*
X005677Y013394D01*
X005677Y013236D02*
X007423Y013236D01*
X007387Y013218D02*
X007322Y013170D01*
X007265Y013113D01*
X007217Y013047D01*
X007180Y012975D01*
X007155Y012898D01*
X007143Y012818D01*
X007143Y012806D01*
X007629Y012806D01*
X007629Y013292D01*
X007617Y013292D01*
X007537Y013280D01*
X007460Y013254D01*
X007387Y013218D01*
X007239Y013077D02*
X005677Y013077D01*
X005677Y012919D02*
X007162Y012919D01*
X007143Y012749D02*
X007143Y012737D01*
X007155Y012657D01*
X007180Y012580D01*
X007217Y012508D01*
X007265Y012442D01*
X007322Y012385D01*
X007387Y012337D01*
X007460Y012301D01*
X007537Y012276D01*
X007617Y012263D01*
X007629Y012263D01*
X007629Y012749D01*
X007685Y012749D01*
X007685Y012263D01*
X007698Y012263D01*
X007778Y012276D01*
X007855Y012301D01*
X007927Y012337D01*
X007992Y012385D01*
X008050Y012442D01*
X008097Y012508D01*
X008134Y012580D01*
X008159Y012657D01*
X008172Y012737D01*
X008172Y012749D01*
X007685Y012749D01*
X007685Y012806D01*
X007629Y012806D01*
X007629Y012749D01*
X007143Y012749D01*
X007173Y012602D02*
X005677Y012602D01*
X005677Y012760D02*
X007629Y012760D01*
X007685Y012760D02*
X009525Y012760D01*
X009525Y012919D02*
X008152Y012919D01*
X008159Y012898D02*
X008134Y012975D01*
X008097Y013047D01*
X008050Y013113D01*
X007992Y013170D01*
X007927Y013218D01*
X007855Y013254D01*
X007778Y013280D01*
X007698Y013292D01*
X007685Y013292D01*
X007685Y012806D01*
X008172Y012806D01*
X008172Y012818D01*
X008159Y012898D01*
X008075Y013077D02*
X009525Y013077D01*
X009525Y013236D02*
X007891Y013236D01*
X007685Y013236D02*
X007629Y013236D01*
X007629Y013077D02*
X007685Y013077D01*
X007685Y012919D02*
X007629Y012919D01*
X007629Y012602D02*
X007685Y012602D01*
X007685Y012443D02*
X007629Y012443D01*
X007629Y012285D02*
X007685Y012285D01*
X007806Y012285D02*
X010277Y012285D01*
X010277Y012443D02*
X008051Y012443D01*
X008141Y012602D02*
X010277Y012602D01*
X010497Y012988D02*
X010497Y010722D01*
X010717Y010858D02*
X011777Y010858D01*
X011777Y010700D02*
X010830Y010700D01*
X010989Y010541D02*
X011866Y010541D01*
X012025Y010383D02*
X011147Y010383D01*
X011306Y010224D02*
X012183Y010224D01*
X012077Y010331D02*
X012077Y010331D01*
X012388Y010642D02*
X012217Y010814D01*
X012217Y011222D01*
X016297Y011222D01*
X018597Y013622D01*
X018597Y018022D01*
X017097Y019622D01*
X010997Y019622D01*
X009597Y021022D01*
X005677Y021022D01*
X005677Y031122D01*
X030090Y031122D01*
X030090Y023042D01*
X028005Y023042D01*
X026505Y021542D01*
X026377Y021414D01*
X026377Y009979D01*
X026307Y009979D01*
X026225Y009897D01*
X026225Y009348D01*
X026307Y009266D01*
X026329Y009266D01*
X026105Y009042D01*
X023868Y009042D01*
X023868Y009097D01*
X023786Y009179D01*
X023276Y009179D01*
X023197Y009099D01*
X023117Y009179D01*
X022667Y009179D01*
X022667Y009504D01*
X022697Y009534D01*
X022759Y009472D01*
X023135Y009472D01*
X023197Y009534D01*
X023259Y009472D01*
X023635Y009472D01*
X023717Y009554D01*
X023717Y009828D01*
X023861Y009828D01*
X023861Y009735D01*
X023943Y009653D01*
X024650Y009653D01*
X024732Y009735D01*
X024732Y010362D01*
X024699Y010395D01*
X024702Y010397D01*
X024736Y010430D01*
X024760Y010471D01*
X024772Y010517D01*
X024772Y010749D01*
X024344Y010749D01*
X024344Y010844D01*
X024249Y010844D01*
X024249Y010749D01*
X023821Y010749D01*
X023821Y010517D01*
X023834Y010471D01*
X023857Y010430D01*
X023891Y010397D01*
X023894Y010395D01*
X023861Y010362D01*
X023861Y010268D01*
X023717Y010268D01*
X023717Y010470D01*
X023667Y010520D01*
X023667Y011064D01*
X023317Y011414D01*
X023188Y011542D01*
X021588Y011542D01*
X021335Y011795D01*
X021335Y011890D01*
X021283Y012014D01*
X021188Y012109D01*
X021064Y012161D01*
X020929Y012161D01*
X020805Y012109D01*
X020710Y012014D01*
X020658Y011890D01*
X020658Y011755D01*
X020710Y011631D01*
X020805Y011536D01*
X020929Y011484D01*
X021024Y011484D01*
X021365Y011142D01*
X021255Y011142D01*
X021188Y011209D01*
X021064Y011261D01*
X020929Y011261D01*
X020805Y011209D01*
X020710Y011114D01*
X020658Y010990D01*
X020658Y010855D01*
X020710Y010731D01*
X020805Y010636D01*
X020929Y010584D01*
X021064Y010584D01*
X021188Y010636D01*
X021255Y010702D01*
X022605Y010702D01*
X022727Y010581D01*
X022727Y010520D01*
X022697Y010490D01*
X022635Y010552D01*
X022259Y010552D01*
X022197Y010490D01*
X022135Y010552D01*
X021759Y010552D01*
X021677Y010470D01*
X021677Y009554D01*
X021697Y009534D01*
X021505Y009342D01*
X021255Y009342D01*
X021188Y009409D01*
X021064Y009461D01*
X020929Y009461D01*
X020805Y009409D01*
X020710Y009314D01*
X020658Y009190D01*
X020658Y009055D01*
X020710Y008931D01*
X020805Y008836D01*
X020929Y008784D01*
X021064Y008784D01*
X021188Y008836D01*
X021255Y008902D01*
X021505Y008902D01*
X022227Y008181D01*
X022355Y008052D01*
X026538Y008052D01*
X026667Y008181D01*
X027451Y008966D01*
X027451Y009266D01*
X027486Y009266D01*
X027568Y009348D01*
X027568Y009897D01*
X027486Y009979D01*
X027451Y009979D01*
X027451Y013366D01*
X027688Y013602D01*
X030090Y013602D01*
X030090Y013080D01*
X030086Y013074D01*
X030052Y013007D01*
X030028Y012935D01*
X030017Y012860D01*
X030017Y012842D01*
X030090Y012842D01*
X030090Y012802D01*
X030017Y012802D01*
X030017Y012785D01*
X030028Y012710D01*
X030052Y012638D01*
X030086Y012571D01*
X030090Y012565D01*
X030090Y009627D01*
X028126Y007663D01*
X019467Y007663D01*
X016488Y010642D01*
X012388Y010642D01*
X012330Y010700D02*
X020741Y010700D01*
X020658Y010858D02*
X012217Y010858D01*
X012217Y011017D02*
X020670Y011017D01*
X020771Y011175D02*
X012217Y011175D01*
X011777Y011175D02*
X010717Y011175D01*
X010717Y011017D02*
X011777Y011017D01*
X012217Y011809D02*
X016179Y011809D01*
X016330Y011968D02*
X012217Y011968D01*
X012217Y012126D02*
X016480Y012126D01*
X016631Y012285D02*
X012217Y012285D01*
X012217Y012443D02*
X016781Y012443D01*
X017163Y012126D02*
X020847Y012126D01*
X020691Y011968D02*
X017011Y011968D01*
X016859Y011809D02*
X020658Y011809D01*
X020702Y011651D02*
X016707Y011651D01*
X016555Y011492D02*
X020910Y011492D01*
X021174Y011334D02*
X016403Y011334D01*
X016589Y010541D02*
X021748Y010541D01*
X021677Y010383D02*
X016747Y010383D01*
X016906Y010224D02*
X021677Y010224D01*
X021677Y010066D02*
X017064Y010066D01*
X017223Y009907D02*
X021677Y009907D01*
X021677Y009749D02*
X017381Y009749D01*
X017540Y009590D02*
X021677Y009590D01*
X021595Y009432D02*
X021133Y009432D01*
X020860Y009432D02*
X017698Y009432D01*
X017857Y009273D02*
X020693Y009273D01*
X020658Y009115D02*
X018015Y009115D01*
X018174Y008956D02*
X020699Y008956D01*
X020896Y008798D02*
X018332Y008798D01*
X018491Y008639D02*
X021768Y008639D01*
X021927Y008481D02*
X018649Y008481D01*
X018808Y008322D02*
X022085Y008322D01*
X022244Y008164D02*
X018966Y008164D01*
X019125Y008005D02*
X028468Y008005D01*
X028310Y007847D02*
X019283Y007847D01*
X019442Y007688D02*
X028151Y007688D01*
X028217Y007443D02*
X032197Y011422D01*
X032197Y021522D01*
X032897Y022222D01*
X038337Y022222D01*
X038363Y022196D01*
X038779Y022270D02*
X048110Y022270D01*
X048110Y022112D02*
X039611Y022112D01*
X039645Y022077D02*
X039563Y022159D01*
X038896Y022159D01*
X038814Y022077D01*
X038814Y022042D01*
X038779Y022042D01*
X038779Y022451D01*
X038697Y022533D01*
X038030Y022533D01*
X037948Y022451D01*
X037948Y022442D01*
X032805Y022442D01*
X032105Y021742D01*
X031977Y021614D01*
X031977Y018610D01*
X030393Y018610D01*
X030393Y020389D01*
X030409Y020382D01*
X031184Y020382D01*
X031346Y020449D01*
X031470Y020573D01*
X031537Y020735D01*
X031537Y020910D01*
X031470Y021072D01*
X031346Y021195D01*
X031184Y021262D01*
X030409Y021262D01*
X030393Y021256D01*
X030393Y022389D01*
X030409Y022382D01*
X031184Y022382D01*
X031346Y022449D01*
X031470Y022573D01*
X031537Y022735D01*
X031537Y022910D01*
X031470Y023072D01*
X031346Y023195D01*
X031184Y023262D01*
X030409Y023262D01*
X030393Y023256D01*
X030393Y029633D01*
X046141Y029633D01*
X048110Y027665D01*
X048110Y018610D01*
X047998Y018610D01*
X047998Y018738D01*
X047901Y018973D01*
X047720Y019154D01*
X047608Y019200D01*
X047720Y019247D01*
X047901Y019427D01*
X047998Y019663D01*
X047998Y019919D01*
X047901Y020155D01*
X047720Y020335D01*
X047484Y020433D01*
X047229Y020433D01*
X046993Y020335D01*
X046938Y020281D01*
X045517Y020281D01*
X045337Y020206D01*
X044819Y019688D01*
X044681Y019550D01*
X044607Y019370D01*
X044607Y019233D01*
X044539Y019233D01*
X044457Y019151D01*
X044457Y018610D01*
X033417Y018610D01*
X033417Y021031D01*
X033588Y021202D01*
X037948Y021202D01*
X037948Y021194D01*
X038030Y021112D01*
X038697Y021112D01*
X038779Y021194D01*
X038779Y021602D01*
X038814Y021602D01*
X038814Y021568D01*
X038896Y021486D01*
X039563Y021486D01*
X039645Y021568D01*
X039645Y022077D01*
X039645Y021953D02*
X048110Y021953D01*
X048110Y021795D02*
X039645Y021795D01*
X039645Y021636D02*
X048110Y021636D01*
X048110Y021478D02*
X038779Y021478D01*
X038779Y021319D02*
X048110Y021319D01*
X048110Y021161D02*
X038746Y021161D01*
X038363Y021448D02*
X038337Y021422D01*
X033497Y021422D01*
X033197Y021122D01*
X033197Y012122D01*
X032697Y011622D02*
X032697Y021422D01*
X033097Y021822D01*
X039230Y021822D01*
X038849Y022112D02*
X038779Y022112D01*
X038779Y022429D02*
X048110Y022429D01*
X048110Y022587D02*
X031475Y022587D01*
X031537Y022746D02*
X048110Y022746D01*
X048110Y022904D02*
X031537Y022904D01*
X031473Y023063D02*
X048110Y023063D01*
X048110Y023221D02*
X031283Y023221D01*
X030797Y022822D02*
X028097Y022822D01*
X026597Y021322D01*
X026597Y009822D01*
X026562Y009788D01*
X026562Y009622D01*
X026562Y009188D01*
X026197Y008822D01*
X023531Y008822D01*
X023212Y009115D02*
X023181Y009115D01*
X022862Y008822D02*
X022597Y008822D01*
X022447Y008972D01*
X022447Y010012D01*
X022947Y010012D02*
X022947Y010672D01*
X022697Y010922D01*
X020997Y010922D01*
X021252Y010700D02*
X022608Y010700D01*
X022646Y010541D02*
X022727Y010541D01*
X022248Y010541D02*
X022146Y010541D01*
X021947Y010012D02*
X021947Y009472D01*
X021597Y009122D01*
X022447Y008272D01*
X026447Y008272D01*
X027231Y009057D01*
X027231Y009622D01*
X027231Y013457D01*
X027597Y013822D01*
X030797Y013822D01*
X030393Y013870D02*
X031977Y013870D01*
X031977Y014028D02*
X030393Y014028D01*
X030393Y014187D02*
X031977Y014187D01*
X031977Y014345D02*
X030393Y014345D01*
X030409Y014382D02*
X031184Y014382D01*
X031346Y014449D01*
X031470Y014573D01*
X031537Y014735D01*
X031537Y014910D01*
X031470Y015072D01*
X031346Y015195D01*
X031184Y015262D01*
X030409Y015262D01*
X030393Y015256D01*
X030393Y017035D01*
X031977Y017035D01*
X031977Y011514D01*
X030393Y009930D01*
X030393Y012389D01*
X030409Y012382D01*
X031184Y012382D01*
X031346Y012449D01*
X031470Y012573D01*
X031537Y012735D01*
X031537Y012910D01*
X031470Y013072D01*
X031346Y013195D01*
X031184Y013262D01*
X030409Y013262D01*
X030393Y013256D01*
X030393Y014389D01*
X030409Y014382D01*
X030090Y014345D02*
X026817Y014345D01*
X026817Y014187D02*
X030090Y014187D01*
X030090Y014042D02*
X027505Y014042D01*
X027377Y013914D01*
X027140Y013677D01*
X027011Y013548D01*
X027011Y009979D01*
X026976Y009979D01*
X026897Y009899D01*
X026817Y009979D01*
X026817Y009979D01*
X026817Y017701D01*
X026881Y017545D01*
X027019Y017407D01*
X027199Y017332D01*
X030090Y017332D01*
X030090Y015042D01*
X027455Y015042D01*
X027388Y015109D01*
X027264Y015161D01*
X027129Y015161D01*
X027005Y015109D01*
X026910Y015014D01*
X026858Y014890D01*
X026858Y014755D01*
X026910Y014631D01*
X027005Y014536D01*
X027129Y014484D01*
X027264Y014484D01*
X027388Y014536D01*
X027455Y014602D01*
X030090Y014602D01*
X030090Y014042D01*
X030393Y013711D02*
X031977Y013711D01*
X031977Y013553D02*
X030393Y013553D01*
X030393Y013394D02*
X031977Y013394D01*
X031977Y013236D02*
X031248Y013236D01*
X031464Y013077D02*
X031977Y013077D01*
X031977Y012919D02*
X031533Y012919D01*
X031537Y012760D02*
X031977Y012760D01*
X031977Y012602D02*
X031481Y012602D01*
X031331Y012443D02*
X031977Y012443D01*
X031977Y012285D02*
X030393Y012285D01*
X030393Y012126D02*
X031977Y012126D01*
X031977Y011968D02*
X030393Y011968D01*
X030393Y011809D02*
X031977Y011809D01*
X031977Y011651D02*
X030393Y011651D01*
X030393Y011492D02*
X031955Y011492D01*
X031797Y011334D02*
X030393Y011334D01*
X030393Y011175D02*
X031638Y011175D01*
X031480Y011017D02*
X030393Y011017D01*
X030393Y010858D02*
X031321Y010858D01*
X031163Y010700D02*
X030393Y010700D01*
X030393Y010541D02*
X031004Y010541D01*
X030846Y010383D02*
X030393Y010383D01*
X030393Y010224D02*
X030687Y010224D01*
X030529Y010066D02*
X030393Y010066D01*
X030090Y010066D02*
X027451Y010066D01*
X027451Y010224D02*
X030090Y010224D01*
X030090Y010383D02*
X027451Y010383D01*
X027451Y010541D02*
X030090Y010541D01*
X030090Y010700D02*
X027451Y010700D01*
X027451Y010858D02*
X030090Y010858D01*
X030090Y011017D02*
X027451Y011017D01*
X027451Y011175D02*
X030090Y011175D01*
X030090Y011334D02*
X027451Y011334D01*
X027451Y011492D02*
X030090Y011492D01*
X030090Y011651D02*
X027451Y011651D01*
X027451Y011809D02*
X030090Y011809D01*
X030090Y011968D02*
X027451Y011968D01*
X027451Y012126D02*
X030090Y012126D01*
X030090Y012285D02*
X027451Y012285D01*
X027451Y012443D02*
X030090Y012443D01*
X030070Y012602D02*
X027451Y012602D01*
X027451Y012760D02*
X030020Y012760D01*
X030026Y012919D02*
X027451Y012919D01*
X027451Y013077D02*
X030088Y013077D01*
X030090Y013236D02*
X027451Y013236D01*
X027480Y013394D02*
X030090Y013394D01*
X030090Y013553D02*
X027638Y013553D01*
X027333Y013870D02*
X026817Y013870D01*
X026817Y014028D02*
X027491Y014028D01*
X027174Y013711D02*
X026817Y013711D01*
X026817Y013553D02*
X027016Y013553D01*
X027011Y013394D02*
X026817Y013394D01*
X026817Y013236D02*
X027011Y013236D01*
X027011Y013077D02*
X026817Y013077D01*
X026817Y012919D02*
X027011Y012919D01*
X027011Y012760D02*
X026817Y012760D01*
X026817Y012602D02*
X027011Y012602D01*
X027011Y012443D02*
X026817Y012443D01*
X026817Y012285D02*
X027011Y012285D01*
X027011Y012126D02*
X026817Y012126D01*
X026817Y011968D02*
X027011Y011968D01*
X027011Y011809D02*
X026817Y011809D01*
X026817Y011651D02*
X027011Y011651D01*
X027011Y011492D02*
X026817Y011492D01*
X026817Y011334D02*
X027011Y011334D01*
X027011Y011175D02*
X026817Y011175D01*
X026817Y011017D02*
X027011Y011017D01*
X027011Y010858D02*
X026817Y010858D01*
X026817Y010700D02*
X027011Y010700D01*
X027011Y010541D02*
X026817Y010541D01*
X026817Y010383D02*
X027011Y010383D01*
X027011Y010224D02*
X026817Y010224D01*
X026817Y010066D02*
X027011Y010066D01*
X026905Y009907D02*
X026888Y009907D01*
X026377Y010066D02*
X024732Y010066D01*
X024732Y010224D02*
X026377Y010224D01*
X026377Y010383D02*
X024711Y010383D01*
X024772Y010541D02*
X026377Y010541D01*
X026377Y010700D02*
X024772Y010700D01*
X024772Y010844D02*
X024772Y011076D01*
X024760Y011122D01*
X024736Y011163D01*
X024702Y011196D01*
X024661Y011220D01*
X024615Y011232D01*
X024344Y011232D01*
X024344Y010844D01*
X024772Y010844D01*
X024772Y010858D02*
X026377Y010858D01*
X026377Y011017D02*
X024772Y011017D01*
X024723Y011175D02*
X026377Y011175D01*
X026377Y011334D02*
X023396Y011334D01*
X023238Y011492D02*
X026377Y011492D01*
X026377Y011651D02*
X021479Y011651D01*
X021335Y011809D02*
X024013Y011809D01*
X024021Y011795D02*
X024055Y011762D01*
X024096Y011738D01*
X024141Y011726D01*
X024343Y011726D01*
X024343Y012104D01*
X023985Y012104D01*
X023985Y011882D01*
X023997Y011836D01*
X024021Y011795D01*
X023985Y011968D02*
X023710Y011968D01*
X023717Y011974D02*
X023717Y012890D01*
X023705Y012902D01*
X024025Y012902D01*
X024025Y012848D01*
X024107Y012766D01*
X024617Y012766D01*
X024697Y012846D01*
X024776Y012766D01*
X025286Y012766D01*
X025368Y012848D01*
X025368Y012902D01*
X025477Y012902D01*
X025477Y012514D01*
X025364Y012401D01*
X025286Y012479D01*
X024776Y012479D01*
X024719Y012422D01*
X024703Y012449D01*
X024669Y012483D01*
X024628Y012507D01*
X024582Y012519D01*
X024380Y012519D01*
X024380Y012141D01*
X024343Y012141D01*
X024343Y012104D01*
X024380Y012104D01*
X024380Y011726D01*
X024582Y011726D01*
X024628Y011738D01*
X024669Y011762D01*
X024703Y011795D01*
X024719Y011823D01*
X024776Y011766D01*
X025286Y011766D01*
X025368Y011848D01*
X025368Y011902D01*
X025488Y011902D01*
X025788Y012202D01*
X025917Y012331D01*
X025917Y014564D01*
X025983Y014631D01*
X026035Y014755D01*
X026035Y014890D01*
X025983Y015014D01*
X025888Y015109D01*
X025764Y015161D01*
X025629Y015161D01*
X025505Y015109D01*
X025410Y015014D01*
X025358Y014890D01*
X025358Y014755D01*
X025410Y014631D01*
X025477Y014564D01*
X025477Y013342D01*
X025368Y013342D01*
X025368Y013397D01*
X025286Y013479D01*
X024776Y013479D01*
X024697Y013399D01*
X024617Y013479D01*
X024107Y013479D01*
X024025Y013397D01*
X024025Y013342D01*
X023505Y013342D01*
X023377Y013214D01*
X023227Y013064D01*
X023227Y012940D01*
X023224Y012938D01*
X023221Y012943D01*
X023187Y012976D01*
X023146Y013000D01*
X023100Y013012D01*
X022947Y013012D01*
X022947Y012432D01*
X022947Y011852D01*
X023100Y011852D01*
X023146Y011865D01*
X023187Y011888D01*
X023221Y011922D01*
X023224Y011927D01*
X023259Y011892D01*
X023635Y011892D01*
X023717Y011974D01*
X023717Y012126D02*
X024343Y012126D01*
X024343Y012141D02*
X023985Y012141D01*
X023985Y012363D01*
X023997Y012408D01*
X024021Y012449D01*
X024055Y012483D01*
X024096Y012507D01*
X024141Y012519D01*
X024343Y012519D01*
X024343Y012141D01*
X024343Y012285D02*
X024380Y012285D01*
X024380Y012443D02*
X024343Y012443D01*
X024017Y012443D02*
X023717Y012443D01*
X023717Y012285D02*
X023985Y012285D01*
X023717Y012602D02*
X025477Y012602D01*
X025477Y012760D02*
X023717Y012760D01*
X023447Y012972D02*
X023447Y012432D01*
X022947Y012432D02*
X022947Y012432D01*
X022947Y012432D01*
X022947Y011852D01*
X022793Y011852D01*
X022747Y011865D01*
X022706Y011888D01*
X022672Y011922D01*
X022669Y011927D01*
X022635Y011892D01*
X022259Y011892D01*
X022197Y011954D01*
X022135Y011892D01*
X021759Y011892D01*
X021677Y011974D01*
X021677Y012890D01*
X021727Y012940D01*
X021727Y013664D01*
X021977Y013914D01*
X022105Y014042D01*
X023538Y014042D01*
X023562Y014066D01*
X023076Y014066D01*
X022997Y014146D01*
X022917Y014066D01*
X022407Y014066D01*
X022325Y014148D01*
X022325Y014168D01*
X022153Y014168D01*
X022153Y014133D01*
X022071Y014051D01*
X021522Y014051D01*
X021440Y014133D01*
X021440Y014202D01*
X021155Y014202D01*
X021088Y014136D01*
X020964Y014084D01*
X020829Y014084D01*
X020705Y014136D01*
X020610Y014231D01*
X020558Y014355D01*
X020558Y014449D01*
X020385Y014623D01*
X020367Y014623D01*
X020367Y014588D01*
X020285Y014506D01*
X019736Y014506D01*
X019704Y014539D01*
X019702Y014536D01*
X019668Y014502D01*
X019627Y014478D01*
X019582Y014466D01*
X019360Y014466D01*
X019360Y014824D01*
X019323Y014824D01*
X019323Y014466D01*
X019101Y014466D01*
X019055Y014478D01*
X019014Y014502D01*
X018981Y014536D01*
X018957Y014577D01*
X018945Y014622D01*
X018945Y014824D01*
X019323Y014824D01*
X019323Y014861D01*
X018945Y014861D01*
X018945Y015063D01*
X018957Y015109D01*
X018981Y015150D01*
X019014Y015184D01*
X019055Y015207D01*
X019101Y015220D01*
X019323Y015220D01*
X019323Y014861D01*
X019360Y014861D01*
X019360Y015220D01*
X019582Y015220D01*
X019627Y015207D01*
X019668Y015184D01*
X019702Y015150D01*
X019704Y015147D01*
X019736Y015180D01*
X019777Y015180D01*
X019777Y015431D01*
X019753Y015454D01*
X019205Y015454D01*
X019123Y015536D01*
X019123Y015908D01*
X019187Y015972D01*
X019123Y016036D01*
X019123Y016408D01*
X019187Y016472D01*
X019123Y016536D01*
X019123Y016908D01*
X019160Y016946D01*
X019152Y016950D01*
X019118Y016984D01*
X019095Y017025D01*
X019083Y017071D01*
X019083Y017222D01*
X019509Y017222D01*
X019509Y017222D01*
X019935Y017222D01*
X019935Y017071D01*
X019922Y017025D01*
X019899Y016984D01*
X019865Y016950D01*
X019857Y016946D01*
X019861Y016942D01*
X020405Y016942D01*
X020477Y017014D01*
X020605Y017142D01*
X020725Y017142D01*
X020725Y017197D01*
X020807Y017279D01*
X021317Y017279D01*
X021397Y017199D01*
X021476Y017279D01*
X021570Y017279D01*
X021797Y017505D01*
X021914Y017622D01*
X023879Y017622D01*
X024397Y017105D01*
X024397Y014940D01*
X024279Y014822D01*
X023679Y014222D01*
X023668Y014222D01*
X023668Y014148D01*
X023646Y014126D01*
X023729Y014161D01*
X023864Y014161D01*
X023988Y014109D01*
X024083Y014014D01*
X024135Y013890D01*
X024135Y013755D01*
X024083Y013631D01*
X023988Y013536D01*
X023864Y013484D01*
X023729Y013484D01*
X023605Y013536D01*
X023538Y013602D01*
X022533Y013602D01*
X022638Y013559D01*
X022733Y013464D01*
X022785Y013340D01*
X022785Y013205D01*
X022733Y013081D01*
X022667Y013014D01*
X022667Y012940D01*
X022669Y012938D01*
X022672Y012943D01*
X022706Y012976D01*
X022747Y013000D01*
X022793Y013012D01*
X022947Y013012D01*
X022947Y012432D01*
X022947Y012443D02*
X022947Y012443D01*
X022947Y012285D02*
X022947Y012285D01*
X022947Y012126D02*
X022947Y012126D01*
X022947Y011968D02*
X022947Y011968D01*
X022947Y012602D02*
X022947Y012602D01*
X022947Y012760D02*
X022947Y012760D01*
X022947Y012919D02*
X022947Y012919D01*
X022730Y013077D02*
X023240Y013077D01*
X023399Y013236D02*
X022785Y013236D01*
X022762Y013394D02*
X024025Y013394D01*
X024005Y013553D02*
X025477Y013553D01*
X025477Y013711D02*
X024117Y013711D01*
X024135Y013870D02*
X025477Y013870D01*
X025477Y014028D02*
X024069Y014028D01*
X023797Y013822D02*
X022197Y013822D01*
X021947Y013572D01*
X021947Y012432D01*
X021677Y012443D02*
X017467Y012443D01*
X017315Y012285D02*
X021677Y012285D01*
X021677Y012126D02*
X021146Y012126D01*
X021302Y011968D02*
X021683Y011968D01*
X021677Y012602D02*
X017619Y012602D01*
X017770Y012760D02*
X021677Y012760D01*
X021705Y012919D02*
X017922Y012919D01*
X018074Y013077D02*
X021727Y013077D01*
X021727Y013236D02*
X018226Y013236D01*
X018378Y013394D02*
X021727Y013394D01*
X021727Y013553D02*
X018530Y013553D01*
X018597Y013711D02*
X021774Y013711D01*
X021933Y013870D02*
X018597Y013870D01*
X018597Y014028D02*
X022091Y014028D01*
X021862Y014322D02*
X021797Y014388D01*
X022627Y014388D01*
X022662Y014422D01*
X022662Y016147D01*
X022682Y016167D01*
X021731Y015922D02*
X021731Y015122D01*
X021797Y015057D01*
X021762Y014422D02*
X020897Y014422D01*
X020476Y014843D01*
X020011Y014843D01*
X019997Y014857D01*
X019997Y015522D01*
X019797Y015722D01*
X019509Y015722D01*
X019123Y015772D02*
X018597Y015772D01*
X018597Y015930D02*
X019145Y015930D01*
X019123Y016089D02*
X018597Y016089D01*
X018597Y016247D02*
X019123Y016247D01*
X019123Y016406D02*
X018597Y016406D01*
X018597Y016564D02*
X019123Y016564D01*
X019123Y016723D02*
X018597Y016723D01*
X018597Y016881D02*
X019123Y016881D01*
X019091Y017040D02*
X018597Y017040D01*
X018597Y017198D02*
X019083Y017198D01*
X019083Y017222D02*
X019509Y017222D01*
X019935Y017222D01*
X019935Y017374D01*
X019922Y017420D01*
X019899Y017461D01*
X019865Y017494D01*
X019824Y017518D01*
X019778Y017530D01*
X019509Y017530D01*
X019509Y017222D01*
X019509Y017222D01*
X019509Y017222D01*
X019509Y017530D01*
X019239Y017530D01*
X019193Y017518D01*
X019152Y017494D01*
X019118Y017461D01*
X019095Y017420D01*
X019083Y017374D01*
X019083Y017222D01*
X019083Y017357D02*
X018597Y017357D01*
X018597Y017515D02*
X019188Y017515D01*
X019509Y017515D02*
X019509Y017515D01*
X019509Y017357D02*
X019509Y017357D01*
X019829Y017515D02*
X021807Y017515D01*
X021648Y017357D02*
X019935Y017357D01*
X019935Y017198D02*
X020726Y017198D01*
X020503Y017040D02*
X019926Y017040D01*
X019509Y016722D02*
X020497Y016722D01*
X020697Y016922D01*
X021062Y016922D01*
X020497Y016222D02*
X020797Y015922D01*
X021062Y015922D01*
X020497Y016222D02*
X019509Y016222D01*
X019123Y015613D02*
X018597Y015613D01*
X018597Y015455D02*
X019204Y015455D01*
X019323Y015138D02*
X019360Y015138D01*
X019360Y014979D02*
X019323Y014979D01*
X019323Y014821D02*
X019360Y014821D01*
X019360Y014662D02*
X019323Y014662D01*
X019323Y014504D02*
X019360Y014504D01*
X019670Y014504D02*
X020504Y014504D01*
X020562Y014345D02*
X018597Y014345D01*
X018597Y014187D02*
X020654Y014187D01*
X021139Y014187D02*
X021440Y014187D01*
X021762Y014422D02*
X021797Y014388D01*
X022644Y013553D02*
X023588Y013553D01*
X023597Y013122D02*
X024362Y013122D01*
X025031Y013122D02*
X025697Y013122D01*
X025697Y014822D01*
X026035Y014821D02*
X026377Y014821D01*
X026377Y014979D02*
X025997Y014979D01*
X025818Y015138D02*
X026377Y015138D01*
X026377Y015296D02*
X024397Y015296D01*
X024397Y015138D02*
X025575Y015138D01*
X025396Y014979D02*
X024397Y014979D01*
X024278Y014821D02*
X025358Y014821D01*
X025397Y014662D02*
X024119Y014662D01*
X023961Y014504D02*
X025477Y014504D01*
X025477Y014345D02*
X023802Y014345D01*
X023668Y014187D02*
X025477Y014187D01*
X025917Y014187D02*
X026377Y014187D01*
X026377Y014345D02*
X025917Y014345D01*
X025917Y014504D02*
X026377Y014504D01*
X026377Y014662D02*
X025996Y014662D01*
X025917Y014028D02*
X026377Y014028D01*
X026377Y013870D02*
X025917Y013870D01*
X025917Y013711D02*
X026377Y013711D01*
X026377Y013553D02*
X025917Y013553D01*
X025917Y013394D02*
X026377Y013394D01*
X026377Y013236D02*
X025917Y013236D01*
X025917Y013077D02*
X026377Y013077D01*
X026377Y012919D02*
X025917Y012919D01*
X025917Y012760D02*
X026377Y012760D01*
X026377Y012602D02*
X025917Y012602D01*
X025917Y012443D02*
X026377Y012443D01*
X026377Y012285D02*
X025870Y012285D01*
X025697Y012422D02*
X025697Y013122D01*
X025477Y013394D02*
X025368Y013394D01*
X025406Y012443D02*
X025322Y012443D01*
X025397Y012122D02*
X025697Y012422D01*
X025712Y012126D02*
X026377Y012126D01*
X026377Y011968D02*
X025553Y011968D01*
X025397Y012122D02*
X025031Y012122D01*
X024733Y011809D02*
X024711Y011809D01*
X024380Y011809D02*
X024343Y011809D01*
X024343Y011968D02*
X024380Y011968D01*
X024706Y012443D02*
X024741Y012443D01*
X025330Y011809D02*
X026377Y011809D01*
X024344Y011175D02*
X024249Y011175D01*
X024249Y011232D02*
X023978Y011232D01*
X023932Y011220D01*
X023891Y011196D01*
X023857Y011163D01*
X023834Y011122D01*
X023821Y011076D01*
X023821Y010844D01*
X024249Y010844D01*
X024249Y011232D01*
X024249Y011017D02*
X024344Y011017D01*
X024344Y010858D02*
X024249Y010858D01*
X023821Y010858D02*
X023667Y010858D01*
X023667Y010700D02*
X023821Y010700D01*
X023821Y010541D02*
X023667Y010541D01*
X023717Y010383D02*
X023882Y010383D01*
X023483Y010048D02*
X023447Y010012D01*
X023447Y010972D01*
X023097Y011322D01*
X021497Y011322D01*
X020997Y011822D01*
X021222Y011175D02*
X021332Y011175D01*
X022447Y012432D02*
X022447Y013272D01*
X023447Y012972D02*
X023597Y013122D01*
X023555Y011175D02*
X023870Y011175D01*
X023821Y011017D02*
X023667Y011017D01*
X023483Y010048D02*
X024297Y010048D01*
X024732Y009907D02*
X026235Y009907D01*
X026225Y009749D02*
X024732Y009749D01*
X023861Y009749D02*
X023717Y009749D01*
X023717Y009590D02*
X026225Y009590D01*
X026225Y009432D02*
X022667Y009432D01*
X022667Y009273D02*
X026300Y009273D01*
X026178Y009115D02*
X023850Y009115D01*
X021597Y009122D02*
X020997Y009122D01*
X021097Y008798D02*
X021610Y008798D01*
X019136Y007371D02*
X018759Y007371D01*
X018917Y007213D02*
X028976Y007213D01*
X028817Y007054D02*
X019076Y007054D01*
X019234Y006896D02*
X028659Y006896D01*
X030090Y005945D02*
X008668Y005945D01*
X008419Y005786D02*
X030090Y005786D01*
X030090Y005628D02*
X005677Y005628D01*
X005677Y005786D02*
X007486Y005786D01*
X007237Y005945D02*
X005677Y005945D01*
X005677Y006103D02*
X007078Y006103D01*
X006981Y006262D02*
X005677Y006262D01*
X005677Y006420D02*
X006905Y006420D01*
X006862Y006579D02*
X005677Y006579D01*
X005677Y006737D02*
X006843Y006737D01*
X006843Y006896D02*
X005677Y006896D01*
X005677Y007054D02*
X006872Y007054D01*
X006914Y007213D02*
X005677Y007213D01*
X005677Y007371D02*
X007001Y007371D01*
X007114Y007530D02*
X005677Y007530D01*
X005677Y007688D02*
X007273Y007688D01*
X007576Y007847D02*
X005677Y007847D01*
X005677Y008005D02*
X017502Y008005D01*
X017661Y007847D02*
X008329Y007847D01*
X008631Y007688D02*
X017819Y007688D01*
X017978Y007530D02*
X008791Y007530D01*
X008903Y007371D02*
X018136Y007371D01*
X018295Y007213D02*
X008991Y007213D01*
X009033Y007054D02*
X018453Y007054D01*
X018612Y006896D02*
X009062Y006896D01*
X009062Y006737D02*
X018770Y006737D01*
X018929Y006579D02*
X009043Y006579D01*
X009000Y006420D02*
X019087Y006420D01*
X018978Y007530D02*
X018600Y007530D01*
X018442Y007688D02*
X018819Y007688D01*
X018661Y007847D02*
X018283Y007847D01*
X018125Y008005D02*
X018502Y008005D01*
X018344Y008164D02*
X017966Y008164D01*
X017808Y008322D02*
X018185Y008322D01*
X018027Y008481D02*
X017649Y008481D01*
X017491Y008639D02*
X017868Y008639D01*
X017710Y008798D02*
X017332Y008798D01*
X017174Y008956D02*
X017551Y008956D01*
X017393Y009115D02*
X017015Y009115D01*
X016857Y009273D02*
X017234Y009273D01*
X017076Y009432D02*
X016698Y009432D01*
X016540Y009590D02*
X016917Y009590D01*
X016759Y009749D02*
X016381Y009749D01*
X016223Y009907D02*
X016600Y009907D01*
X016442Y010066D02*
X011464Y010066D01*
X011159Y009749D02*
X005677Y009749D01*
X005677Y009907D02*
X011000Y009907D01*
X010842Y010066D02*
X005677Y010066D01*
X005677Y010224D02*
X010683Y010224D01*
X010525Y010383D02*
X005677Y010383D01*
X005677Y009590D02*
X011317Y009590D01*
X010277Y011809D02*
X005677Y011809D01*
X005677Y011968D02*
X010277Y011968D01*
X010277Y012126D02*
X005677Y012126D01*
X005677Y012285D02*
X007508Y012285D01*
X007264Y012443D02*
X005677Y012443D01*
X007825Y013711D02*
X009562Y013711D01*
X009862Y014022D02*
X009841Y014043D01*
X009197Y014043D01*
X009084Y014156D01*
X007657Y014156D01*
X008043Y013870D02*
X009058Y013870D01*
X009205Y014345D02*
X009573Y014345D01*
X009862Y014022D02*
X009862Y013022D01*
X010497Y012988D02*
X010531Y013022D01*
X010531Y014022D02*
X011197Y014022D01*
X011962Y014022D01*
X012250Y014345D02*
X012343Y014345D01*
X012631Y014022D02*
X012631Y013022D01*
X012932Y013711D02*
X014364Y013711D01*
X014497Y014022D02*
X012631Y014022D01*
X012920Y014345D02*
X014393Y014345D01*
X014600Y014345D02*
X015200Y014345D01*
X015578Y014028D02*
X015615Y014028D01*
X015615Y013870D02*
X015578Y013870D01*
X015947Y013870D02*
X017997Y013870D01*
X017997Y014028D02*
X015993Y014028D01*
X015121Y016089D02*
X014717Y016089D01*
X014717Y016247D02*
X015160Y016247D01*
X015113Y016406D02*
X014717Y016406D01*
X014666Y016564D02*
X015082Y016564D01*
X015082Y016723D02*
X014507Y016723D01*
X014349Y016881D02*
X015099Y016881D01*
X015341Y016881D02*
X015341Y016881D01*
X015341Y016723D02*
X015341Y016723D01*
X013862Y017422D02*
X013812Y017472D01*
X015200Y017991D02*
X008030Y017991D01*
X008113Y018149D02*
X015200Y018149D01*
X015208Y018308D02*
X008132Y018308D01*
X007752Y019193D02*
X007563Y019193D01*
X007388Y019265D01*
X007255Y019398D01*
X007183Y019573D01*
X007183Y019762D01*
X007255Y019936D01*
X007388Y020070D01*
X007563Y020142D01*
X007752Y020142D01*
X007926Y020070D01*
X008060Y019936D01*
X008132Y019762D01*
X008132Y019573D01*
X008060Y019398D01*
X007926Y019265D01*
X007752Y019193D01*
X007912Y019259D02*
X010660Y019259D01*
X010502Y019417D02*
X008067Y019417D01*
X008132Y019576D02*
X010343Y019576D01*
X010185Y019734D02*
X008132Y019734D01*
X008077Y019893D02*
X010026Y019893D01*
X009868Y020051D02*
X007944Y020051D01*
X007370Y020051D02*
X005677Y020051D01*
X005677Y019893D02*
X007237Y019893D01*
X007183Y019734D02*
X005677Y019734D01*
X005677Y019576D02*
X007183Y019576D01*
X007247Y019417D02*
X005677Y019417D01*
X005677Y019259D02*
X007403Y019259D01*
X005677Y019100D02*
X016917Y019100D01*
X017062Y018942D02*
X005677Y018942D01*
X005677Y020210D02*
X009709Y020210D01*
X009551Y020368D02*
X005677Y020368D01*
X005677Y021161D02*
X013465Y021161D01*
X013465Y021204D02*
X013465Y021002D01*
X013478Y020956D01*
X013501Y020915D01*
X013535Y020882D01*
X013576Y020858D01*
X013622Y020846D01*
X013843Y020846D01*
X013843Y021204D01*
X013465Y021204D01*
X013465Y021241D02*
X013843Y021241D01*
X013843Y021204D01*
X013880Y021204D01*
X013880Y020846D01*
X014102Y020846D01*
X014148Y020858D01*
X014189Y020882D01*
X014222Y020915D01*
X014224Y020918D01*
X014231Y020911D01*
X014231Y020534D01*
X014224Y020527D01*
X014224Y020527D01*
X014222Y020530D01*
X014189Y020563D01*
X014148Y020587D01*
X014102Y020599D01*
X013880Y020599D01*
X013880Y020241D01*
X013843Y020241D01*
X013843Y020204D01*
X013465Y020204D01*
X013465Y020002D01*
X013478Y019956D01*
X013501Y019915D01*
X013535Y019882D01*
X013576Y019858D01*
X013622Y019846D01*
X013843Y019846D01*
X013843Y020204D01*
X013880Y020204D01*
X013880Y019846D01*
X014102Y019846D01*
X014148Y019858D01*
X014189Y019882D01*
X014222Y019915D01*
X014224Y019918D01*
X014257Y019886D01*
X014806Y019886D01*
X014833Y019912D01*
X016099Y019912D01*
X016179Y019832D01*
X017175Y019832D01*
X017257Y019914D01*
X017257Y019922D01*
X017372Y019922D01*
X018072Y019223D01*
X018110Y019131D01*
X018205Y019036D01*
X018329Y018984D01*
X018464Y018984D01*
X018588Y019036D01*
X018683Y019131D01*
X018735Y019255D01*
X018735Y019390D01*
X018683Y019514D01*
X018588Y019609D01*
X018496Y019647D01*
X017666Y020477D01*
X017556Y020522D01*
X017245Y020522D01*
X017175Y020592D01*
X016179Y020592D01*
X016099Y020512D01*
X014853Y020512D01*
X014831Y020534D01*
X014831Y020911D01*
X014888Y020968D01*
X014888Y021477D01*
X014831Y021534D01*
X014831Y021888D01*
X014859Y021888D01*
X014896Y021925D01*
X015032Y021925D01*
X015129Y021884D01*
X015264Y021884D01*
X015388Y021936D01*
X015483Y022031D01*
X015535Y022155D01*
X015535Y022290D01*
X015483Y022414D01*
X015388Y022509D01*
X015264Y022561D01*
X015129Y022561D01*
X015043Y022525D01*
X014896Y022525D01*
X014859Y022562D01*
X014113Y022562D01*
X014031Y022480D01*
X014031Y021970D01*
X014113Y021888D01*
X014231Y021888D01*
X014231Y021534D01*
X014224Y021527D01*
X014222Y021530D01*
X014189Y021563D01*
X014148Y021587D01*
X014102Y021599D01*
X013880Y021599D01*
X013880Y021241D01*
X013843Y021241D01*
X013843Y021599D01*
X013622Y021599D01*
X013576Y021587D01*
X013535Y021563D01*
X013501Y021530D01*
X013478Y021489D01*
X013465Y021443D01*
X013465Y021241D01*
X013465Y021319D02*
X005677Y021319D01*
X005677Y021478D02*
X007352Y021478D01*
X007388Y021442D02*
X007563Y021370D01*
X007752Y021370D01*
X007926Y021442D01*
X008060Y021576D01*
X008132Y021750D01*
X008132Y021939D01*
X008060Y022113D01*
X007926Y022247D01*
X007752Y022319D01*
X007563Y022319D01*
X007388Y022247D01*
X007255Y022113D01*
X007183Y021939D01*
X007183Y021750D01*
X007255Y021576D01*
X007388Y021442D01*
X007230Y021636D02*
X005677Y021636D01*
X005677Y021795D02*
X007183Y021795D01*
X007189Y021953D02*
X005677Y021953D01*
X005677Y022112D02*
X007254Y022112D01*
X007445Y022270D02*
X005677Y022270D01*
X005677Y022429D02*
X010212Y022429D01*
X010212Y022587D02*
X005677Y022587D01*
X005677Y022746D02*
X010212Y022746D01*
X010212Y022904D02*
X008010Y022904D01*
X008060Y022954D02*
X008132Y023128D01*
X008132Y023317D01*
X008060Y023491D01*
X007926Y023625D01*
X007752Y023697D01*
X010212Y023697D01*
X010212Y023855D02*
X005677Y023855D01*
X005677Y023697D02*
X007562Y023697D01*
X007563Y023697D02*
X007388Y023625D01*
X007255Y023491D01*
X007183Y023317D01*
X007183Y023128D01*
X007255Y022954D01*
X007388Y022820D01*
X007563Y022748D01*
X007752Y022748D01*
X007926Y022820D01*
X008060Y022954D01*
X008105Y023063D02*
X011532Y023063D01*
X011532Y023042D02*
X010212Y023042D01*
X010212Y022036D01*
X010224Y021990D01*
X010248Y021949D01*
X010281Y021915D01*
X010322Y021892D01*
X010368Y021879D01*
X011532Y021879D01*
X011532Y023042D01*
X011692Y023042D01*
X011692Y021879D01*
X012856Y021879D01*
X012902Y021892D01*
X012943Y021915D01*
X012977Y021949D01*
X013000Y021990D01*
X013013Y022036D01*
X013013Y023042D01*
X011692Y023042D01*
X011692Y023202D01*
X013013Y023202D01*
X013013Y024209D01*
X013000Y024255D01*
X012977Y024296D01*
X012943Y024329D01*
X012902Y024353D01*
X012856Y024365D01*
X011692Y024365D01*
X011692Y023202D01*
X011532Y023202D01*
X011532Y023042D01*
X011532Y022904D02*
X011692Y022904D01*
X011692Y022746D02*
X011532Y022746D01*
X011532Y022587D02*
X011692Y022587D01*
X011692Y022429D02*
X011532Y022429D01*
X011532Y022270D02*
X011692Y022270D01*
X011692Y022112D02*
X011532Y022112D01*
X011532Y021953D02*
X011692Y021953D01*
X012979Y021953D02*
X014048Y021953D01*
X014031Y022112D02*
X013013Y022112D01*
X013013Y022270D02*
X014031Y022270D01*
X014031Y022429D02*
X013013Y022429D01*
X013013Y022587D02*
X016397Y022587D01*
X016397Y022429D02*
X015468Y022429D01*
X015535Y022270D02*
X016097Y022270D01*
X016097Y022330D02*
X016097Y021734D01*
X016179Y021652D01*
X017175Y021652D01*
X017257Y021734D01*
X017257Y022330D01*
X017175Y022412D01*
X016997Y022412D01*
X016997Y022963D01*
X017035Y023055D01*
X017035Y023190D01*
X016983Y023314D01*
X016888Y023409D01*
X016764Y023461D01*
X016629Y023461D01*
X016537Y023422D01*
X016343Y023422D01*
X016306Y023459D01*
X015757Y023459D01*
X015724Y023427D01*
X015722Y023430D01*
X015689Y023463D01*
X015648Y023487D01*
X015602Y023499D01*
X015380Y023499D01*
X015380Y023141D01*
X015343Y023141D01*
X015343Y023104D01*
X014965Y023104D01*
X014965Y022902D01*
X014978Y022856D01*
X015001Y022815D01*
X015035Y022782D01*
X015076Y022758D01*
X015122Y022746D01*
X015343Y022746D01*
X015380Y022746D01*
X015602Y022746D01*
X015648Y022758D01*
X015689Y022782D01*
X015722Y022815D01*
X015724Y022818D01*
X015757Y022786D01*
X016306Y022786D01*
X016343Y022822D01*
X016397Y022822D01*
X016397Y022412D01*
X016179Y022412D01*
X016097Y022330D01*
X016097Y022112D02*
X015517Y022112D01*
X015406Y021953D02*
X016097Y021953D01*
X016097Y021795D02*
X014831Y021795D01*
X014831Y021636D02*
X018504Y021636D01*
X018504Y021478D02*
X017256Y021478D01*
X017261Y021473D02*
X017227Y021506D01*
X017186Y021530D01*
X017140Y021542D01*
X016717Y021542D01*
X016717Y021162D01*
X017297Y021162D01*
X017297Y021386D01*
X017284Y021432D01*
X017261Y021473D01*
X017297Y021319D02*
X018504Y021319D01*
X018504Y021202D02*
X018504Y021855D01*
X018516Y021901D01*
X018539Y021942D01*
X018573Y021975D01*
X018614Y021999D01*
X018660Y022011D01*
X019037Y022011D01*
X019037Y021202D01*
X019037Y021042D01*
X019197Y021042D01*
X019197Y021202D01*
X019730Y021202D01*
X019730Y021855D01*
X019717Y021901D01*
X019694Y021942D01*
X019660Y021975D01*
X019619Y021999D01*
X019573Y022011D01*
X019197Y022011D01*
X019197Y021202D01*
X019037Y021202D01*
X018504Y021202D01*
X018504Y021042D02*
X018504Y020390D01*
X018516Y020344D01*
X018539Y020303D01*
X018573Y020270D01*
X018614Y020246D01*
X018660Y020234D01*
X019037Y020234D01*
X019037Y021042D01*
X018504Y021042D01*
X018504Y021002D02*
X017297Y021002D01*
X017297Y021082D02*
X016717Y021082D01*
X016717Y021162D01*
X016637Y021162D01*
X016637Y021082D01*
X016717Y021082D01*
X016717Y020702D01*
X017140Y020702D01*
X017186Y020715D01*
X017227Y020738D01*
X017261Y020772D01*
X017284Y020813D01*
X017297Y020859D01*
X017297Y021082D01*
X017293Y020844D02*
X018504Y020844D01*
X018504Y020685D02*
X014831Y020685D01*
X014838Y020527D02*
X016113Y020527D01*
X016167Y020715D02*
X016213Y020702D01*
X016637Y020702D01*
X016637Y021082D01*
X016057Y021082D01*
X016057Y020859D01*
X016069Y020813D01*
X016092Y020772D01*
X016126Y020738D01*
X016167Y020715D01*
X016060Y020844D02*
X014831Y020844D01*
X014888Y021002D02*
X016057Y021002D01*
X016057Y021162D02*
X016057Y021386D01*
X016069Y021432D01*
X016092Y021473D01*
X016126Y021506D01*
X016167Y021530D01*
X016213Y021542D01*
X016637Y021542D01*
X016637Y021162D01*
X016057Y021162D01*
X016057Y021319D02*
X014888Y021319D01*
X014888Y021161D02*
X016637Y021161D01*
X016717Y021161D02*
X019037Y021161D01*
X019037Y021319D02*
X019197Y021319D01*
X019197Y021161D02*
X026377Y021161D01*
X026377Y021319D02*
X019730Y021319D01*
X019730Y021478D02*
X026441Y021478D01*
X026599Y021636D02*
X019730Y021636D01*
X019730Y021795D02*
X026758Y021795D01*
X026916Y021953D02*
X019682Y021953D01*
X019197Y021953D02*
X019037Y021953D01*
X019037Y021795D02*
X019197Y021795D01*
X019197Y021636D02*
X019037Y021636D01*
X019037Y021478D02*
X019197Y021478D01*
X019197Y021042D02*
X019730Y021042D01*
X019730Y020390D01*
X019717Y020344D01*
X019694Y020303D01*
X019660Y020270D01*
X019619Y020246D01*
X019573Y020234D01*
X019197Y020234D01*
X019197Y021042D01*
X019197Y021002D02*
X019037Y021002D01*
X019037Y020844D02*
X019197Y020844D01*
X019197Y020685D02*
X019037Y020685D01*
X019037Y020527D02*
X019197Y020527D01*
X019197Y020368D02*
X019037Y020368D01*
X018509Y020368D02*
X017775Y020368D01*
X017933Y020210D02*
X026377Y020210D01*
X026377Y020368D02*
X019724Y020368D01*
X019730Y020527D02*
X026377Y020527D01*
X026377Y020685D02*
X019730Y020685D01*
X019730Y020844D02*
X026377Y020844D01*
X026377Y021002D02*
X019730Y021002D01*
X018504Y020527D02*
X017240Y020527D01*
X016717Y020844D02*
X016637Y020844D01*
X016637Y021002D02*
X016717Y021002D01*
X016717Y021319D02*
X016637Y021319D01*
X016637Y021478D02*
X016717Y021478D01*
X016097Y021478D02*
X014887Y021478D01*
X014231Y021636D02*
X008085Y021636D01*
X008132Y021795D02*
X014231Y021795D01*
X013880Y021478D02*
X013843Y021478D01*
X013843Y021319D02*
X013880Y021319D01*
X013880Y021161D02*
X013843Y021161D01*
X013843Y021002D02*
X013880Y021002D01*
X014231Y020844D02*
X009775Y020844D01*
X009617Y021002D02*
X013465Y021002D01*
X013576Y020587D02*
X013535Y020563D01*
X013501Y020530D01*
X013478Y020489D01*
X013465Y020443D01*
X013465Y020241D01*
X013843Y020241D01*
X013843Y020599D01*
X013622Y020599D01*
X013576Y020587D01*
X013500Y020527D02*
X010092Y020527D01*
X009934Y020685D02*
X014231Y020685D01*
X013880Y020527D02*
X013843Y020527D01*
X013843Y020368D02*
X013880Y020368D01*
X013843Y020210D02*
X010409Y020210D01*
X010251Y020368D02*
X013465Y020368D01*
X013465Y020051D02*
X010568Y020051D01*
X010726Y019893D02*
X013523Y019893D01*
X013843Y019893D02*
X013880Y019893D01*
X013880Y020051D02*
X013843Y020051D01*
X014200Y019893D02*
X014249Y019893D01*
X014813Y019893D02*
X016118Y019893D01*
X017140Y019576D02*
X017719Y019576D01*
X017877Y019417D02*
X017289Y019417D01*
X017437Y019259D02*
X018036Y019259D01*
X018140Y019100D02*
X017586Y019100D01*
X017734Y018942D02*
X026377Y018942D01*
X026377Y019100D02*
X018653Y019100D01*
X018735Y019259D02*
X026377Y019259D01*
X026377Y019417D02*
X018723Y019417D01*
X018621Y019576D02*
X026377Y019576D01*
X026377Y019734D02*
X018409Y019734D01*
X018250Y019893D02*
X026377Y019893D01*
X026377Y020051D02*
X018092Y020051D01*
X017560Y019734D02*
X010885Y019734D01*
X013475Y021478D02*
X007962Y021478D01*
X008126Y021953D02*
X010245Y021953D01*
X010212Y022112D02*
X008060Y022112D01*
X007869Y022270D02*
X010212Y022270D01*
X010212Y023202D02*
X011532Y023202D01*
X011532Y024365D01*
X010368Y024365D01*
X010322Y024353D01*
X010281Y024329D01*
X010248Y024296D01*
X010224Y024255D01*
X010212Y024209D01*
X010212Y023202D01*
X010212Y023221D02*
X008132Y023221D01*
X008106Y023380D02*
X010212Y023380D01*
X010212Y023538D02*
X008012Y023538D01*
X007752Y023697D02*
X007563Y023697D01*
X007302Y023538D02*
X005677Y023538D01*
X005677Y023380D02*
X007209Y023380D01*
X007183Y023221D02*
X005677Y023221D01*
X005677Y023063D02*
X007209Y023063D01*
X007304Y022904D02*
X005677Y022904D01*
X005677Y024014D02*
X010212Y024014D01*
X010212Y024172D02*
X007864Y024172D01*
X007926Y024198D02*
X008060Y024332D01*
X008132Y024506D01*
X008132Y024695D01*
X008060Y024869D01*
X007926Y025003D01*
X007752Y025075D01*
X007563Y025075D01*
X007388Y025003D01*
X007255Y024869D01*
X007183Y024695D01*
X007183Y024506D01*
X007255Y024332D01*
X007388Y024198D01*
X007563Y024126D01*
X007752Y024126D01*
X007926Y024198D01*
X008059Y024331D02*
X010284Y024331D01*
X011532Y024331D02*
X011692Y024331D01*
X011692Y024172D02*
X011532Y024172D01*
X011532Y024014D02*
X011692Y024014D01*
X011692Y023855D02*
X011532Y023855D01*
X011532Y023697D02*
X011692Y023697D01*
X011692Y023538D02*
X011532Y023538D01*
X011532Y023380D02*
X011692Y023380D01*
X011692Y023221D02*
X011532Y023221D01*
X011692Y023063D02*
X014965Y023063D01*
X014965Y023141D02*
X015343Y023141D01*
X015343Y023499D01*
X015122Y023499D01*
X015076Y023487D01*
X015035Y023463D01*
X015001Y023430D01*
X014978Y023389D01*
X014965Y023343D01*
X014965Y023141D01*
X014965Y023221D02*
X013013Y023221D01*
X013013Y023380D02*
X014975Y023380D01*
X014859Y023683D02*
X014898Y023722D01*
X015037Y023722D01*
X015129Y023684D01*
X015264Y023684D01*
X015356Y023722D01*
X015851Y023722D01*
X015887Y023686D01*
X016436Y023686D01*
X016469Y023718D01*
X016471Y023715D01*
X016504Y023682D01*
X016545Y023658D01*
X016591Y023646D01*
X016813Y023646D01*
X016813Y024004D01*
X016850Y024004D01*
X016850Y024041D01*
X017228Y024041D01*
X017228Y024243D01*
X017215Y024289D01*
X017192Y024330D01*
X017158Y024363D01*
X017117Y024387D01*
X017071Y024399D01*
X016850Y024399D01*
X016850Y024041D01*
X016813Y024041D01*
X016813Y024399D01*
X016591Y024399D01*
X016545Y024387D01*
X016504Y024363D01*
X016471Y024330D01*
X016469Y024327D01*
X016436Y024359D01*
X015887Y024359D01*
X015851Y024322D01*
X015356Y024322D01*
X015264Y024361D01*
X015129Y024361D01*
X015037Y024322D01*
X014894Y024322D01*
X014859Y024357D01*
X014113Y024357D01*
X014031Y024275D01*
X014031Y023765D01*
X014113Y023683D01*
X014859Y023683D01*
X014873Y023697D02*
X015099Y023697D01*
X015294Y023697D02*
X015876Y023697D01*
X016448Y023697D02*
X016489Y023697D01*
X016813Y023697D02*
X016850Y023697D01*
X016850Y023646D02*
X017071Y023646D01*
X017117Y023658D01*
X017158Y023682D01*
X017192Y023715D01*
X017215Y023756D01*
X017228Y023802D01*
X017228Y024004D01*
X016850Y024004D01*
X016850Y023646D01*
X016850Y023855D02*
X016813Y023855D01*
X016850Y024014D02*
X030090Y024014D01*
X030090Y024172D02*
X017228Y024172D01*
X017191Y024331D02*
X030090Y024331D01*
X030090Y024489D02*
X008125Y024489D01*
X008132Y024648D02*
X030090Y024648D01*
X030090Y024806D02*
X008086Y024806D01*
X007964Y024965D02*
X030090Y024965D01*
X030090Y025123D02*
X005677Y025123D01*
X005677Y024965D02*
X007350Y024965D01*
X007229Y024806D02*
X005677Y024806D01*
X005677Y024648D02*
X007183Y024648D01*
X007189Y024489D02*
X005677Y024489D01*
X005677Y024331D02*
X007255Y024331D01*
X007450Y024172D02*
X005677Y024172D01*
X005677Y025282D02*
X030090Y025282D01*
X030090Y025440D02*
X005677Y025440D01*
X005677Y025599D02*
X030090Y025599D01*
X030090Y025757D02*
X005677Y025757D01*
X005677Y025916D02*
X030090Y025916D01*
X030090Y026074D02*
X005677Y026074D01*
X005677Y026233D02*
X030090Y026233D01*
X030090Y026391D02*
X005677Y026391D01*
X005677Y026550D02*
X030090Y026550D01*
X030090Y026708D02*
X005677Y026708D01*
X005677Y026867D02*
X030090Y026867D01*
X030090Y027025D02*
X005677Y027025D01*
X005677Y027184D02*
X030090Y027184D01*
X030090Y027342D02*
X005677Y027342D01*
X005677Y027501D02*
X030090Y027501D01*
X030090Y027659D02*
X005677Y027659D01*
X005677Y027818D02*
X007513Y027818D01*
X007524Y027812D02*
X007806Y027736D01*
X008099Y027736D01*
X008381Y027812D01*
X008634Y027958D01*
X008841Y028165D01*
X008987Y028418D01*
X009062Y028700D01*
X009062Y028992D01*
X008987Y029274D01*
X008841Y029528D01*
X008634Y029734D01*
X008381Y029880D01*
X008099Y029956D01*
X007806Y029956D01*
X007524Y029880D01*
X007271Y029734D01*
X007064Y029528D01*
X006918Y029274D01*
X006843Y028992D01*
X006843Y028700D01*
X006918Y028418D01*
X007064Y028165D01*
X007271Y027958D01*
X007524Y027812D01*
X007252Y027976D02*
X005677Y027976D01*
X005677Y028135D02*
X007094Y028135D01*
X006990Y028293D02*
X005677Y028293D01*
X005677Y028452D02*
X006909Y028452D01*
X006866Y028610D02*
X005677Y028610D01*
X005677Y028769D02*
X006843Y028769D01*
X006843Y028927D02*
X005677Y028927D01*
X005677Y029086D02*
X006868Y029086D01*
X006910Y029244D02*
X005677Y029244D01*
X005677Y029403D02*
X006992Y029403D01*
X007098Y029561D02*
X005677Y029561D01*
X005677Y029720D02*
X007257Y029720D01*
X007521Y029878D02*
X005677Y029878D01*
X005677Y030037D02*
X030090Y030037D01*
X030090Y030195D02*
X005677Y030195D01*
X005677Y030354D02*
X030090Y030354D01*
X030090Y030512D02*
X005677Y030512D01*
X005677Y030671D02*
X030090Y030671D01*
X030090Y030829D02*
X005677Y030829D01*
X005677Y030988D02*
X030090Y030988D01*
X029212Y030988D02*
X051961Y030988D01*
X051961Y031122D02*
X051961Y004523D01*
X029212Y004523D01*
X029212Y005618D01*
X046338Y005618D01*
X048504Y007783D01*
X048504Y027862D01*
X046338Y030027D01*
X029212Y030027D01*
X029212Y031122D01*
X051961Y031122D01*
X051961Y030829D02*
X029212Y030829D01*
X029212Y030671D02*
X051961Y030671D01*
X051961Y030512D02*
X029212Y030512D01*
X029212Y030354D02*
X051961Y030354D01*
X051961Y030195D02*
X029212Y030195D01*
X029212Y030037D02*
X051961Y030037D01*
X051961Y029878D02*
X050116Y029878D01*
X050113Y029880D02*
X049831Y029956D01*
X049539Y029956D01*
X049256Y029880D01*
X049003Y029734D01*
X048797Y029528D01*
X048650Y029274D01*
X048575Y028992D01*
X048575Y028700D01*
X048650Y028418D01*
X048797Y028165D01*
X049003Y027958D01*
X049256Y027812D01*
X049539Y027736D01*
X049831Y027736D01*
X050113Y027812D01*
X050366Y027958D01*
X050573Y028165D01*
X050719Y028418D01*
X050795Y028700D01*
X050795Y028992D01*
X050719Y029274D01*
X050573Y029528D01*
X050366Y029734D01*
X050113Y029880D01*
X050380Y029720D02*
X051961Y029720D01*
X051961Y029561D02*
X050539Y029561D01*
X050645Y029403D02*
X051961Y029403D01*
X051961Y029244D02*
X050727Y029244D01*
X050770Y029086D02*
X051961Y029086D01*
X051961Y028927D02*
X050795Y028927D01*
X050795Y028769D02*
X051961Y028769D01*
X051961Y028610D02*
X050771Y028610D01*
X050728Y028452D02*
X051961Y028452D01*
X051961Y028293D02*
X050647Y028293D01*
X050543Y028135D02*
X051961Y028135D01*
X051961Y027976D02*
X050385Y027976D01*
X050124Y027818D02*
X051961Y027818D01*
X051961Y027659D02*
X048504Y027659D01*
X048504Y027501D02*
X051961Y027501D01*
X051961Y027342D02*
X048504Y027342D01*
X048504Y027184D02*
X051961Y027184D01*
X051961Y027025D02*
X048504Y027025D01*
X048504Y026867D02*
X051961Y026867D01*
X051961Y026708D02*
X048504Y026708D01*
X048504Y026550D02*
X051961Y026550D01*
X051961Y026391D02*
X048504Y026391D01*
X048504Y026233D02*
X051961Y026233D01*
X051961Y026074D02*
X048504Y026074D01*
X048504Y025916D02*
X051961Y025916D01*
X051961Y025757D02*
X048504Y025757D01*
X048504Y025599D02*
X051961Y025599D01*
X051961Y025440D02*
X048504Y025440D01*
X048504Y025282D02*
X051961Y025282D01*
X051961Y025123D02*
X048504Y025123D01*
X048504Y024965D02*
X051961Y024965D01*
X051961Y024806D02*
X048504Y024806D01*
X048504Y024648D02*
X051961Y024648D01*
X051961Y024489D02*
X048504Y024489D01*
X048504Y024331D02*
X051961Y024331D01*
X051961Y024172D02*
X048504Y024172D01*
X048504Y024014D02*
X051961Y024014D01*
X051961Y023855D02*
X048504Y023855D01*
X048504Y023697D02*
X051961Y023697D01*
X051961Y023538D02*
X048504Y023538D01*
X048504Y023380D02*
X051961Y023380D01*
X051961Y023221D02*
X048504Y023221D01*
X048504Y023063D02*
X051961Y023063D01*
X051961Y022904D02*
X048504Y022904D01*
X048504Y022746D02*
X051961Y022746D01*
X051961Y022587D02*
X048504Y022587D01*
X048504Y022429D02*
X051961Y022429D01*
X051961Y022270D02*
X048504Y022270D01*
X048504Y022112D02*
X051961Y022112D01*
X051961Y021953D02*
X048504Y021953D01*
X048504Y021795D02*
X051961Y021795D01*
X051961Y021636D02*
X048504Y021636D01*
X048504Y021478D02*
X051961Y021478D01*
X051961Y021319D02*
X048504Y021319D01*
X048504Y021161D02*
X051961Y021161D01*
X051961Y021002D02*
X048504Y021002D01*
X048504Y020844D02*
X051961Y020844D01*
X051961Y020685D02*
X048504Y020685D01*
X048504Y020527D02*
X051961Y020527D01*
X051961Y020368D02*
X050745Y020368D01*
X050715Y020398D02*
X050452Y020507D01*
X050167Y020507D01*
X049903Y020398D01*
X049817Y020312D01*
X049731Y020398D01*
X049467Y020507D01*
X049182Y020507D01*
X048919Y020398D01*
X048718Y020197D01*
X048609Y019933D01*
X048609Y019648D01*
X048718Y019385D01*
X048919Y019184D01*
X049182Y019075D01*
X049467Y019075D01*
X049731Y019184D01*
X049817Y019270D01*
X049903Y019184D01*
X050167Y019075D01*
X050452Y019075D01*
X050715Y019184D01*
X050916Y019385D01*
X051025Y019648D01*
X051025Y019933D01*
X050916Y020197D01*
X050715Y020398D01*
X050903Y020210D02*
X051961Y020210D01*
X051961Y020051D02*
X050976Y020051D01*
X051025Y019893D02*
X051961Y019893D01*
X051961Y019734D02*
X051025Y019734D01*
X050995Y019576D02*
X051961Y019576D01*
X051961Y019417D02*
X050930Y019417D01*
X050790Y019259D02*
X051961Y019259D01*
X051961Y019100D02*
X050514Y019100D01*
X050105Y019100D02*
X049529Y019100D01*
X049806Y019259D02*
X049828Y019259D01*
X049120Y019100D02*
X048504Y019100D01*
X048504Y018942D02*
X051961Y018942D01*
X051961Y018783D02*
X048504Y018783D01*
X048504Y018625D02*
X051961Y018625D01*
X049874Y020368D02*
X049760Y020368D01*
X048889Y020368D02*
X048504Y020368D01*
X048504Y020210D02*
X048731Y020210D01*
X048658Y020051D02*
X048504Y020051D01*
X048504Y019893D02*
X048609Y019893D01*
X048609Y019734D02*
X048504Y019734D01*
X048504Y019576D02*
X048639Y019576D01*
X048704Y019417D02*
X048504Y019417D01*
X048504Y019259D02*
X048844Y019259D01*
X048110Y019259D02*
X047732Y019259D01*
X047774Y019100D02*
X048110Y019100D01*
X048110Y018942D02*
X047914Y018942D01*
X047979Y018783D02*
X048110Y018783D01*
X048110Y018625D02*
X047998Y018625D01*
X047891Y019417D02*
X048110Y019417D01*
X048110Y019576D02*
X047962Y019576D01*
X047998Y019734D02*
X048110Y019734D01*
X048110Y019893D02*
X047998Y019893D01*
X047943Y020051D02*
X048110Y020051D01*
X048110Y020210D02*
X047845Y020210D01*
X047640Y020368D02*
X048110Y020368D01*
X048110Y020527D02*
X033417Y020527D01*
X033417Y020685D02*
X048110Y020685D01*
X048110Y020844D02*
X033417Y020844D01*
X033417Y021002D02*
X048110Y021002D01*
X047073Y020368D02*
X033417Y020368D01*
X033417Y020210D02*
X045346Y020210D01*
X045182Y020051D02*
X033417Y020051D01*
X033417Y019893D02*
X045024Y019893D01*
X044865Y019734D02*
X033417Y019734D01*
X033417Y019576D02*
X044707Y019576D01*
X044626Y019417D02*
X033417Y019417D01*
X033417Y019259D02*
X044607Y019259D01*
X044457Y019100D02*
X033417Y019100D01*
X033417Y018942D02*
X044457Y018942D01*
X044457Y018783D02*
X033417Y018783D01*
X033417Y018625D02*
X044457Y018625D01*
X045097Y018843D02*
X045097Y019073D01*
X045097Y016843D02*
X045097Y016633D01*
X043973Y015613D02*
X033417Y015613D01*
X033417Y015455D02*
X044132Y015455D01*
X044290Y015296D02*
X033417Y015296D01*
X033417Y015138D02*
X044449Y015138D01*
X044607Y014979D02*
X033417Y014979D01*
X033417Y014821D02*
X044766Y014821D01*
X044924Y014662D02*
X033417Y014662D01*
X033417Y014504D02*
X038000Y014504D01*
X038726Y014504D02*
X045083Y014504D01*
X045241Y014345D02*
X038779Y014345D01*
X039230Y013822D02*
X034397Y013822D01*
X033997Y013422D01*
X033997Y010922D01*
X034252Y010700D02*
X048110Y010700D01*
X048110Y010858D02*
X034335Y010858D01*
X034323Y011017D02*
X048110Y011017D01*
X048110Y011175D02*
X034222Y011175D01*
X034584Y011334D02*
X048110Y011334D01*
X048110Y011492D02*
X034709Y011492D01*
X034397Y011622D02*
X034397Y013122D01*
X034697Y013422D01*
X038337Y013422D01*
X038363Y013448D01*
X038779Y013553D02*
X038829Y013553D01*
X034008Y014345D02*
X033417Y014345D01*
X033417Y014187D02*
X033850Y014187D01*
X033691Y014028D02*
X033417Y014028D01*
X033417Y013870D02*
X033533Y013870D01*
X031977Y014504D02*
X031400Y014504D01*
X031506Y014662D02*
X031977Y014662D01*
X031977Y014821D02*
X031537Y014821D01*
X031508Y014979D02*
X031977Y014979D01*
X031977Y015138D02*
X031403Y015138D01*
X031977Y015296D02*
X030393Y015296D01*
X030393Y015455D02*
X031977Y015455D01*
X031977Y015613D02*
X030393Y015613D01*
X030393Y015772D02*
X031977Y015772D01*
X031977Y015930D02*
X030393Y015930D01*
X030393Y016089D02*
X031977Y016089D01*
X031977Y016247D02*
X030393Y016247D01*
X030393Y016406D02*
X031977Y016406D01*
X031977Y016564D02*
X030393Y016564D01*
X030393Y016723D02*
X031977Y016723D01*
X031977Y016881D02*
X030393Y016881D01*
X030090Y016881D02*
X026817Y016881D01*
X026817Y016723D02*
X030090Y016723D01*
X030090Y016564D02*
X026817Y016564D01*
X026817Y016406D02*
X030090Y016406D01*
X030090Y016247D02*
X026817Y016247D01*
X026817Y016089D02*
X030090Y016089D01*
X030090Y015930D02*
X026817Y015930D01*
X026817Y015772D02*
X030090Y015772D01*
X030090Y015613D02*
X026817Y015613D01*
X026817Y015455D02*
X030090Y015455D01*
X030090Y015296D02*
X026817Y015296D01*
X026817Y015138D02*
X027075Y015138D01*
X026896Y014979D02*
X026817Y014979D01*
X026817Y014821D02*
X026858Y014821D01*
X026897Y014662D02*
X026817Y014662D01*
X026817Y014504D02*
X027082Y014504D01*
X027311Y014504D02*
X030090Y014504D01*
X030797Y014822D02*
X027197Y014822D01*
X027318Y015138D02*
X030090Y015138D01*
X030090Y017040D02*
X026817Y017040D01*
X026817Y017198D02*
X030090Y017198D01*
X030090Y018312D02*
X027799Y018312D01*
X027199Y018312D01*
X027019Y018238D01*
X026881Y018100D01*
X026817Y017944D01*
X026817Y021231D01*
X028188Y022602D01*
X030090Y022602D01*
X030090Y021991D01*
X030057Y021910D01*
X030057Y021735D01*
X030090Y021654D01*
X030090Y020991D01*
X030057Y020910D01*
X030057Y020735D01*
X030090Y020654D01*
X030090Y018312D01*
X030090Y018466D02*
X026817Y018466D01*
X026817Y018308D02*
X027188Y018308D01*
X026931Y018149D02*
X026817Y018149D01*
X026817Y017991D02*
X026836Y017991D01*
X026817Y017674D02*
X026828Y017674D01*
X026817Y017515D02*
X026911Y017515D01*
X026817Y017357D02*
X027140Y017357D01*
X026377Y017357D02*
X024145Y017357D01*
X024303Y017198D02*
X026377Y017198D01*
X026377Y017040D02*
X024397Y017040D01*
X024397Y016881D02*
X026377Y016881D01*
X026377Y016723D02*
X024397Y016723D01*
X024397Y016564D02*
X026377Y016564D01*
X026377Y016406D02*
X024397Y016406D01*
X024397Y016247D02*
X026377Y016247D01*
X026377Y016089D02*
X024397Y016089D01*
X024397Y015930D02*
X026377Y015930D01*
X026377Y015772D02*
X024397Y015772D01*
X024397Y015613D02*
X026377Y015613D01*
X026377Y015455D02*
X024397Y015455D01*
X023986Y017515D02*
X026377Y017515D01*
X026377Y017674D02*
X018597Y017674D01*
X018597Y017832D02*
X026377Y017832D01*
X026377Y017991D02*
X018597Y017991D01*
X018477Y018149D02*
X026377Y018149D01*
X026377Y018308D02*
X018329Y018308D01*
X018180Y018466D02*
X026377Y018466D01*
X026377Y018625D02*
X018032Y018625D01*
X017883Y018783D02*
X026377Y018783D01*
X026817Y018783D02*
X030090Y018783D01*
X030090Y018625D02*
X026817Y018625D01*
X026817Y018942D02*
X030090Y018942D01*
X030090Y019100D02*
X026817Y019100D01*
X026817Y019259D02*
X030090Y019259D01*
X030090Y019417D02*
X026817Y019417D01*
X026817Y019576D02*
X030090Y019576D01*
X030090Y019734D02*
X026817Y019734D01*
X026817Y019893D02*
X030090Y019893D01*
X030090Y020051D02*
X026817Y020051D01*
X026817Y020210D02*
X030090Y020210D01*
X030090Y020368D02*
X026817Y020368D01*
X026817Y020527D02*
X030090Y020527D01*
X030077Y020685D02*
X026817Y020685D01*
X026817Y020844D02*
X030057Y020844D01*
X030090Y021002D02*
X026817Y021002D01*
X026817Y021161D02*
X030090Y021161D01*
X030090Y021319D02*
X026905Y021319D01*
X027063Y021478D02*
X030090Y021478D01*
X030090Y021636D02*
X027222Y021636D01*
X027380Y021795D02*
X030057Y021795D01*
X030075Y021953D02*
X027539Y021953D01*
X027697Y022112D02*
X030090Y022112D01*
X030090Y022270D02*
X027856Y022270D01*
X028014Y022429D02*
X030090Y022429D01*
X030090Y022587D02*
X028173Y022587D01*
X027867Y022904D02*
X016997Y022904D01*
X016997Y022746D02*
X027709Y022746D01*
X027550Y022587D02*
X016997Y022587D01*
X016997Y022429D02*
X027392Y022429D01*
X027233Y022270D02*
X017257Y022270D01*
X017257Y022112D02*
X027075Y022112D01*
X030090Y023063D02*
X017035Y023063D01*
X017021Y023221D02*
X030090Y023221D01*
X030090Y023380D02*
X016917Y023380D01*
X017174Y023697D02*
X030090Y023697D01*
X030090Y023855D02*
X017228Y023855D01*
X016850Y024172D02*
X016813Y024172D01*
X016813Y024331D02*
X016850Y024331D01*
X016472Y024331D02*
X016465Y024331D01*
X015859Y024331D02*
X015335Y024331D01*
X015058Y024331D02*
X014885Y024331D01*
X014087Y024331D02*
X012941Y024331D01*
X013013Y024172D02*
X014031Y024172D01*
X014031Y024014D02*
X013013Y024014D01*
X013013Y023855D02*
X014031Y023855D01*
X014100Y023697D02*
X013013Y023697D01*
X013013Y023538D02*
X030090Y023538D01*
X030393Y023538D02*
X048110Y023538D01*
X048110Y023380D02*
X030393Y023380D01*
X030393Y023697D02*
X048110Y023697D01*
X048110Y023855D02*
X030393Y023855D01*
X030393Y024014D02*
X048110Y024014D01*
X048110Y024172D02*
X030393Y024172D01*
X030393Y024331D02*
X048110Y024331D01*
X048110Y024489D02*
X030393Y024489D01*
X030393Y024648D02*
X048110Y024648D01*
X048110Y024806D02*
X030393Y024806D01*
X030393Y024965D02*
X048110Y024965D01*
X048110Y025123D02*
X030393Y025123D01*
X030393Y025282D02*
X048110Y025282D01*
X048110Y025440D02*
X030393Y025440D01*
X030393Y025599D02*
X048110Y025599D01*
X048110Y025757D02*
X030393Y025757D01*
X030393Y025916D02*
X048110Y025916D01*
X048110Y026074D02*
X030393Y026074D01*
X030393Y026233D02*
X048110Y026233D01*
X048110Y026391D02*
X030393Y026391D01*
X030393Y026550D02*
X048110Y026550D01*
X048110Y026708D02*
X030393Y026708D01*
X030393Y026867D02*
X048110Y026867D01*
X048110Y027025D02*
X030393Y027025D01*
X030393Y027184D02*
X048110Y027184D01*
X048110Y027342D02*
X030393Y027342D01*
X030393Y027501D02*
X048110Y027501D01*
X048110Y027659D02*
X030393Y027659D01*
X030393Y027818D02*
X047957Y027818D01*
X047798Y027976D02*
X030393Y027976D01*
X030393Y028135D02*
X047640Y028135D01*
X047481Y028293D02*
X030393Y028293D01*
X030393Y028452D02*
X047323Y028452D01*
X047164Y028610D02*
X030393Y028610D01*
X030393Y028769D02*
X047006Y028769D01*
X046847Y028927D02*
X030393Y028927D01*
X030393Y029086D02*
X046689Y029086D01*
X046530Y029244D02*
X030393Y029244D01*
X030393Y029403D02*
X046372Y029403D01*
X046213Y029561D02*
X030393Y029561D01*
X030090Y029561D02*
X008807Y029561D01*
X008913Y029403D02*
X030090Y029403D01*
X030090Y029244D02*
X008995Y029244D01*
X009037Y029086D02*
X030090Y029086D01*
X030090Y028927D02*
X009062Y028927D01*
X009062Y028769D02*
X030090Y028769D01*
X030090Y028610D02*
X009038Y028610D01*
X008996Y028452D02*
X030090Y028452D01*
X030090Y028293D02*
X008915Y028293D01*
X008811Y028135D02*
X030090Y028135D01*
X030090Y027976D02*
X008652Y027976D01*
X008392Y027818D02*
X030090Y027818D01*
X030090Y029720D02*
X008648Y029720D01*
X008384Y029878D02*
X030090Y029878D01*
X031296Y022429D02*
X032792Y022429D01*
X032633Y022270D02*
X030393Y022270D01*
X030393Y022112D02*
X032475Y022112D01*
X032316Y021953D02*
X030393Y021953D01*
X030393Y021795D02*
X032158Y021795D01*
X031999Y021636D02*
X030393Y021636D01*
X030393Y021478D02*
X031977Y021478D01*
X031977Y021319D02*
X030393Y021319D01*
X031380Y021161D02*
X031977Y021161D01*
X031977Y021002D02*
X031498Y021002D01*
X031537Y020844D02*
X031977Y020844D01*
X031977Y020685D02*
X031516Y020685D01*
X031423Y020527D02*
X031977Y020527D01*
X031977Y020368D02*
X030393Y020368D01*
X030393Y020210D02*
X031977Y020210D01*
X031977Y020051D02*
X030393Y020051D01*
X030393Y019893D02*
X031977Y019893D01*
X031977Y019734D02*
X030393Y019734D01*
X030393Y019576D02*
X031977Y019576D01*
X031977Y019417D02*
X030393Y019417D01*
X030393Y019259D02*
X031977Y019259D01*
X031977Y019100D02*
X030393Y019100D01*
X030393Y018942D02*
X031977Y018942D01*
X031977Y018783D02*
X030393Y018783D01*
X030393Y018625D02*
X031977Y018625D01*
X033417Y016881D02*
X043427Y016881D01*
X043427Y016723D02*
X033417Y016723D01*
X033417Y016564D02*
X043427Y016564D01*
X043427Y016406D02*
X033417Y016406D01*
X033417Y016247D02*
X043434Y016247D01*
X043500Y016089D02*
X033417Y016089D01*
X033417Y015930D02*
X043656Y015930D01*
X043815Y015772D02*
X033417Y015772D01*
X033719Y011334D02*
X033777Y011334D01*
X033771Y011175D02*
X033561Y011175D01*
X033670Y011017D02*
X033402Y011017D01*
X033244Y010858D02*
X033658Y010858D01*
X033741Y010700D02*
X033085Y010700D01*
X032927Y010541D02*
X048110Y010541D01*
X048110Y010383D02*
X032768Y010383D01*
X032610Y010224D02*
X048110Y010224D01*
X048110Y010066D02*
X032451Y010066D01*
X032293Y009907D02*
X048110Y009907D01*
X048110Y009749D02*
X032134Y009749D01*
X030090Y009749D02*
X027568Y009749D01*
X027568Y009590D02*
X030053Y009590D01*
X029895Y009432D02*
X027568Y009432D01*
X027494Y009273D02*
X029736Y009273D01*
X029578Y009115D02*
X027451Y009115D01*
X027442Y008956D02*
X029419Y008956D01*
X029261Y008798D02*
X027283Y008798D01*
X027125Y008639D02*
X029102Y008639D01*
X028944Y008481D02*
X026966Y008481D01*
X026808Y008322D02*
X028785Y008322D01*
X028627Y008164D02*
X026649Y008164D01*
X027558Y009907D02*
X030090Y009907D01*
X030090Y008956D02*
X030042Y008956D01*
X030090Y008798D02*
X029883Y008798D01*
X029725Y008639D02*
X030090Y008639D01*
X030090Y008481D02*
X029566Y008481D01*
X029408Y008322D02*
X030085Y008322D01*
X029927Y008164D02*
X029249Y008164D01*
X029212Y005469D02*
X051961Y005469D01*
X051961Y005311D02*
X029212Y005311D01*
X029212Y005152D02*
X051961Y005152D01*
X051961Y004994D02*
X029212Y004994D01*
X029212Y004835D02*
X051961Y004835D01*
X051961Y004677D02*
X029212Y004677D01*
X030090Y004677D02*
X005677Y004677D01*
X005677Y004835D02*
X030090Y004835D01*
X030090Y004994D02*
X005677Y004994D01*
X005677Y005152D02*
X030090Y005152D01*
X030090Y005311D02*
X005677Y005311D01*
X005677Y005469D02*
X030090Y005469D01*
X017344Y008164D02*
X005677Y008164D01*
X005677Y008322D02*
X017185Y008322D01*
X017027Y008481D02*
X005677Y008481D01*
X005677Y008639D02*
X016868Y008639D01*
X016710Y008798D02*
X005677Y008798D01*
X005677Y008956D02*
X016551Y008956D01*
X016393Y009115D02*
X005677Y009115D01*
X005677Y009273D02*
X016234Y009273D01*
X016076Y009432D02*
X005677Y009432D01*
X010150Y014345D02*
X010243Y014345D01*
X010820Y014345D02*
X011093Y014345D01*
X011300Y014345D02*
X011673Y014345D01*
X011697Y014922D02*
X011697Y015722D01*
X011257Y015772D02*
X011177Y015772D01*
X011177Y015702D02*
X010717Y015702D01*
X010717Y015242D01*
X010895Y015242D01*
X011177Y015524D01*
X011177Y015702D01*
X011177Y015613D02*
X011257Y015613D01*
X011342Y015455D02*
X011108Y015455D01*
X010949Y015296D02*
X011477Y015296D01*
X010717Y015296D02*
X010677Y015296D01*
X010677Y015455D02*
X010717Y015455D01*
X010717Y015613D02*
X010677Y015613D01*
X010677Y015772D02*
X010717Y015772D01*
X010717Y015930D02*
X010677Y015930D01*
X010677Y016089D02*
X010717Y016089D01*
X011009Y016089D02*
X011441Y016089D01*
X011282Y015930D02*
X011167Y015930D01*
X010391Y016406D02*
X009891Y016406D01*
X011697Y016722D02*
X011697Y017472D01*
X015578Y018149D02*
X015615Y018149D01*
X015615Y018308D02*
X015578Y018308D01*
X017235Y019893D02*
X017402Y019893D01*
X017257Y021795D02*
X018504Y021795D01*
X018551Y021953D02*
X017257Y021953D01*
X016397Y022746D02*
X015603Y022746D01*
X015380Y022746D02*
X015380Y023104D01*
X015343Y023104D01*
X015343Y022746D01*
X015343Y022904D02*
X015380Y022904D01*
X015380Y023063D02*
X015343Y023063D01*
X015343Y023221D02*
X015380Y023221D01*
X015380Y023380D02*
X015343Y023380D01*
X014965Y022904D02*
X013013Y022904D01*
X013013Y022746D02*
X015120Y022746D01*
X018597Y015296D02*
X019777Y015296D01*
X018974Y015138D02*
X018597Y015138D01*
X018597Y014979D02*
X018945Y014979D01*
X018945Y014821D02*
X018597Y014821D01*
X018597Y014662D02*
X018945Y014662D01*
X019012Y014504D02*
X018597Y014504D01*
X033546Y021161D02*
X037981Y021161D01*
X045676Y015296D02*
X047025Y015296D01*
X048504Y008322D02*
X051961Y008322D01*
X051961Y008164D02*
X048504Y008164D01*
X048504Y008005D02*
X051961Y008005D01*
X051961Y007847D02*
X050062Y007847D01*
X050113Y007833D02*
X049831Y007909D01*
X049539Y007909D01*
X049256Y007833D01*
X049003Y007687D01*
X048797Y007480D01*
X048650Y007227D01*
X048575Y006945D01*
X048575Y006653D01*
X048650Y006370D01*
X048797Y006117D01*
X049003Y005911D01*
X049256Y005765D01*
X049539Y005689D01*
X049831Y005689D01*
X050113Y005765D01*
X050366Y005911D01*
X050573Y006117D01*
X050719Y006370D01*
X050795Y006653D01*
X050795Y006945D01*
X050719Y007227D01*
X050573Y007480D01*
X050366Y007687D01*
X050113Y007833D01*
X050364Y007688D02*
X051961Y007688D01*
X051961Y007530D02*
X050523Y007530D01*
X050636Y007371D02*
X051961Y007371D01*
X051961Y007213D02*
X050723Y007213D01*
X050765Y007054D02*
X051961Y007054D01*
X051961Y006896D02*
X050795Y006896D01*
X050795Y006737D02*
X051961Y006737D01*
X051961Y006579D02*
X050775Y006579D01*
X050732Y006420D02*
X051961Y006420D01*
X051961Y006262D02*
X050656Y006262D01*
X050559Y006103D02*
X051961Y006103D01*
X051961Y005945D02*
X050400Y005945D01*
X050151Y005786D02*
X051961Y005786D01*
X051961Y005628D02*
X046348Y005628D01*
X046507Y005786D02*
X049218Y005786D01*
X048969Y005945D02*
X046665Y005945D01*
X046824Y006103D02*
X048810Y006103D01*
X048713Y006262D02*
X046982Y006262D01*
X047141Y006420D02*
X048637Y006420D01*
X048595Y006579D02*
X047299Y006579D01*
X047458Y006737D02*
X048575Y006737D01*
X048575Y006896D02*
X047616Y006896D01*
X047775Y007054D02*
X048604Y007054D01*
X048647Y007213D02*
X047933Y007213D01*
X048092Y007371D02*
X048734Y007371D01*
X048846Y007530D02*
X048250Y007530D01*
X048409Y007688D02*
X049006Y007688D01*
X049308Y007847D02*
X048504Y007847D01*
X048504Y027818D02*
X049246Y027818D01*
X048985Y027976D02*
X048389Y027976D01*
X048230Y028135D02*
X048826Y028135D01*
X048722Y028293D02*
X048072Y028293D01*
X047913Y028452D02*
X048641Y028452D01*
X048599Y028610D02*
X047755Y028610D01*
X047596Y028769D02*
X048575Y028769D01*
X048575Y028927D02*
X047438Y028927D01*
X047279Y029086D02*
X048600Y029086D01*
X048642Y029244D02*
X047121Y029244D01*
X046962Y029403D02*
X048725Y029403D01*
X048830Y029561D02*
X046804Y029561D01*
X046645Y029720D02*
X048989Y029720D01*
X049253Y029878D02*
X046487Y029878D01*
D29*
X045197Y030543D03*
X048197Y030543D03*
X051197Y030543D03*
X051197Y028543D03*
X051197Y026543D03*
X051197Y024543D03*
X051197Y022543D03*
X040797Y022322D03*
X040797Y021822D03*
X040797Y021322D03*
X040797Y020822D03*
X040297Y020822D03*
X040297Y021322D03*
X040297Y021822D03*
X040297Y022322D03*
X040297Y022822D03*
X040797Y022822D03*
X040797Y023322D03*
X040797Y023822D03*
X040297Y023822D03*
X040297Y023322D03*
X039797Y023322D03*
X039797Y022822D03*
X039297Y022822D03*
X039297Y023322D03*
X039297Y023822D03*
X039797Y023822D03*
X038797Y023822D03*
X038797Y023322D03*
X038797Y022822D03*
X038297Y022822D03*
X038297Y023322D03*
X038297Y023822D03*
X037797Y023822D03*
X037797Y023322D03*
X037797Y022822D03*
X037797Y020822D03*
X038297Y020822D03*
X038797Y020822D03*
X039297Y020822D03*
X039797Y020822D03*
X039797Y020322D03*
X040297Y020322D03*
X040797Y020322D03*
X040797Y019822D03*
X040297Y019822D03*
X039797Y019822D03*
X039297Y019822D03*
X039297Y020322D03*
X038797Y020322D03*
X038797Y019822D03*
X038297Y019822D03*
X038297Y020322D03*
X037797Y020322D03*
X037797Y019822D03*
X037797Y015822D03*
X038297Y015822D03*
X038797Y015822D03*
X039297Y015822D03*
X039797Y015822D03*
X040297Y015822D03*
X040797Y015822D03*
X040797Y015322D03*
X040797Y014822D03*
X040797Y014322D03*
X040297Y014322D03*
X040297Y014822D03*
X040297Y015322D03*
X039797Y015322D03*
X039797Y014822D03*
X039297Y014822D03*
X039297Y015322D03*
X038797Y015322D03*
X038797Y014822D03*
X038297Y014822D03*
X038297Y015322D03*
X037797Y015322D03*
X037797Y014822D03*
X037797Y012822D03*
X038297Y012822D03*
X038797Y012822D03*
X039297Y012822D03*
X039797Y012822D03*
X040297Y012822D03*
X040797Y012822D03*
X040797Y012322D03*
X040797Y011822D03*
X040297Y011822D03*
X040297Y012322D03*
X039797Y012322D03*
X039797Y011822D03*
X039297Y011822D03*
X039297Y012322D03*
X038797Y012322D03*
X038797Y011822D03*
X038297Y011822D03*
X038297Y012322D03*
X037797Y012322D03*
X037797Y011822D03*
X040297Y013322D03*
X040797Y013322D03*
X040797Y013822D03*
X040297Y013822D03*
X034397Y011622D03*
X033997Y010922D03*
X032697Y011622D03*
X033197Y012122D03*
X029197Y010043D03*
X028197Y010043D03*
X025697Y011043D03*
X023797Y013822D03*
X022447Y013272D03*
X020897Y014422D03*
X023797Y015522D03*
X023497Y017022D03*
X022447Y017022D03*
X025197Y017043D03*
X027197Y016043D03*
X027197Y014822D03*
X025697Y014822D03*
X027297Y017822D03*
X027897Y017822D03*
X029597Y017822D03*
X030197Y017822D03*
X027197Y020043D03*
X025197Y022043D03*
X026197Y023043D03*
X028197Y026043D03*
X029697Y026043D03*
X030197Y030543D03*
X027197Y030543D03*
X024197Y030543D03*
X021197Y030543D03*
X018197Y030543D03*
X015197Y030543D03*
X012197Y030543D03*
X009197Y030543D03*
X006197Y030543D03*
X011197Y026043D03*
X015197Y024022D03*
X016697Y023122D03*
X015197Y022222D03*
X012197Y020543D03*
X011197Y020543D03*
X016517Y017222D03*
X016517Y015722D03*
X014497Y015822D03*
X014497Y014022D03*
X013397Y011922D03*
X011197Y014022D03*
X009397Y016222D03*
X017197Y011043D03*
X018197Y011043D03*
X018197Y012043D03*
X018197Y010043D03*
X020997Y010922D03*
X020997Y011822D03*
X020997Y009122D03*
X021397Y007822D03*
X022497Y007822D03*
X023497Y007822D03*
X023497Y007022D03*
X024597Y007822D03*
X025097Y007022D03*
X025597Y007822D03*
X026597Y007822D03*
X026897Y007022D03*
X027197Y005043D03*
X030197Y005043D03*
X033197Y005043D03*
X036197Y005043D03*
X039197Y005043D03*
X042197Y005043D03*
X045197Y005043D03*
X048197Y005043D03*
X051197Y005043D03*
X051197Y007043D03*
X051197Y009043D03*
X049697Y011043D03*
X049197Y011043D03*
X048897Y012543D03*
X049197Y014043D03*
X049697Y014043D03*
X050197Y014043D03*
X042197Y030543D03*
X039197Y030543D03*
X036197Y030543D03*
X033197Y030543D03*
X022197Y021543D03*
X021197Y021543D03*
X020197Y021543D03*
X018397Y019322D03*
X019197Y024043D03*
X017697Y026043D03*
X019897Y007022D03*
X021697Y007022D03*
X021197Y005043D03*
X024197Y005043D03*
X018197Y005043D03*
X015197Y005043D03*
X015197Y007043D03*
X012197Y007043D03*
X012197Y005043D03*
X009197Y005043D03*
X009197Y007043D03*
X006197Y005043D03*
D30*
X021731Y015922D02*
X022097Y015922D01*
X022297Y016122D01*
X022297Y016322D01*
X022397Y016422D01*
X022682Y016422D01*
X022682Y016678D02*
X022447Y016913D01*
X022447Y017022D01*
X021997Y017422D02*
X021731Y017157D01*
X021731Y016922D01*
X021997Y017422D02*
X023797Y017422D01*
X024197Y017022D01*
X024197Y016422D01*
X024197Y015022D01*
X023597Y014422D01*
X023331Y014422D01*
X023797Y015522D02*
X023797Y015922D01*
X023552Y016167D01*
X023311Y016167D01*
X023311Y016422D02*
X024197Y016422D01*
X023497Y016822D02*
X023497Y017022D01*
X023497Y016822D02*
X023352Y016678D01*
X023311Y016678D01*
D31*
X027297Y017822D02*
X027897Y017822D01*
X030197Y017822D01*
X043917Y017473D02*
X043917Y016363D01*
X045952Y014327D01*
X045952Y012122D01*
X045745Y015854D02*
X045097Y016503D01*
X045097Y016633D01*
X045745Y015854D02*
X047356Y015854D01*
X045097Y017843D02*
X044287Y017843D01*
X043917Y017473D01*
X045097Y019073D02*
X045097Y019273D01*
X045615Y019791D01*
X047356Y019791D01*
D32*
X018397Y019322D02*
X017497Y020222D01*
X016687Y020222D01*
X016677Y020212D01*
X014541Y020212D01*
X014531Y020222D01*
X014531Y021222D01*
X014531Y022180D01*
X014486Y022225D01*
X015194Y022225D01*
X015197Y022222D01*
X016031Y023122D02*
X016697Y023122D01*
X016697Y022052D01*
X016677Y022032D01*
X016162Y024022D02*
X015197Y024022D01*
X014486Y024022D01*
X014486Y024020D01*
M02*
