G75*
%MOIN*%
%OFA0B0*%
%FSLAX24Y24*%
%IPPOS*%
%LPD*%
%AMOC8*
5,1,8,0,0,1.08239X$1,22.5*
%
%ADD10R,0.0394X0.0433*%
%ADD11R,0.0630X0.0512*%
%ADD12R,0.0394X0.1102*%
%ADD13C,0.0600*%
%ADD14R,0.0669X0.0709*%
%ADD15C,0.0594*%
%ADD16R,0.0728X0.2165*%
%ADD17R,0.0630X0.0787*%
%ADD18C,0.0669*%
%ADD19R,0.1417X0.0512*%
%ADD20R,0.0433X0.0394*%
%ADD21R,0.1500X0.0820*%
%ADD22R,0.3500X0.4500*%
%ADD23C,0.1004*%
%ADD24R,0.0630X0.0460*%
%ADD25OC8,0.0600*%
%ADD26R,0.0394X0.0394*%
%ADD27C,0.0160*%
%ADD28C,0.0396*%
%ADD29C,0.0700*%
%ADD30C,0.0500*%
%ADD31C,0.0320*%
%ADD32C,0.0560*%
%ADD33C,0.0400*%
%ADD34C,0.0120*%
D10*
X011797Y011188D03*
X011797Y011857D03*
X011797Y012688D03*
X011797Y013357D03*
X010797Y013357D03*
X010797Y012688D03*
X012697Y011857D03*
X012697Y011188D03*
X015212Y015722D03*
X015881Y015722D03*
X015881Y017222D03*
X015212Y017222D03*
D11*
X020997Y010416D03*
X020997Y009629D03*
D12*
X017197Y020397D03*
X017197Y022248D03*
X014397Y022248D03*
X014397Y020397D03*
D13*
X030497Y020822D02*
X031097Y020822D01*
X031097Y021822D02*
X030497Y021822D01*
X030497Y022822D02*
X031097Y022822D01*
X031097Y014822D02*
X030497Y014822D01*
X030497Y013822D02*
X031097Y013822D01*
X031097Y012822D02*
X030497Y012822D01*
D14*
X028797Y012115D03*
X028797Y013730D03*
X020017Y012150D03*
X020017Y010536D03*
X028797Y020215D03*
X028797Y021830D03*
D15*
X043197Y012122D03*
X045952Y012122D03*
D16*
X047757Y012547D03*
X049765Y012547D03*
D17*
X011748Y021722D03*
X010645Y021722D03*
X010645Y023222D03*
X011748Y023222D03*
X011748Y024622D03*
X010645Y024622D03*
D18*
X007657Y024600D03*
X007657Y023222D03*
X007657Y021844D03*
X007657Y019667D03*
X007657Y018289D03*
X007657Y016911D03*
X007657Y015533D03*
X007657Y014156D03*
X007657Y012778D03*
X049457Y010249D03*
X049457Y008871D03*
D19*
X023902Y019422D03*
X020801Y019422D03*
X020801Y023782D03*
X023902Y023782D03*
D20*
X022997Y016457D03*
X022997Y015788D03*
X022997Y014957D03*
X022997Y014288D03*
X010797Y011857D03*
X010797Y011188D03*
D21*
X034797Y012822D03*
X034797Y014822D03*
X034797Y020822D03*
X034797Y022822D03*
D22*
X039297Y021822D03*
X039297Y013822D03*
D23*
X047316Y015874D03*
X047316Y017055D03*
X047316Y018630D03*
X047316Y019811D03*
X049285Y017842D03*
D24*
X013197Y023372D03*
X013197Y023972D03*
X013197Y024572D03*
D25*
X012697Y016722D03*
X011697Y016722D03*
X010697Y016722D03*
X010697Y015722D03*
X011697Y015722D03*
X012697Y015722D03*
D26*
X012697Y013416D03*
X012697Y012629D03*
D27*
X005677Y011822D02*
X005677Y004523D01*
X030090Y004523D01*
X030090Y008405D01*
X027737Y006052D01*
X027608Y005923D01*
X019405Y005923D01*
X019277Y006052D01*
X019277Y006052D01*
X015426Y009902D01*
X010105Y009902D01*
X009585Y010422D01*
X009097Y010422D01*
X008397Y011122D01*
X008397Y011622D01*
X008197Y011822D01*
X005677Y011822D01*
X005677Y011809D02*
X006910Y011809D01*
X007068Y011651D02*
X005677Y011651D01*
X008368Y011651D01*
X008397Y011492D02*
X005677Y011492D01*
X007227Y011492D01*
X007385Y011334D02*
X005677Y011334D01*
X008397Y011334D01*
X008397Y011175D02*
X005677Y011175D01*
X007397Y011175D01*
X007397Y011322D02*
X007397Y011022D01*
X005677Y011022D01*
X005677Y021522D01*
X007286Y021522D01*
X007363Y021445D01*
X007497Y021312D01*
X007497Y021122D01*
X006497Y020222D01*
X006497Y012222D01*
X007397Y011322D01*
X008210Y011809D02*
X005677Y011809D01*
X005677Y011968D02*
X006751Y011968D01*
X006593Y012126D02*
X005677Y012126D01*
X005677Y012285D02*
X006497Y012285D01*
X006497Y012443D02*
X005677Y012443D01*
X005677Y012602D02*
X006497Y012602D01*
X006497Y012760D02*
X005677Y012760D01*
X005677Y012919D02*
X006497Y012919D01*
X006497Y013077D02*
X005677Y013077D01*
X005677Y013236D02*
X006497Y013236D01*
X006497Y013394D02*
X005677Y013394D01*
X005677Y013553D02*
X006497Y013553D01*
X006497Y013711D02*
X005677Y013711D01*
X005677Y013870D02*
X006497Y013870D01*
X006497Y014028D02*
X005677Y014028D01*
X005677Y014187D02*
X006497Y014187D01*
X006497Y014345D02*
X005677Y014345D01*
X005677Y014504D02*
X006497Y014504D01*
X006497Y014662D02*
X005677Y014662D01*
X005677Y014821D02*
X006497Y014821D01*
X006497Y014979D02*
X005677Y014979D01*
X005677Y015138D02*
X006497Y015138D01*
X006497Y015296D02*
X005677Y015296D01*
X005677Y015455D02*
X006497Y015455D01*
X006497Y015613D02*
X005677Y015613D01*
X005677Y015772D02*
X006497Y015772D01*
X006497Y015930D02*
X005677Y015930D01*
X005677Y016089D02*
X006497Y016089D01*
X006497Y016247D02*
X005677Y016247D01*
X005677Y016406D02*
X006497Y016406D01*
X006497Y016564D02*
X005677Y016564D01*
X005677Y016723D02*
X006497Y016723D01*
X006497Y016881D02*
X005677Y016881D01*
X005677Y017040D02*
X006497Y017040D01*
X006497Y017198D02*
X005677Y017198D01*
X005677Y017357D02*
X006497Y017357D01*
X006497Y017515D02*
X005677Y017515D01*
X005677Y017674D02*
X006497Y017674D01*
X006497Y017832D02*
X005677Y017832D01*
X005677Y017991D02*
X006497Y017991D01*
X006497Y018149D02*
X005677Y018149D01*
X005677Y018308D02*
X006497Y018308D01*
X006497Y018466D02*
X005677Y018466D01*
X005677Y018625D02*
X006497Y018625D01*
X006497Y018783D02*
X005677Y018783D01*
X005677Y018942D02*
X006497Y018942D01*
X006497Y019100D02*
X005677Y019100D01*
X005677Y019259D02*
X006497Y019259D01*
X006497Y019417D02*
X005677Y019417D01*
X005677Y019576D02*
X006497Y019576D01*
X006497Y019734D02*
X005677Y019734D01*
X005677Y019893D02*
X006497Y019893D01*
X006497Y020051D02*
X005677Y020051D01*
X005677Y020210D02*
X006497Y020210D01*
X006659Y020368D02*
X005677Y020368D01*
X005677Y020527D02*
X006835Y020527D01*
X007011Y020685D02*
X005677Y020685D01*
X005677Y020722D02*
X005677Y031122D01*
X030090Y031122D01*
X030090Y022991D01*
X030057Y022910D01*
X030057Y022735D01*
X030090Y022654D01*
X030090Y022312D01*
X029201Y022312D01*
X029189Y022324D01*
X028995Y022324D01*
X025969Y025350D01*
X025831Y025488D01*
X025651Y025563D01*
X012049Y025563D01*
X011869Y025488D01*
X011731Y025350D01*
X011537Y025156D01*
X011375Y025156D01*
X011293Y025074D01*
X011293Y024171D01*
X011375Y024089D01*
X012121Y024089D01*
X012203Y024171D01*
X012203Y024436D01*
X012349Y024583D01*
X012742Y024583D01*
X012742Y024284D01*
X012754Y024272D01*
X012742Y024260D01*
X012742Y023713D01*
X012164Y023713D01*
X012121Y023756D01*
X011375Y023756D01*
X011293Y023674D01*
X011293Y022771D01*
X011375Y022689D01*
X012121Y022689D01*
X012165Y022733D01*
X013894Y022733D01*
X014060Y022801D01*
X014060Y021638D01*
X014142Y021556D01*
X014651Y021556D01*
X014733Y021638D01*
X014733Y021922D01*
X015037Y021922D01*
X015129Y021884D01*
X015264Y021884D01*
X015388Y021936D01*
X015483Y022031D01*
X015535Y022155D01*
X015535Y022290D01*
X015483Y022414D01*
X015388Y022509D01*
X015264Y022561D01*
X015129Y022561D01*
X015037Y022522D01*
X014733Y022522D01*
X014733Y022832D01*
X015794Y022832D01*
X015974Y022907D01*
X016499Y023432D01*
X016561Y023432D01*
X016505Y023409D01*
X016410Y023314D01*
X016358Y023190D01*
X016358Y023055D01*
X016410Y022931D01*
X016505Y022836D01*
X016629Y022784D01*
X016764Y022784D01*
X016856Y022822D01*
X016860Y022822D01*
X016860Y021638D01*
X016942Y021556D01*
X017451Y021556D01*
X017533Y021638D01*
X017533Y021948D01*
X018147Y021948D01*
X018897Y021198D01*
X018897Y018063D01*
X018942Y017953D01*
X020597Y016298D01*
X020597Y014582D01*
X020558Y014490D01*
X020558Y014355D01*
X020610Y014231D01*
X020705Y014136D01*
X020829Y014084D01*
X020964Y014084D01*
X021088Y014136D01*
X021183Y014231D01*
X021235Y014355D01*
X021235Y014490D01*
X021197Y014582D01*
X021197Y016298D01*
X022221Y017322D01*
X022287Y017322D01*
X022255Y017309D01*
X022160Y017214D01*
X022108Y017090D01*
X022108Y016955D01*
X022160Y016831D01*
X022227Y016764D01*
X022227Y013531D01*
X022160Y013464D01*
X022108Y013340D01*
X022108Y013205D01*
X022160Y013081D01*
X022255Y012986D01*
X022379Y012934D01*
X022514Y012934D01*
X022638Y012986D01*
X022733Y013081D01*
X022785Y013205D01*
X022785Y013340D01*
X022733Y013464D01*
X022667Y013531D01*
X022667Y013950D01*
X022669Y013947D01*
X022711Y013923D01*
X022756Y013911D01*
X022978Y013911D01*
X022978Y014269D01*
X023015Y014269D01*
X023015Y013911D01*
X023237Y013911D01*
X023283Y013923D01*
X023324Y013947D01*
X023357Y013980D01*
X023381Y014021D01*
X023393Y014067D01*
X023393Y014269D01*
X023015Y014269D01*
X023015Y014306D01*
X023393Y014306D01*
X023393Y014508D01*
X023381Y014554D01*
X023357Y014595D01*
X023324Y014629D01*
X023296Y014645D01*
X023353Y014702D01*
X023353Y014702D01*
X023577Y014702D01*
X023577Y014081D01*
X023510Y014014D01*
X023458Y013890D01*
X023458Y013755D01*
X023510Y013631D01*
X023605Y013536D01*
X023729Y013484D01*
X023864Y013484D01*
X023988Y013536D01*
X024083Y013631D01*
X024135Y013755D01*
X024135Y013890D01*
X024083Y014014D01*
X024017Y014081D01*
X024017Y015264D01*
X024083Y015331D01*
X024135Y015455D01*
X024135Y015590D01*
X024083Y015714D01*
X023988Y015809D01*
X023864Y015861D01*
X023729Y015861D01*
X023605Y015809D01*
X023510Y015714D01*
X023458Y015590D01*
X023458Y015455D01*
X023510Y015331D01*
X023577Y015264D01*
X023577Y015142D01*
X023353Y015142D01*
X023353Y015212D01*
X023271Y015294D01*
X022722Y015294D01*
X022667Y015238D01*
X022667Y015502D01*
X022671Y015502D01*
X022722Y015451D01*
X023271Y015451D01*
X023353Y015533D01*
X023353Y016043D01*
X023296Y016100D01*
X023324Y016116D01*
X023357Y016150D01*
X023381Y016191D01*
X023393Y016237D01*
X023393Y016439D01*
X023015Y016439D01*
X023015Y016476D01*
X022978Y016476D01*
X022978Y016834D01*
X022756Y016834D01*
X022729Y016827D01*
X022733Y016831D01*
X022785Y016955D01*
X022785Y017090D01*
X022733Y017214D01*
X022638Y017309D01*
X022606Y017322D01*
X023072Y017322D01*
X023197Y017198D01*
X023197Y017182D01*
X023158Y017090D01*
X023158Y016955D01*
X023209Y016834D01*
X023015Y016834D01*
X023015Y016476D01*
X023393Y016476D01*
X023393Y016678D01*
X023387Y016702D01*
X023429Y016684D01*
X023564Y016684D01*
X023688Y016736D01*
X023783Y016831D01*
X023835Y016955D01*
X023835Y017090D01*
X023797Y017182D01*
X023797Y017382D01*
X023751Y017492D01*
X023666Y017577D01*
X023366Y017877D01*
X023256Y017922D01*
X022037Y017922D01*
X021927Y017877D01*
X021842Y017792D01*
X020897Y016847D01*
X019497Y018247D01*
X019497Y021382D01*
X019451Y021492D01*
X018590Y022353D01*
X023417Y022353D01*
X023417Y019818D01*
X023135Y019818D01*
X023053Y019736D01*
X023053Y019109D01*
X023135Y019027D01*
X023605Y019027D01*
X023624Y019007D01*
X023804Y018932D01*
X024994Y018932D01*
X026381Y017545D01*
X026381Y017545D01*
X026519Y017407D01*
X026699Y017332D01*
X027994Y017332D01*
X028174Y017407D01*
X028307Y017539D01*
X028307Y013632D01*
X028322Y013595D01*
X028322Y013317D01*
X028404Y013235D01*
X029189Y013235D01*
X029271Y013317D01*
X029271Y013332D01*
X030090Y013332D01*
X030090Y013080D01*
X030086Y013074D01*
X030052Y013007D01*
X030028Y012935D01*
X030017Y012860D01*
X030017Y012842D01*
X030090Y012842D01*
X030090Y012802D01*
X030017Y012802D01*
X030017Y012785D01*
X030028Y012710D01*
X030052Y012638D01*
X030086Y012571D01*
X030090Y012565D01*
X030090Y009627D01*
X027226Y006763D01*
X019588Y006763D01*
X015708Y010642D01*
X014317Y010642D01*
X014997Y011322D01*
X014997Y013122D01*
X015497Y013622D01*
X015497Y014622D01*
X015597Y014722D01*
X016897Y014722D01*
X017497Y015322D01*
X017497Y017622D01*
X016697Y018422D01*
X011097Y018422D01*
X008797Y020722D01*
X005677Y020722D01*
X005677Y020844D02*
X007187Y020844D01*
X007363Y021002D02*
X005677Y021002D01*
X014028Y021002D01*
X014032Y021018D02*
X014020Y020972D01*
X014020Y020416D01*
X014378Y020416D01*
X014378Y021128D01*
X014176Y021128D01*
X014130Y021116D01*
X014089Y021092D01*
X014056Y021059D01*
X014032Y021018D01*
X014020Y020844D02*
X005677Y020844D01*
X005677Y021161D02*
X007497Y021161D01*
X007501Y021308D02*
X007681Y021233D01*
X010228Y021233D01*
X010272Y021189D01*
X011018Y021189D01*
X011100Y021271D01*
X011100Y022174D01*
X011018Y022256D01*
X010272Y022256D01*
X010229Y022213D01*
X007982Y022213D01*
X007935Y022260D01*
X007755Y022334D01*
X007560Y022334D01*
X007380Y022260D01*
X007242Y022122D01*
X007167Y021942D01*
X007167Y021747D01*
X007242Y021567D01*
X007363Y021445D01*
X007501Y021308D01*
X007489Y021319D02*
X005677Y021319D01*
X007489Y021319D01*
X007331Y021478D02*
X005677Y021478D01*
X007331Y021478D01*
X007213Y021636D02*
X005677Y021636D01*
X005677Y021795D02*
X007167Y021795D01*
X007172Y021953D02*
X005677Y021953D01*
X005677Y022112D02*
X007238Y022112D01*
X007405Y022270D02*
X005677Y022270D01*
X005677Y022429D02*
X014060Y022429D01*
X014060Y022587D02*
X005677Y022587D01*
X005677Y022746D02*
X007527Y022746D01*
X007560Y022732D02*
X010229Y022732D01*
X010272Y022689D01*
X011018Y022689D01*
X011100Y022771D01*
X011100Y023674D01*
X011018Y023756D01*
X010272Y023756D01*
X010229Y023712D01*
X007560Y023712D01*
X007380Y023638D01*
X007242Y023500D01*
X007167Y023320D01*
X007167Y023125D01*
X007242Y022945D01*
X007380Y022807D01*
X007560Y022732D01*
X007282Y022904D02*
X005677Y022904D01*
X005677Y023063D02*
X007193Y023063D01*
X007167Y023221D02*
X005677Y023221D01*
X005677Y023380D02*
X007192Y023380D01*
X007280Y023538D02*
X005677Y023538D01*
X005677Y023697D02*
X007522Y023697D01*
X007560Y024110D02*
X010251Y024110D01*
X010272Y024089D01*
X011018Y024089D01*
X011100Y024171D01*
X011100Y025074D01*
X011018Y025156D01*
X010272Y025156D01*
X010207Y025090D01*
X007560Y025090D01*
X007380Y025016D01*
X007242Y024878D01*
X007167Y024698D01*
X007167Y024503D01*
X007242Y024323D01*
X007380Y024185D01*
X007560Y024110D01*
X007410Y024172D02*
X005677Y024172D01*
X005677Y024014D02*
X012742Y024014D01*
X012742Y024172D02*
X012203Y024172D01*
X012203Y024331D02*
X012742Y024331D01*
X012742Y024489D02*
X012256Y024489D01*
X011293Y024489D02*
X011100Y024489D01*
X011100Y024331D02*
X011293Y024331D01*
X011293Y024172D02*
X011100Y024172D01*
X011077Y023697D02*
X011316Y023697D01*
X011293Y023538D02*
X011100Y023538D01*
X011100Y023380D02*
X011293Y023380D01*
X011293Y023221D02*
X011100Y023221D01*
X011100Y023063D02*
X011293Y023063D01*
X011293Y022904D02*
X011100Y022904D01*
X011075Y022746D02*
X011318Y022746D01*
X011409Y022296D02*
X011363Y022284D01*
X011322Y022260D01*
X011289Y022227D01*
X011265Y022186D01*
X011253Y022140D01*
X011253Y021800D01*
X011670Y021800D01*
X011670Y021645D01*
X011253Y021645D01*
X011253Y021305D01*
X011265Y021259D01*
X011289Y021218D01*
X011322Y021185D01*
X011363Y021161D01*
X011409Y021149D01*
X011670Y021149D01*
X011670Y021645D01*
X011825Y021645D01*
X011825Y021149D01*
X012086Y021149D01*
X012132Y021161D01*
X018897Y021161D01*
X018897Y021002D02*
X017565Y021002D01*
X017561Y021018D02*
X017537Y021059D01*
X017504Y021092D01*
X017463Y021116D01*
X017417Y021128D01*
X017215Y021128D01*
X017215Y020416D01*
X017178Y020416D01*
X017178Y021128D01*
X016976Y021128D01*
X016930Y021116D01*
X016889Y021092D01*
X016856Y021059D01*
X016832Y021018D01*
X016820Y020972D01*
X016820Y020416D01*
X017178Y020416D01*
X017178Y020379D01*
X016820Y020379D01*
X016820Y019822D01*
X016832Y019777D01*
X016856Y019736D01*
X016889Y019702D01*
X016930Y019678D01*
X016976Y019666D01*
X017178Y019666D01*
X017178Y020379D01*
X017215Y020379D01*
X017215Y020416D01*
X017573Y020416D01*
X017573Y020972D01*
X017561Y021018D01*
X017573Y020844D02*
X018897Y020844D01*
X018897Y020685D02*
X017573Y020685D01*
X017573Y020527D02*
X018897Y020527D01*
X018897Y020368D02*
X017573Y020368D01*
X017573Y020379D02*
X017215Y020379D01*
X017215Y019666D01*
X017417Y019666D01*
X017463Y019678D01*
X017504Y019702D01*
X017537Y019736D01*
X017561Y019777D01*
X017573Y019822D01*
X017573Y020379D01*
X017573Y020210D02*
X018897Y020210D01*
X018897Y020051D02*
X017573Y020051D01*
X017573Y019893D02*
X018897Y019893D01*
X018897Y019734D02*
X017536Y019734D01*
X017215Y019734D02*
X017178Y019734D01*
X017178Y019893D02*
X017215Y019893D01*
X017215Y020051D02*
X017178Y020051D01*
X017178Y020210D02*
X017215Y020210D01*
X017215Y020368D02*
X017178Y020368D01*
X017178Y020527D02*
X017215Y020527D01*
X017215Y020685D02*
X017178Y020685D01*
X017178Y020844D02*
X017215Y020844D01*
X017215Y021002D02*
X017178Y021002D01*
X016828Y021002D02*
X014765Y021002D01*
X014761Y021018D02*
X014737Y021059D01*
X014704Y021092D01*
X014663Y021116D01*
X014617Y021128D01*
X014415Y021128D01*
X014415Y020416D01*
X014378Y020416D01*
X014378Y020379D01*
X014020Y020379D01*
X014020Y019822D01*
X014032Y019777D01*
X014056Y019736D01*
X014089Y019702D01*
X014130Y019678D01*
X014176Y019666D01*
X014378Y019666D01*
X014378Y020379D01*
X014415Y020379D01*
X014415Y020416D01*
X014773Y020416D01*
X014773Y020972D01*
X014761Y021018D01*
X014773Y020844D02*
X016820Y020844D01*
X016820Y020685D02*
X014773Y020685D01*
X014773Y020527D02*
X016820Y020527D01*
X016820Y020368D02*
X014773Y020368D01*
X014773Y020379D02*
X014415Y020379D01*
X014415Y019666D01*
X014617Y019666D01*
X014663Y019678D01*
X014704Y019702D01*
X014737Y019736D01*
X014761Y019777D01*
X014773Y019822D01*
X014773Y020379D01*
X014773Y020210D02*
X016820Y020210D01*
X016820Y020051D02*
X014773Y020051D01*
X014773Y019893D02*
X016820Y019893D01*
X016857Y019734D02*
X014736Y019734D01*
X014415Y019734D02*
X014378Y019734D01*
X014378Y019893D02*
X014415Y019893D01*
X014415Y020051D02*
X014378Y020051D01*
X014378Y020210D02*
X014415Y020210D01*
X014415Y020368D02*
X014378Y020368D01*
X014378Y020527D02*
X014415Y020527D01*
X014415Y020685D02*
X014378Y020685D01*
X014378Y020844D02*
X014415Y020844D01*
X014415Y021002D02*
X014378Y021002D01*
X014020Y020685D02*
X008834Y020685D01*
X008992Y020527D02*
X014020Y020527D01*
X014020Y020368D02*
X009151Y020368D01*
X009309Y020210D02*
X014020Y020210D01*
X014020Y020051D02*
X009468Y020051D01*
X009626Y019893D02*
X014020Y019893D01*
X014057Y019734D02*
X009785Y019734D01*
X009943Y019576D02*
X018172Y019576D01*
X018205Y019609D02*
X018110Y019514D01*
X018058Y019390D01*
X018058Y019255D01*
X018097Y019163D01*
X018097Y014763D01*
X018142Y014653D01*
X018227Y014568D01*
X019717Y013078D01*
X019717Y012644D01*
X019624Y012644D01*
X019542Y012562D01*
X019542Y011738D01*
X019624Y011656D01*
X020410Y011656D01*
X020492Y011738D01*
X020492Y011850D01*
X020545Y011850D01*
X020672Y011723D01*
X020710Y011631D01*
X020805Y011536D01*
X020929Y011484D01*
X021064Y011484D01*
X021188Y011536D01*
X021283Y011631D01*
X021335Y011755D01*
X021335Y011890D01*
X021283Y012014D01*
X021188Y012109D01*
X021096Y012147D01*
X020839Y012404D01*
X020729Y012450D01*
X020492Y012450D01*
X020492Y012562D01*
X020410Y012644D01*
X020317Y012644D01*
X020317Y013262D01*
X020271Y013372D01*
X020187Y013456D01*
X018697Y014947D01*
X018697Y019163D01*
X018735Y019255D01*
X018735Y019390D01*
X018683Y019514D01*
X018588Y019609D01*
X018464Y019661D01*
X018329Y019661D01*
X018205Y019609D01*
X018070Y019417D02*
X010102Y019417D01*
X010260Y019259D02*
X018058Y019259D01*
X018097Y019100D02*
X010419Y019100D01*
X010577Y018942D02*
X018097Y018942D01*
X018097Y018783D02*
X010736Y018783D01*
X010894Y018625D02*
X018097Y018625D01*
X018097Y018466D02*
X011053Y018466D01*
X010770Y018149D02*
X010291Y018149D01*
X010449Y017991D02*
X016528Y017991D01*
X016497Y018022D02*
X017097Y017422D01*
X017097Y015522D01*
X016697Y015122D01*
X015397Y015122D01*
X015097Y014822D01*
X015097Y013822D01*
X014597Y013322D01*
X014597Y011522D01*
X013897Y010822D01*
X010308Y010822D01*
X010217Y010914D01*
X010217Y011331D01*
X010464Y011579D01*
X010520Y011522D01*
X010440Y011443D01*
X010440Y010933D01*
X010522Y010851D01*
X011071Y010851D01*
X011153Y010933D01*
X011153Y010968D01*
X011460Y010968D01*
X011460Y010913D01*
X011542Y010831D01*
X012051Y010831D01*
X012133Y010913D01*
X012133Y010968D01*
X012360Y010968D01*
X012360Y010913D01*
X012442Y010831D01*
X012951Y010831D01*
X013033Y010913D01*
X013033Y010968D01*
X013653Y010968D01*
X014088Y011402D01*
X014217Y011531D01*
X014217Y013014D01*
X013617Y013614D01*
X013617Y014514D01*
X013488Y014642D01*
X013117Y015014D01*
X012988Y015142D01*
X012917Y015142D01*
X012917Y015320D01*
X013137Y015540D01*
X013137Y015851D01*
X013488Y016202D01*
X014992Y016202D01*
X014992Y016079D01*
X014957Y016079D01*
X014875Y015997D01*
X014875Y015448D01*
X014957Y015366D01*
X015467Y015366D01*
X015547Y015446D01*
X015626Y015366D01*
X016136Y015366D01*
X016218Y015448D01*
X016218Y015502D01*
X016258Y015502D01*
X016325Y015436D01*
X016449Y015384D01*
X016584Y015384D01*
X016708Y015436D01*
X016803Y015531D01*
X016855Y015655D01*
X016855Y015790D01*
X016803Y015914D01*
X016708Y016009D01*
X016584Y016061D01*
X016449Y016061D01*
X016325Y016009D01*
X016258Y015942D01*
X016218Y015942D01*
X016218Y015997D01*
X016136Y016079D01*
X015626Y016079D01*
X015547Y015999D01*
X015467Y016079D01*
X015432Y016079D01*
X015432Y016866D01*
X015467Y016866D01*
X015547Y016946D01*
X015626Y016866D01*
X016136Y016866D01*
X016218Y016948D01*
X016218Y017002D01*
X016258Y017002D01*
X016325Y016936D01*
X016449Y016884D01*
X016584Y016884D01*
X016708Y016936D01*
X016803Y017031D01*
X016855Y017155D01*
X016855Y017290D01*
X016803Y017414D01*
X016708Y017509D01*
X016584Y017561D01*
X016449Y017561D01*
X016325Y017509D01*
X016258Y017442D01*
X016218Y017442D01*
X016218Y017497D01*
X016136Y017579D01*
X015626Y017579D01*
X015547Y017499D01*
X015467Y017579D01*
X014957Y017579D01*
X014875Y017497D01*
X014875Y016948D01*
X014957Y016866D01*
X014992Y016866D01*
X014992Y016642D01*
X013305Y016642D01*
X013177Y016514D01*
X012825Y016162D01*
X012514Y016162D01*
X012257Y015905D01*
X012257Y015540D01*
X012477Y015320D01*
X012477Y015142D01*
X010488Y015142D01*
X010217Y015414D01*
X010217Y017314D01*
X009150Y018380D01*
X009021Y018509D01*
X008080Y018509D01*
X008060Y018558D01*
X007926Y018692D01*
X007752Y018764D01*
X007563Y018764D01*
X007388Y018692D01*
X007255Y018558D01*
X007183Y018384D01*
X007183Y018195D01*
X007255Y018021D01*
X007388Y017887D01*
X007563Y017815D01*
X007752Y017815D01*
X007926Y017887D01*
X008060Y018021D01*
X008080Y018069D01*
X008838Y018069D01*
X009777Y017131D01*
X009777Y015231D01*
X010305Y014702D01*
X012805Y014702D01*
X013177Y014331D01*
X013177Y013431D01*
X013305Y013302D01*
X013777Y012831D01*
X013777Y011714D01*
X013471Y011408D01*
X013033Y011408D01*
X013033Y011462D01*
X013001Y011495D01*
X013004Y011497D01*
X013037Y011530D01*
X013061Y011571D01*
X013073Y011617D01*
X013073Y011839D01*
X012715Y011839D01*
X012715Y011876D01*
X012678Y011876D01*
X012678Y012610D01*
X012715Y012610D01*
X012715Y012254D01*
X012715Y011876D01*
X013073Y011876D01*
X013073Y012097D01*
X013061Y012143D01*
X013037Y012184D01*
X013004Y012218D01*
X012963Y012241D01*
X012920Y012253D01*
X012963Y012264D01*
X013004Y012288D01*
X013037Y012321D01*
X013061Y012362D01*
X013073Y012408D01*
X013073Y012610D01*
X012715Y012610D01*
X012715Y012647D01*
X013073Y012647D01*
X013073Y012849D01*
X013061Y012895D01*
X013037Y012936D01*
X013004Y012970D01*
X012963Y012993D01*
X012917Y013006D01*
X012715Y013006D01*
X012715Y012647D01*
X012678Y012647D01*
X012678Y012610D01*
X012320Y012610D01*
X012320Y012408D01*
X012332Y012362D01*
X012356Y012321D01*
X012389Y012288D01*
X012430Y012264D01*
X012473Y012253D01*
X012430Y012241D01*
X012389Y012218D01*
X012356Y012184D01*
X012332Y012143D01*
X012320Y012097D01*
X012320Y011876D01*
X012678Y011876D01*
X012678Y011839D01*
X012320Y011839D01*
X012320Y011617D01*
X012332Y011571D01*
X012356Y011530D01*
X012389Y011497D01*
X012392Y011495D01*
X012360Y011462D01*
X012360Y011408D01*
X012133Y011408D01*
X012133Y011462D01*
X012101Y011495D01*
X012104Y011497D01*
X012137Y011530D01*
X012161Y011571D01*
X012173Y011617D01*
X012173Y011839D01*
X011815Y011839D01*
X011815Y011876D01*
X011778Y011876D01*
X011778Y012254D01*
X011576Y012254D01*
X011530Y012241D01*
X011489Y012218D01*
X011456Y012184D01*
X011432Y012143D01*
X011420Y012097D01*
X011420Y011876D01*
X011778Y011876D01*
X011778Y011839D01*
X011420Y011839D01*
X011420Y011617D01*
X011432Y011571D01*
X011456Y011530D01*
X011489Y011497D01*
X011492Y011495D01*
X011460Y011462D01*
X011460Y011408D01*
X011153Y011408D01*
X011153Y011443D01*
X011073Y011522D01*
X011153Y011602D01*
X011153Y012112D01*
X011071Y012194D01*
X011017Y012194D01*
X011017Y012331D01*
X011051Y012331D01*
X011133Y012413D01*
X011133Y012468D01*
X011460Y012468D01*
X011460Y012413D01*
X011542Y012331D01*
X012051Y012331D01*
X012133Y012413D01*
X012133Y012962D01*
X012073Y013022D01*
X012133Y013083D01*
X012133Y013137D01*
X012384Y013137D01*
X012442Y013079D01*
X012951Y013079D01*
X013033Y013161D01*
X013033Y013671D01*
X012951Y013753D01*
X012442Y013753D01*
X012360Y013671D01*
X012360Y013577D01*
X012133Y013577D01*
X012133Y013632D01*
X012051Y013714D01*
X011542Y013714D01*
X011460Y013632D01*
X011460Y013577D01*
X011133Y013577D01*
X011133Y013632D01*
X011051Y013714D01*
X011017Y013714D01*
X011017Y013731D01*
X011129Y013684D01*
X011264Y013684D01*
X011388Y013736D01*
X011483Y013831D01*
X011535Y013955D01*
X011535Y014090D01*
X011483Y014214D01*
X011388Y014309D01*
X011264Y014361D01*
X011129Y014361D01*
X011005Y014309D01*
X010938Y014242D01*
X010905Y014242D01*
X010705Y014042D01*
X010577Y013914D01*
X010577Y013714D01*
X010542Y013714D01*
X010460Y013632D01*
X010460Y013542D01*
X010305Y013542D01*
X009605Y012842D01*
X009477Y012714D01*
X009477Y010822D01*
X009197Y010822D01*
X008797Y011222D01*
X008797Y011822D01*
X008397Y012222D01*
X007297Y012222D01*
X006897Y012622D01*
X006897Y019822D01*
X007397Y020322D01*
X008597Y020322D01*
X010897Y018022D01*
X016497Y018022D01*
X016687Y017832D02*
X010608Y017832D01*
X010766Y017674D02*
X016845Y017674D01*
X016693Y017515D02*
X017004Y017515D01*
X017097Y017357D02*
X016827Y017357D01*
X016855Y017198D02*
X017097Y017198D01*
X017097Y017040D02*
X016807Y017040D01*
X017097Y016881D02*
X016152Y016881D01*
X015881Y017222D02*
X016517Y017222D01*
X016340Y017515D02*
X016200Y017515D01*
X015563Y017515D02*
X015530Y017515D01*
X015212Y017222D02*
X015212Y016422D01*
X013397Y016422D01*
X012697Y015722D01*
X012697Y014922D01*
X012897Y014922D01*
X013397Y014422D01*
X013397Y013522D01*
X013997Y012922D01*
X013997Y011622D01*
X013562Y011188D01*
X012697Y011188D01*
X011797Y011188D01*
X010797Y011188D01*
X010440Y011175D02*
X010217Y011175D01*
X010217Y011017D02*
X010440Y011017D01*
X010515Y010858D02*
X010272Y010858D01*
X009997Y010822D02*
X010397Y010422D01*
X015617Y010422D01*
X019497Y006543D01*
X027317Y006543D01*
X032197Y011422D01*
X032197Y011822D01*
X032497Y012122D01*
X033197Y012122D01*
X033897Y012122D01*
X034397Y011622D01*
X034709Y011492D02*
X047207Y011492D01*
X047207Y011632D02*
X047207Y009545D01*
X047281Y009365D01*
X047419Y009228D01*
X048110Y008537D01*
X048110Y007980D01*
X046141Y006011D01*
X030393Y006011D01*
X030393Y008708D01*
X032697Y011011D01*
X032877Y010831D01*
X033005Y010702D01*
X033738Y010702D01*
X033805Y010636D01*
X033929Y010584D01*
X034064Y010584D01*
X034188Y010636D01*
X034283Y010731D01*
X034335Y010855D01*
X034335Y010990D01*
X034283Y011114D01*
X034188Y011209D01*
X034064Y011261D01*
X033929Y011261D01*
X033805Y011209D01*
X033738Y011142D01*
X033188Y011142D01*
X032941Y011389D01*
X032983Y011431D01*
X033035Y011555D01*
X033035Y011690D01*
X032983Y011814D01*
X032895Y011902D01*
X032938Y011902D01*
X033005Y011836D01*
X033129Y011784D01*
X033264Y011784D01*
X033388Y011836D01*
X033455Y011902D01*
X033805Y011902D01*
X034058Y011649D01*
X034058Y011555D01*
X034110Y011431D01*
X034205Y011336D01*
X034329Y011284D01*
X034464Y011284D01*
X034588Y011336D01*
X034683Y011431D01*
X034735Y011555D01*
X034735Y011690D01*
X034683Y011814D01*
X034588Y011909D01*
X034464Y011961D01*
X034370Y011961D01*
X034058Y012272D01*
X035605Y012272D01*
X035687Y012354D01*
X035687Y013290D01*
X035605Y013372D01*
X033989Y013372D01*
X033929Y013312D01*
X030393Y013312D01*
X030393Y014389D01*
X030409Y014382D01*
X031184Y014382D01*
X031305Y014432D01*
X033907Y014432D01*
X033907Y014354D01*
X033989Y014272D01*
X035605Y014272D01*
X035687Y014354D01*
X035687Y015290D01*
X035605Y015372D01*
X033989Y015372D01*
X033907Y015290D01*
X033907Y015212D01*
X031305Y015212D01*
X031184Y015262D01*
X030409Y015262D01*
X030393Y015256D01*
X030393Y017035D01*
X045477Y017035D01*
X045477Y015452D01*
X045605Y015323D01*
X046605Y014323D01*
X048110Y014323D01*
X048110Y013770D01*
X047335Y013770D01*
X047253Y013688D01*
X047253Y012612D01*
X045855Y012612D01*
X045675Y012538D01*
X045537Y012400D01*
X045462Y012220D01*
X045462Y012025D01*
X045537Y011845D01*
X045675Y011707D01*
X045855Y011632D01*
X047207Y011632D01*
X047207Y011334D02*
X034584Y011334D01*
X034735Y011651D02*
X045810Y011651D01*
X045572Y011809D02*
X034685Y011809D01*
X034362Y011968D02*
X045486Y011968D01*
X045462Y012126D02*
X034204Y012126D01*
X033898Y011809D02*
X033324Y011809D01*
X033069Y011809D02*
X032985Y011809D01*
X033035Y011651D02*
X034057Y011651D01*
X034084Y011492D02*
X033009Y011492D01*
X032996Y011334D02*
X034210Y011334D01*
X034222Y011175D02*
X047207Y011175D01*
X047207Y011017D02*
X034323Y011017D01*
X034335Y010858D02*
X047207Y010858D01*
X047207Y010700D02*
X034252Y010700D01*
X033997Y010922D02*
X033097Y010922D01*
X032697Y011322D01*
X027517Y006143D01*
X019497Y006143D01*
X015517Y010122D01*
X010197Y010122D01*
X009697Y010622D01*
X009697Y012622D01*
X010397Y013322D01*
X010762Y013322D01*
X010797Y013357D01*
X011797Y013357D01*
X012637Y013357D01*
X012697Y013416D01*
X013033Y013394D02*
X013213Y013394D01*
X013177Y013553D02*
X013033Y013553D01*
X012993Y013711D02*
X013177Y013711D01*
X013177Y013870D02*
X011499Y013870D01*
X011535Y014028D02*
X013177Y014028D01*
X013177Y014187D02*
X011494Y014187D01*
X011300Y014345D02*
X013162Y014345D01*
X013004Y014504D02*
X009589Y014504D01*
X009617Y014531D02*
X009617Y015964D01*
X009683Y016031D01*
X009735Y016155D01*
X009735Y016290D01*
X009683Y016414D01*
X009588Y016509D01*
X009464Y016561D01*
X009329Y016561D01*
X009205Y016509D01*
X009110Y016414D01*
X009058Y016290D01*
X009058Y016155D01*
X009110Y016031D01*
X009177Y015964D01*
X009177Y014714D01*
X008838Y014376D01*
X008080Y014376D01*
X008060Y014424D01*
X007926Y014558D01*
X007752Y014630D01*
X007563Y014630D01*
X007388Y014558D01*
X007255Y014424D01*
X007183Y014250D01*
X007183Y014061D01*
X007255Y013887D01*
X007388Y013753D01*
X007563Y013681D01*
X007752Y013681D01*
X007926Y013753D01*
X008060Y013887D01*
X008080Y013936D01*
X009021Y013936D01*
X009150Y014064D01*
X009617Y014531D01*
X009617Y014662D02*
X012845Y014662D01*
X012697Y014922D02*
X010397Y014922D01*
X009997Y015322D01*
X009997Y017222D01*
X008930Y018289D01*
X007657Y018289D01*
X007217Y018466D02*
X006897Y018466D01*
X006897Y018308D02*
X007183Y018308D01*
X007201Y018149D02*
X006897Y018149D01*
X006897Y017991D02*
X007284Y017991D01*
X007520Y017832D02*
X006897Y017832D01*
X006897Y017674D02*
X009234Y017674D01*
X009392Y017515D02*
X006897Y017515D01*
X006897Y017357D02*
X007492Y017357D01*
X007563Y017386D02*
X007388Y017314D01*
X007255Y017180D01*
X007183Y017006D01*
X007183Y016817D01*
X007255Y016643D01*
X007388Y016509D01*
X007563Y016437D01*
X007752Y016437D01*
X007926Y016509D01*
X008060Y016643D01*
X008132Y016817D01*
X008132Y017006D01*
X008060Y017180D01*
X007926Y017314D01*
X007752Y017386D01*
X007563Y017386D01*
X007822Y017357D02*
X009551Y017357D01*
X009709Y017198D02*
X008041Y017198D01*
X008118Y017040D02*
X009777Y017040D01*
X009777Y016881D02*
X008132Y016881D01*
X008093Y016723D02*
X009777Y016723D01*
X009777Y016564D02*
X007981Y016564D01*
X007752Y016008D02*
X007563Y016008D01*
X007388Y015936D01*
X007255Y015802D01*
X007183Y015628D01*
X007183Y015439D01*
X007255Y015265D01*
X007388Y015131D01*
X007563Y015059D01*
X007752Y015059D01*
X007926Y015131D01*
X008060Y015265D01*
X008132Y015439D01*
X008132Y015628D01*
X008060Y015802D01*
X007926Y015936D01*
X007752Y016008D01*
X007931Y015930D02*
X009177Y015930D01*
X009177Y015772D02*
X008072Y015772D01*
X008132Y015613D02*
X009177Y015613D01*
X009177Y015455D02*
X008132Y015455D01*
X008073Y015296D02*
X009177Y015296D01*
X009177Y015138D02*
X007933Y015138D01*
X007381Y015138D02*
X006897Y015138D01*
X006897Y015296D02*
X007242Y015296D01*
X007183Y015455D02*
X006897Y015455D01*
X006897Y015613D02*
X007183Y015613D01*
X007242Y015772D02*
X006897Y015772D01*
X006897Y015930D02*
X007383Y015930D01*
X006897Y016089D02*
X009086Y016089D01*
X009058Y016247D02*
X006897Y016247D01*
X006897Y016406D02*
X009107Y016406D01*
X009397Y016222D02*
X009397Y014622D01*
X008930Y014156D01*
X007657Y014156D01*
X007222Y014345D02*
X006897Y014345D01*
X006897Y014187D02*
X007183Y014187D01*
X007196Y014028D02*
X006897Y014028D01*
X006897Y013870D02*
X007271Y013870D01*
X007489Y013711D02*
X006897Y013711D01*
X006897Y013553D02*
X010460Y013553D01*
X010539Y013711D02*
X007825Y013711D01*
X008043Y013870D02*
X010577Y013870D01*
X010691Y014028D02*
X009114Y014028D01*
X009272Y014187D02*
X010850Y014187D01*
X010997Y014022D02*
X010797Y013822D01*
X010797Y013357D01*
X011054Y013711D02*
X011064Y013711D01*
X011329Y013711D02*
X011539Y013711D01*
X011197Y014022D02*
X010997Y014022D01*
X011093Y014345D02*
X009431Y014345D01*
X009125Y014662D02*
X006897Y014662D01*
X006897Y014504D02*
X007334Y014504D01*
X006897Y014821D02*
X009177Y014821D01*
X009177Y014979D02*
X006897Y014979D01*
X007980Y014504D02*
X008967Y014504D01*
X009617Y014821D02*
X010187Y014821D01*
X010028Y014979D02*
X009617Y014979D01*
X009617Y015138D02*
X009870Y015138D01*
X009777Y015296D02*
X009617Y015296D01*
X009617Y015455D02*
X009777Y015455D01*
X009777Y015613D02*
X009617Y015613D01*
X009617Y015772D02*
X009777Y015772D01*
X009777Y015930D02*
X009617Y015930D01*
X009707Y016089D02*
X009777Y016089D01*
X009777Y016247D02*
X009735Y016247D01*
X009777Y016406D02*
X009686Y016406D01*
X010217Y016406D02*
X010391Y016406D01*
X010514Y016282D02*
X010257Y016540D01*
X010257Y016905D01*
X010514Y017162D01*
X010879Y017162D01*
X011137Y016905D01*
X011137Y016540D01*
X010879Y016282D01*
X010514Y016282D01*
X010498Y016202D02*
X010217Y015921D01*
X010217Y015742D01*
X010677Y015742D01*
X010677Y015702D01*
X010717Y015702D01*
X010717Y015742D01*
X011177Y015742D01*
X011177Y015921D01*
X010895Y016202D01*
X010717Y016202D01*
X010717Y015742D01*
X010677Y015742D01*
X010677Y016202D01*
X010498Y016202D01*
X010384Y016089D02*
X010217Y016089D01*
X010217Y016247D02*
X012910Y016247D01*
X012879Y016282D02*
X013137Y016540D01*
X013137Y016905D01*
X012917Y017125D01*
X012917Y017294D01*
X012788Y017422D01*
X012548Y017662D01*
X010778Y017662D01*
X008553Y019887D01*
X008080Y019887D01*
X008060Y019936D01*
X007926Y020070D01*
X007752Y020142D01*
X007563Y020142D01*
X007388Y020070D01*
X007255Y019936D01*
X007183Y019762D01*
X007183Y019573D01*
X007255Y019398D01*
X007388Y019265D01*
X007563Y019193D01*
X007752Y019193D01*
X007926Y019265D01*
X008060Y019398D01*
X008080Y019447D01*
X008371Y019447D01*
X010467Y017351D01*
X010595Y017222D01*
X012365Y017222D01*
X012470Y017118D01*
X012257Y016905D01*
X012257Y016540D01*
X012514Y016282D01*
X012879Y016282D01*
X013002Y016406D02*
X013069Y016406D01*
X013137Y016564D02*
X013227Y016564D01*
X013137Y016723D02*
X014992Y016723D01*
X014942Y016881D02*
X013137Y016881D01*
X013001Y017040D02*
X014875Y017040D01*
X014875Y017198D02*
X012917Y017198D01*
X012853Y017357D02*
X014875Y017357D01*
X014893Y017515D02*
X012695Y017515D01*
X012457Y017442D02*
X012697Y017202D01*
X012697Y016722D01*
X012391Y016406D02*
X012002Y016406D01*
X011879Y016282D02*
X012137Y016540D01*
X012137Y016905D01*
X011879Y017162D01*
X011514Y017162D01*
X011257Y016905D01*
X011257Y016540D01*
X011514Y016282D01*
X011879Y016282D01*
X011879Y016162D02*
X011514Y016162D01*
X011257Y015905D01*
X011257Y015540D01*
X011514Y015282D01*
X011879Y015282D01*
X012137Y015540D01*
X012137Y015905D01*
X011879Y016162D01*
X011952Y016089D02*
X012441Y016089D01*
X012282Y015930D02*
X012111Y015930D01*
X012137Y015772D02*
X012257Y015772D01*
X012257Y015613D02*
X012137Y015613D01*
X012051Y015455D02*
X012342Y015455D01*
X012477Y015296D02*
X011893Y015296D01*
X011500Y015296D02*
X010949Y015296D01*
X010895Y015242D02*
X011177Y015524D01*
X011177Y015702D01*
X010717Y015702D01*
X010717Y015242D01*
X010895Y015242D01*
X010717Y015296D02*
X010677Y015296D01*
X010677Y015242D02*
X010677Y015702D01*
X010217Y015702D01*
X010217Y015524D01*
X010498Y015242D01*
X010677Y015242D01*
X010677Y015455D02*
X010717Y015455D01*
X010717Y015613D02*
X010677Y015613D01*
X010677Y015772D02*
X010717Y015772D01*
X010717Y015930D02*
X010677Y015930D01*
X010677Y016089D02*
X010717Y016089D01*
X011009Y016089D02*
X011441Y016089D01*
X011282Y015930D02*
X011167Y015930D01*
X011177Y015772D02*
X011257Y015772D01*
X011257Y015613D02*
X011177Y015613D01*
X011108Y015455D02*
X011342Y015455D01*
X010444Y015296D02*
X010334Y015296D01*
X010285Y015455D02*
X010217Y015455D01*
X010217Y015613D02*
X010217Y015613D01*
X010217Y015772D02*
X010217Y015772D01*
X010217Y015930D02*
X010226Y015930D01*
X010217Y016564D02*
X010257Y016564D01*
X010257Y016723D02*
X010217Y016723D01*
X010217Y016881D02*
X010257Y016881D01*
X010217Y017040D02*
X010392Y017040D01*
X010217Y017198D02*
X012389Y017198D01*
X012392Y017040D02*
X012001Y017040D01*
X012137Y016881D02*
X012257Y016881D01*
X012257Y016723D02*
X012137Y016723D01*
X012137Y016564D02*
X012257Y016564D01*
X011391Y016406D02*
X011002Y016406D01*
X011137Y016564D02*
X011257Y016564D01*
X011257Y016723D02*
X011137Y016723D01*
X011137Y016881D02*
X011257Y016881D01*
X011392Y017040D02*
X011001Y017040D01*
X010687Y017442D02*
X012457Y017442D01*
X013374Y016089D02*
X014285Y016089D01*
X014305Y016109D02*
X014210Y016014D01*
X014158Y015890D01*
X014158Y015755D01*
X014210Y015631D01*
X014277Y015564D01*
X014277Y014281D01*
X014210Y014214D01*
X014158Y014090D01*
X014158Y013955D01*
X014210Y013831D01*
X014305Y013736D01*
X014429Y013684D01*
X014564Y013684D01*
X014688Y013736D01*
X014783Y013831D01*
X014835Y013955D01*
X014835Y014090D01*
X014783Y014214D01*
X014717Y014281D01*
X014717Y015564D01*
X014783Y015631D01*
X014835Y015755D01*
X014835Y015890D01*
X014783Y016014D01*
X014688Y016109D01*
X014564Y016161D01*
X014429Y016161D01*
X014305Y016109D01*
X014175Y015930D02*
X013216Y015930D01*
X013137Y015772D02*
X014158Y015772D01*
X014227Y015613D02*
X013137Y015613D01*
X013051Y015455D02*
X014277Y015455D01*
X014277Y015296D02*
X012917Y015296D01*
X012992Y015138D02*
X014277Y015138D01*
X014277Y014979D02*
X013151Y014979D01*
X013309Y014821D02*
X014277Y014821D01*
X014277Y014662D02*
X013468Y014662D01*
X013617Y014504D02*
X014277Y014504D01*
X014277Y014345D02*
X013617Y014345D01*
X013617Y014187D02*
X014199Y014187D01*
X014158Y014028D02*
X013617Y014028D01*
X013617Y013870D02*
X014194Y013870D01*
X014364Y013711D02*
X013617Y013711D01*
X013677Y013553D02*
X014827Y013553D01*
X014986Y013711D02*
X014629Y013711D01*
X014799Y013870D02*
X015097Y013870D01*
X015097Y014028D02*
X014835Y014028D01*
X014794Y014187D02*
X015097Y014187D01*
X015097Y014345D02*
X014717Y014345D01*
X014717Y014504D02*
X015097Y014504D01*
X015097Y014662D02*
X014717Y014662D01*
X014717Y014821D02*
X015097Y014821D01*
X015254Y014979D02*
X014717Y014979D01*
X014717Y015138D02*
X016712Y015138D01*
X016871Y015296D02*
X014717Y015296D01*
X014717Y015455D02*
X014875Y015455D01*
X014875Y015613D02*
X014766Y015613D01*
X014835Y015772D02*
X014875Y015772D01*
X014875Y015930D02*
X014818Y015930D01*
X014708Y016089D02*
X014992Y016089D01*
X015212Y016422D02*
X015212Y015722D01*
X015432Y016089D02*
X017097Y016089D01*
X017097Y016247D02*
X015432Y016247D01*
X015432Y016406D02*
X017097Y016406D01*
X017097Y016564D02*
X015432Y016564D01*
X015432Y016723D02*
X017097Y016723D01*
X017497Y016723D02*
X018097Y016723D01*
X018097Y016881D02*
X017497Y016881D01*
X017497Y017040D02*
X018097Y017040D01*
X018097Y017198D02*
X017497Y017198D01*
X017497Y017357D02*
X018097Y017357D01*
X018097Y017515D02*
X017497Y017515D01*
X017445Y017674D02*
X018097Y017674D01*
X018097Y017832D02*
X017287Y017832D01*
X017128Y017991D02*
X018097Y017991D01*
X018097Y018149D02*
X016970Y018149D01*
X016811Y018308D02*
X018097Y018308D01*
X018697Y018308D02*
X018897Y018308D01*
X018897Y018466D02*
X018697Y018466D01*
X018697Y018625D02*
X018897Y018625D01*
X018897Y018783D02*
X018697Y018783D01*
X018697Y018942D02*
X018897Y018942D01*
X018897Y019100D02*
X018697Y019100D01*
X018735Y019259D02*
X018897Y019259D01*
X018897Y019417D02*
X018723Y019417D01*
X018621Y019576D02*
X018897Y019576D01*
X019497Y019576D02*
X019913Y019576D01*
X019913Y019470D02*
X019913Y019702D01*
X019925Y019748D01*
X019949Y019789D01*
X019982Y019822D01*
X020023Y019846D01*
X020069Y019858D01*
X020753Y019858D01*
X020753Y019470D01*
X020753Y019374D01*
X020849Y019374D01*
X020849Y018987D01*
X021534Y018987D01*
X021580Y018999D01*
X021621Y019022D01*
X021654Y019056D01*
X021678Y019097D01*
X021690Y019143D01*
X021690Y019374D01*
X020849Y019374D01*
X020849Y019470D01*
X021690Y019470D01*
X021690Y019702D01*
X021678Y019748D01*
X021654Y019789D01*
X021621Y019822D01*
X021580Y019846D01*
X021534Y019858D01*
X020849Y019858D01*
X020849Y019470D01*
X020753Y019470D01*
X019913Y019470D01*
X019913Y019374D02*
X019913Y019143D01*
X019925Y019097D01*
X019949Y019056D01*
X019982Y019022D01*
X020023Y018999D01*
X020069Y018987D01*
X020753Y018987D01*
X020753Y019374D01*
X019913Y019374D01*
X019913Y019259D02*
X019497Y019259D01*
X019497Y019417D02*
X020753Y019417D01*
X020849Y019417D02*
X023053Y019417D01*
X023053Y019259D02*
X021690Y019259D01*
X021679Y019100D02*
X023061Y019100D01*
X023053Y019576D02*
X021690Y019576D01*
X021681Y019734D02*
X023053Y019734D01*
X023417Y019893D02*
X019497Y019893D01*
X019497Y020051D02*
X023417Y020051D01*
X023417Y020210D02*
X019497Y020210D01*
X019497Y020368D02*
X023417Y020368D01*
X023417Y020527D02*
X019497Y020527D01*
X019497Y020685D02*
X023417Y020685D01*
X023417Y020844D02*
X019497Y020844D01*
X019497Y021002D02*
X023417Y021002D01*
X023417Y021161D02*
X019497Y021161D01*
X019497Y021319D02*
X023417Y021319D01*
X023417Y021478D02*
X019457Y021478D01*
X019307Y021636D02*
X023417Y021636D01*
X023417Y021795D02*
X019148Y021795D01*
X018990Y021953D02*
X023417Y021953D01*
X023417Y022112D02*
X018831Y022112D01*
X018673Y022270D02*
X023417Y022270D01*
X024397Y022270D02*
X027663Y022270D01*
X027821Y022112D02*
X024397Y022112D01*
X024397Y021953D02*
X027980Y021953D01*
X028138Y021795D02*
X024397Y021795D01*
X024397Y021636D02*
X028297Y021636D01*
X028322Y021611D02*
X028322Y021417D01*
X028404Y021335D01*
X028699Y021335D01*
X028706Y021332D01*
X030090Y021332D01*
X030090Y020991D01*
X030057Y020910D01*
X030057Y020775D01*
X029986Y020705D01*
X029193Y020705D01*
X029189Y020710D01*
X028404Y020710D01*
X028322Y020628D01*
X028322Y020350D01*
X028307Y020313D01*
X028307Y018105D01*
X028174Y018238D01*
X027994Y018312D01*
X026999Y018312D01*
X025612Y019700D01*
X025474Y019838D01*
X025294Y019912D01*
X024397Y019912D01*
X024397Y023387D01*
X024668Y023387D01*
X024750Y023469D01*
X024750Y024096D01*
X024668Y024178D01*
X023135Y024178D01*
X023053Y024096D01*
X023053Y023469D01*
X023135Y023387D01*
X023417Y023387D01*
X023417Y023333D01*
X018879Y023333D01*
X017874Y024338D01*
X017694Y024412D01*
X016199Y024412D01*
X016019Y024338D01*
X015881Y024200D01*
X015494Y023812D01*
X015467Y023812D01*
X015485Y023830D01*
X015537Y023955D01*
X015537Y024090D01*
X015485Y024215D01*
X015389Y024311D01*
X015264Y024362D01*
X013652Y024362D01*
X013652Y024583D01*
X020307Y024583D01*
X020307Y024178D01*
X020035Y024178D01*
X019953Y024096D01*
X019953Y023469D01*
X020035Y023387D01*
X021568Y023387D01*
X021650Y023469D01*
X021650Y024096D01*
X021568Y024178D01*
X021287Y024178D01*
X021287Y024583D01*
X025350Y024583D01*
X028322Y021611D01*
X028322Y021478D02*
X024397Y021478D01*
X024397Y021319D02*
X030090Y021319D01*
X030090Y021161D02*
X024397Y021161D01*
X024397Y021002D02*
X030090Y021002D01*
X030057Y020844D02*
X024397Y020844D01*
X024397Y020685D02*
X028380Y020685D01*
X028322Y020527D02*
X024397Y020527D01*
X024397Y020368D02*
X028322Y020368D01*
X028307Y020210D02*
X024397Y020210D01*
X024397Y020051D02*
X028307Y020051D01*
X028307Y019893D02*
X025341Y019893D01*
X025577Y019734D02*
X028307Y019734D01*
X028307Y019576D02*
X025736Y019576D01*
X025894Y019417D02*
X028307Y019417D01*
X028307Y019259D02*
X026053Y019259D01*
X026211Y019100D02*
X028307Y019100D01*
X028307Y018942D02*
X026370Y018942D01*
X026528Y018783D02*
X028307Y018783D01*
X028307Y018625D02*
X026687Y018625D01*
X026845Y018466D02*
X028307Y018466D01*
X028307Y018308D02*
X028005Y018308D01*
X028262Y018149D02*
X028307Y018149D01*
X028282Y017515D02*
X028307Y017515D01*
X028307Y017357D02*
X028053Y017357D01*
X028307Y017198D02*
X023797Y017198D01*
X023797Y017357D02*
X026640Y017357D01*
X026411Y017515D02*
X023728Y017515D01*
X023569Y017674D02*
X026252Y017674D01*
X026094Y017832D02*
X023411Y017832D01*
X023196Y017198D02*
X022740Y017198D01*
X022785Y017040D02*
X023158Y017040D01*
X023189Y016881D02*
X022754Y016881D01*
X022978Y016723D02*
X023015Y016723D01*
X023015Y016564D02*
X022978Y016564D01*
X023393Y016564D02*
X028307Y016564D01*
X028307Y016406D02*
X023393Y016406D01*
X023393Y016247D02*
X028307Y016247D01*
X028307Y016089D02*
X023307Y016089D01*
X023353Y015930D02*
X028307Y015930D01*
X028307Y015772D02*
X024025Y015772D01*
X024125Y015613D02*
X028307Y015613D01*
X028307Y015455D02*
X024135Y015455D01*
X024049Y015296D02*
X028307Y015296D01*
X028307Y015138D02*
X027318Y015138D01*
X027264Y015161D02*
X027129Y015161D01*
X027005Y015109D01*
X026938Y015042D01*
X025955Y015042D01*
X025888Y015109D01*
X025764Y015161D01*
X025629Y015161D01*
X025505Y015109D01*
X025410Y015014D01*
X025358Y014890D01*
X025358Y014755D01*
X025410Y014631D01*
X025505Y014536D01*
X025629Y014484D01*
X025764Y014484D01*
X025888Y014536D01*
X025955Y014602D01*
X026938Y014602D01*
X027005Y014536D01*
X027129Y014484D01*
X027264Y014484D01*
X027388Y014536D01*
X027483Y014631D01*
X027535Y014755D01*
X027535Y014890D01*
X027483Y015014D01*
X027388Y015109D01*
X027264Y015161D01*
X027075Y015138D02*
X025818Y015138D01*
X025575Y015138D02*
X024017Y015138D01*
X024017Y014979D02*
X025396Y014979D01*
X025358Y014821D02*
X024017Y014821D01*
X024017Y014662D02*
X025397Y014662D01*
X025582Y014504D02*
X024017Y014504D01*
X024017Y014345D02*
X028307Y014345D01*
X028307Y014187D02*
X024017Y014187D01*
X024069Y014028D02*
X028307Y014028D01*
X028307Y013870D02*
X024135Y013870D01*
X024117Y013711D02*
X028307Y013711D01*
X028322Y013553D02*
X024005Y013553D01*
X023797Y013822D02*
X023797Y014922D01*
X023797Y015522D01*
X023544Y015296D02*
X022667Y015296D01*
X022667Y015455D02*
X022718Y015455D01*
X022931Y015722D02*
X022447Y015722D01*
X022447Y013272D01*
X022762Y013394D02*
X028322Y013394D01*
X028403Y013236D02*
X022785Y013236D01*
X022730Y013077D02*
X030088Y013077D01*
X030090Y013236D02*
X029190Y013236D01*
X029155Y012650D02*
X028877Y012650D01*
X028877Y012195D01*
X029311Y012195D01*
X029311Y012493D01*
X029299Y012539D01*
X029275Y012580D01*
X029242Y012614D01*
X029201Y012637D01*
X029155Y012650D01*
X029253Y012602D02*
X030070Y012602D01*
X030090Y012443D02*
X029311Y012443D01*
X029311Y012285D02*
X030090Y012285D01*
X030090Y012126D02*
X028877Y012126D01*
X028877Y012195D02*
X028877Y012035D01*
X029311Y012035D01*
X029311Y011737D01*
X029299Y011692D01*
X029275Y011651D01*
X030090Y011651D01*
X030090Y011809D02*
X029311Y011809D01*
X029311Y011968D02*
X030090Y011968D01*
X030090Y011492D02*
X021083Y011492D01*
X020910Y011492D02*
X014997Y011492D01*
X014997Y011334D02*
X030090Y011334D01*
X030090Y011175D02*
X021222Y011175D01*
X021188Y011209D02*
X021064Y011261D01*
X020929Y011261D01*
X020805Y011209D01*
X020710Y011114D01*
X020658Y010990D01*
X020658Y010855D01*
X020676Y010812D01*
X020624Y010812D01*
X020542Y010730D01*
X020542Y010716D01*
X020492Y010716D01*
X020492Y010948D01*
X020410Y011030D01*
X019624Y011030D01*
X019542Y010948D01*
X019542Y010124D01*
X019624Y010041D01*
X020410Y010041D01*
X020484Y010116D01*
X020542Y010116D01*
X020542Y010102D01*
X020621Y010022D01*
X020542Y009943D01*
X020542Y009315D01*
X020624Y009233D01*
X020676Y009233D01*
X020658Y009190D01*
X020658Y009055D01*
X020710Y008931D01*
X020805Y008836D01*
X020929Y008784D01*
X021064Y008784D01*
X021188Y008836D01*
X021283Y008931D01*
X021335Y009055D01*
X021335Y009190D01*
X021317Y009233D01*
X021369Y009233D01*
X021451Y009315D01*
X021451Y009943D01*
X021372Y010022D01*
X021451Y010102D01*
X021451Y010730D01*
X021369Y010812D01*
X021317Y010812D01*
X021335Y010855D01*
X021335Y010990D01*
X021283Y011114D01*
X021188Y011209D01*
X021323Y011017D02*
X030090Y011017D01*
X030090Y010858D02*
X021335Y010858D01*
X021451Y010700D02*
X030090Y010700D01*
X030090Y010541D02*
X021451Y010541D01*
X021451Y010383D02*
X030090Y010383D01*
X030090Y010224D02*
X021451Y010224D01*
X021415Y010066D02*
X030090Y010066D01*
X030090Y009907D02*
X021451Y009907D01*
X021451Y009749D02*
X030090Y009749D01*
X030053Y009590D02*
X021451Y009590D01*
X021451Y009432D02*
X029895Y009432D01*
X029736Y009273D02*
X021410Y009273D01*
X021335Y009115D02*
X029578Y009115D01*
X029419Y008956D02*
X021294Y008956D01*
X021097Y008798D02*
X029261Y008798D01*
X029102Y008639D02*
X017711Y008639D01*
X017870Y008481D02*
X028944Y008481D01*
X028785Y008322D02*
X018028Y008322D01*
X018187Y008164D02*
X028627Y008164D01*
X028468Y008005D02*
X018345Y008005D01*
X018504Y007847D02*
X028310Y007847D01*
X028151Y007688D02*
X018662Y007688D01*
X018821Y007530D02*
X027993Y007530D01*
X027834Y007371D02*
X018979Y007371D01*
X019138Y007213D02*
X027676Y007213D01*
X027517Y007054D02*
X019296Y007054D01*
X019455Y006896D02*
X027359Y006896D01*
X027947Y006262D02*
X030090Y006262D01*
X030090Y006420D02*
X028106Y006420D01*
X028264Y006579D02*
X030090Y006579D01*
X030090Y006737D02*
X028423Y006737D01*
X028581Y006896D02*
X030090Y006896D01*
X030090Y007054D02*
X028740Y007054D01*
X028898Y007213D02*
X030090Y007213D01*
X030090Y007371D02*
X029057Y007371D01*
X029215Y007530D02*
X030090Y007530D01*
X030090Y007688D02*
X029374Y007688D01*
X029532Y007847D02*
X030090Y007847D01*
X030090Y008005D02*
X029691Y008005D01*
X029849Y008164D02*
X030090Y008164D01*
X030090Y008322D02*
X030008Y008322D01*
X030393Y008322D02*
X048110Y008322D01*
X048110Y008164D02*
X030393Y008164D01*
X030393Y008005D02*
X048110Y008005D01*
X047977Y007847D02*
X030393Y007847D01*
X030393Y007688D02*
X047818Y007688D01*
X047660Y007530D02*
X030393Y007530D01*
X030393Y007371D02*
X047501Y007371D01*
X047343Y007213D02*
X030393Y007213D01*
X030393Y007054D02*
X047184Y007054D01*
X047026Y006896D02*
X030393Y006896D01*
X030393Y006737D02*
X046867Y006737D01*
X046709Y006579D02*
X030393Y006579D01*
X030393Y006420D02*
X046550Y006420D01*
X046392Y006262D02*
X030393Y006262D01*
X030393Y006103D02*
X046233Y006103D01*
X046507Y005786D02*
X049218Y005786D01*
X049256Y005765D02*
X049539Y005689D01*
X049831Y005689D01*
X050113Y005765D01*
X050366Y005911D01*
X050573Y006117D01*
X050719Y006370D01*
X050795Y006653D01*
X050795Y006945D01*
X050719Y007227D01*
X050573Y007480D01*
X050366Y007687D01*
X050113Y007833D01*
X049831Y007909D01*
X049539Y007909D01*
X049256Y007833D01*
X049003Y007687D01*
X048797Y007480D01*
X048650Y007227D01*
X048575Y006945D01*
X048575Y006653D01*
X048650Y006370D01*
X048797Y006117D01*
X049003Y005911D01*
X049256Y005765D01*
X048969Y005945D02*
X046665Y005945D01*
X046824Y006103D02*
X048810Y006103D01*
X048713Y006262D02*
X046982Y006262D01*
X047141Y006420D02*
X048637Y006420D01*
X048595Y006579D02*
X047299Y006579D01*
X047458Y006737D02*
X048575Y006737D01*
X048575Y006896D02*
X047616Y006896D01*
X047775Y007054D02*
X048604Y007054D01*
X048647Y007213D02*
X047933Y007213D01*
X048092Y007371D02*
X048734Y007371D01*
X048846Y007530D02*
X048250Y007530D01*
X048409Y007688D02*
X049006Y007688D01*
X049308Y007847D02*
X048504Y007847D01*
X048504Y007783D02*
X048504Y008381D01*
X049555Y008381D01*
X049735Y008456D01*
X049873Y008594D01*
X049947Y008774D01*
X049947Y008969D01*
X049873Y009149D01*
X049735Y009287D01*
X049555Y009361D01*
X048671Y009361D01*
X048504Y009529D01*
X048504Y014323D01*
X050437Y014323D01*
X050437Y011276D01*
X049900Y010739D01*
X049360Y010739D01*
X049180Y010665D01*
X049042Y010527D01*
X048967Y010347D01*
X048967Y010152D01*
X049042Y009972D01*
X049180Y009834D01*
X049360Y009759D01*
X050200Y009759D01*
X050380Y009834D01*
X051204Y010658D01*
X051342Y010795D01*
X051417Y010975D01*
X051417Y014940D01*
X051417Y020134D01*
X051288Y020263D01*
X051288Y020263D01*
X050288Y021263D01*
X048504Y021263D01*
X048504Y027862D01*
X046338Y030027D01*
X029212Y030027D01*
X029212Y031122D01*
X051961Y031122D01*
X051961Y004523D01*
X029212Y004523D01*
X029212Y005618D01*
X046338Y005618D01*
X048504Y007783D01*
X048504Y008005D02*
X051961Y008005D01*
X051961Y007847D02*
X050062Y007847D01*
X050364Y007688D02*
X051961Y007688D01*
X051961Y007530D02*
X050523Y007530D01*
X050636Y007371D02*
X051961Y007371D01*
X051961Y007213D02*
X050723Y007213D01*
X050765Y007054D02*
X051961Y007054D01*
X051961Y006896D02*
X050795Y006896D01*
X050795Y006737D02*
X051961Y006737D01*
X051961Y006579D02*
X050775Y006579D01*
X050732Y006420D02*
X051961Y006420D01*
X051961Y006262D02*
X050656Y006262D01*
X050559Y006103D02*
X051961Y006103D01*
X051961Y005945D02*
X050400Y005945D01*
X050151Y005786D02*
X051961Y005786D01*
X051961Y005628D02*
X046348Y005628D01*
X048504Y008164D02*
X051961Y008164D01*
X051961Y008322D02*
X048504Y008322D01*
X048110Y008481D02*
X030393Y008481D01*
X030393Y008639D02*
X048007Y008639D01*
X047849Y008798D02*
X030483Y008798D01*
X030642Y008956D02*
X047690Y008956D01*
X047532Y009115D02*
X030800Y009115D01*
X030959Y009273D02*
X047373Y009273D01*
X047254Y009432D02*
X031117Y009432D01*
X031276Y009590D02*
X047207Y009590D01*
X047207Y009749D02*
X031434Y009749D01*
X031593Y009907D02*
X047207Y009907D01*
X047207Y010066D02*
X031751Y010066D01*
X031910Y010224D02*
X047207Y010224D01*
X047207Y010383D02*
X032068Y010383D01*
X032227Y010541D02*
X047207Y010541D01*
X048504Y010541D02*
X049056Y010541D01*
X048982Y010383D02*
X048504Y010383D01*
X048504Y010224D02*
X048967Y010224D01*
X049003Y010066D02*
X048504Y010066D01*
X048504Y009907D02*
X049106Y009907D01*
X048504Y009749D02*
X051961Y009749D01*
X051961Y009907D02*
X050454Y009907D01*
X050612Y010066D02*
X051961Y010066D01*
X051961Y010224D02*
X050771Y010224D01*
X050929Y010383D02*
X051961Y010383D01*
X051961Y010541D02*
X051088Y010541D01*
X051246Y010700D02*
X051961Y010700D01*
X051961Y010858D02*
X051368Y010858D01*
X051417Y011017D02*
X051961Y011017D01*
X051961Y011175D02*
X051417Y011175D01*
X051417Y011334D02*
X051961Y011334D01*
X051961Y011492D02*
X051417Y011492D01*
X051417Y011651D02*
X051961Y011651D01*
X051961Y011809D02*
X051417Y011809D01*
X051417Y011968D02*
X051961Y011968D01*
X051961Y012126D02*
X051417Y012126D01*
X051417Y012285D02*
X051961Y012285D01*
X051961Y012443D02*
X051417Y012443D01*
X051417Y012602D02*
X051961Y012602D01*
X051961Y012760D02*
X051417Y012760D01*
X051417Y012919D02*
X051961Y012919D01*
X051961Y013077D02*
X051417Y013077D01*
X051417Y013236D02*
X051961Y013236D01*
X051961Y013394D02*
X051417Y013394D01*
X051417Y013553D02*
X051961Y013553D01*
X051961Y013711D02*
X051417Y013711D01*
X051417Y013870D02*
X051961Y013870D01*
X051961Y014028D02*
X051417Y014028D01*
X051417Y014187D02*
X051961Y014187D01*
X051961Y014345D02*
X051417Y014345D01*
X051417Y014504D02*
X051961Y014504D01*
X051961Y014662D02*
X051417Y014662D01*
X051417Y014821D02*
X051961Y014821D01*
X051961Y014979D02*
X051417Y014979D01*
X051417Y015138D02*
X051961Y015138D01*
X051961Y015296D02*
X051417Y015296D01*
X051417Y015455D02*
X051961Y015455D01*
X051961Y015613D02*
X051417Y015613D01*
X051417Y015772D02*
X051961Y015772D01*
X051961Y015930D02*
X051417Y015930D01*
X051417Y016089D02*
X051961Y016089D01*
X051961Y016247D02*
X051417Y016247D01*
X051417Y016406D02*
X051961Y016406D01*
X051961Y016564D02*
X051417Y016564D01*
X051417Y016723D02*
X051961Y016723D01*
X051961Y016881D02*
X051417Y016881D01*
X051417Y017040D02*
X051961Y017040D01*
X051961Y017198D02*
X051417Y017198D01*
X051417Y017357D02*
X051961Y017357D01*
X051961Y017515D02*
X051417Y017515D01*
X051417Y017674D02*
X051961Y017674D01*
X051961Y017832D02*
X051417Y017832D01*
X051417Y017991D02*
X051961Y017991D01*
X051961Y018149D02*
X051417Y018149D01*
X051417Y018308D02*
X051961Y018308D01*
X051961Y018466D02*
X051417Y018466D01*
X051417Y018625D02*
X051961Y018625D01*
X051961Y018783D02*
X051417Y018783D01*
X051417Y018942D02*
X051961Y018942D01*
X051961Y019100D02*
X051417Y019100D01*
X051417Y019259D02*
X051961Y019259D01*
X051961Y019417D02*
X051417Y019417D01*
X051417Y019576D02*
X051961Y019576D01*
X051961Y019734D02*
X051417Y019734D01*
X051417Y019893D02*
X051961Y019893D01*
X051961Y020051D02*
X051417Y020051D01*
X051341Y020210D02*
X051961Y020210D01*
X051961Y020368D02*
X051182Y020368D01*
X051029Y020210D02*
X050879Y020210D01*
X050876Y020217D02*
X050675Y020418D01*
X050412Y020527D01*
X050712Y020527D01*
X050725Y020368D02*
X050871Y020368D01*
X050876Y020217D02*
X050985Y019953D01*
X050985Y019668D01*
X050876Y019405D01*
X050675Y019204D01*
X050412Y019095D01*
X050127Y019095D01*
X049863Y019204D01*
X049777Y019290D01*
X049691Y019204D01*
X049427Y019095D01*
X049142Y019095D01*
X048879Y019204D01*
X048678Y019405D01*
X048569Y019668D01*
X048569Y019953D01*
X048678Y020217D01*
X048879Y020418D01*
X049142Y020527D01*
X046181Y020527D01*
X046028Y020685D02*
X035687Y020685D01*
X035687Y020527D02*
X045869Y020527D01*
X046022Y020368D02*
X046985Y020368D01*
X046953Y020355D02*
X047189Y020453D01*
X047444Y020453D01*
X047680Y020355D01*
X047861Y020175D01*
X047958Y019939D01*
X047958Y019683D01*
X047861Y019447D01*
X047680Y019267D01*
X047568Y019220D01*
X047680Y019174D01*
X047861Y018993D01*
X047958Y018758D01*
X047958Y018502D01*
X047874Y018298D01*
X047924Y018248D01*
X048033Y017985D01*
X048033Y017700D01*
X047924Y017437D01*
X047874Y017387D01*
X047958Y017183D01*
X047958Y016927D01*
X047861Y016691D01*
X047680Y016511D01*
X047568Y016464D01*
X047680Y016418D01*
X047861Y016238D01*
X047958Y016002D01*
X047958Y015746D01*
X047861Y015510D01*
X047680Y015330D01*
X047444Y015232D01*
X047189Y015232D01*
X046953Y015330D01*
X046772Y015510D01*
X046674Y015746D01*
X046674Y016002D01*
X046772Y016238D01*
X046953Y016418D01*
X047065Y016464D01*
X046953Y016511D01*
X046772Y016691D01*
X046674Y016927D01*
X046674Y017183D01*
X046759Y017387D01*
X046709Y017437D01*
X046600Y017700D01*
X046600Y017985D01*
X046709Y018248D01*
X046759Y018298D01*
X046674Y018502D01*
X046674Y018758D01*
X046772Y018993D01*
X046953Y019174D01*
X047065Y019220D01*
X046953Y019267D01*
X046772Y019447D01*
X046674Y019683D01*
X046674Y019939D01*
X046772Y020175D01*
X046953Y020355D01*
X046807Y020210D02*
X045864Y020210D01*
X045711Y020368D02*
X035687Y020368D01*
X035687Y020354D02*
X035687Y021290D01*
X035605Y021372D01*
X033989Y021372D01*
X033929Y021312D01*
X030699Y021312D01*
X030578Y021262D01*
X030409Y021262D01*
X030393Y021256D01*
X030393Y022389D01*
X030409Y022382D01*
X030578Y022382D01*
X030699Y022332D01*
X033929Y022332D01*
X033989Y022272D01*
X035605Y022272D01*
X035687Y022354D01*
X035687Y023290D01*
X035605Y023372D01*
X033989Y023372D01*
X033929Y023312D01*
X030699Y023312D01*
X030578Y023262D01*
X030409Y023262D01*
X030393Y023256D01*
X030393Y029633D01*
X046141Y029633D01*
X048110Y027665D01*
X048110Y021263D01*
X046605Y021263D01*
X045477Y020134D01*
X045477Y018610D01*
X030393Y018610D01*
X030393Y019769D01*
X030467Y019800D01*
X030605Y019938D01*
X030999Y020332D01*
X033929Y020332D01*
X033989Y020272D01*
X035605Y020272D01*
X035687Y020354D01*
X035687Y020844D02*
X046186Y020844D01*
X046339Y020685D02*
X050554Y020685D01*
X050412Y020527D02*
X050127Y020527D01*
X049863Y020418D01*
X049777Y020332D01*
X049691Y020418D01*
X049427Y020527D01*
X049142Y020527D01*
X049428Y020527D02*
X050126Y020527D01*
X049814Y020368D02*
X049740Y020368D01*
X050237Y021002D02*
X046656Y021002D01*
X046697Y021043D02*
X050197Y021043D01*
X051197Y020043D01*
X051197Y014543D01*
X046697Y014543D01*
X045697Y015543D01*
X045697Y020043D01*
X046697Y021043D01*
X046503Y021161D02*
X035687Y021161D01*
X035687Y021002D02*
X046345Y021002D01*
X046498Y020844D02*
X050395Y020844D01*
X050548Y021002D02*
X051961Y021002D01*
X051961Y020844D02*
X050707Y020844D01*
X050865Y020685D02*
X051961Y020685D01*
X051961Y020527D02*
X051024Y020527D01*
X050945Y020051D02*
X051188Y020051D01*
X051197Y019893D02*
X050985Y019893D01*
X050985Y019734D02*
X051197Y019734D01*
X051197Y019576D02*
X050947Y019576D01*
X050881Y019417D02*
X051197Y019417D01*
X051197Y019259D02*
X050730Y019259D01*
X050425Y019100D02*
X051197Y019100D01*
X051197Y018942D02*
X047882Y018942D01*
X047948Y018783D02*
X051197Y018783D01*
X051197Y018625D02*
X047958Y018625D01*
X047944Y018466D02*
X049009Y018466D01*
X048983Y018455D02*
X048905Y018411D01*
X048834Y018356D01*
X048771Y018293D01*
X048717Y018222D01*
X048672Y018145D01*
X048638Y018062D01*
X048615Y017976D01*
X048608Y017922D01*
X049205Y017922D01*
X049205Y017762D01*
X049365Y017762D01*
X049365Y017165D01*
X049418Y017172D01*
X049505Y017195D01*
X049587Y017229D01*
X049665Y017274D01*
X049735Y017329D01*
X049799Y017392D01*
X049853Y017463D01*
X049898Y017540D01*
X049932Y017623D01*
X049955Y017709D01*
X049962Y017762D01*
X049365Y017762D01*
X049365Y017922D01*
X049962Y017922D01*
X049955Y017976D01*
X049932Y018062D01*
X049898Y018145D01*
X049853Y018222D01*
X049799Y018293D01*
X049735Y018356D01*
X049665Y018411D01*
X049587Y018455D01*
X049505Y018490D01*
X049418Y018513D01*
X049365Y018520D01*
X049365Y017922D01*
X049205Y017922D01*
X049205Y018520D01*
X049152Y018513D01*
X049065Y018490D01*
X048983Y018455D01*
X049205Y018466D02*
X049365Y018466D01*
X049365Y018308D02*
X049205Y018308D01*
X049205Y018149D02*
X049365Y018149D01*
X049365Y017991D02*
X049205Y017991D01*
X049205Y017832D02*
X048033Y017832D01*
X048022Y017674D02*
X048624Y017674D01*
X048615Y017709D02*
X048638Y017623D01*
X048672Y017540D01*
X048717Y017463D01*
X048771Y017392D01*
X048834Y017329D01*
X048905Y017274D01*
X048983Y017229D01*
X049065Y017195D01*
X049152Y017172D01*
X049205Y017165D01*
X049205Y017762D01*
X048608Y017762D01*
X048615Y017709D01*
X048686Y017515D02*
X047956Y017515D01*
X047886Y017357D02*
X048806Y017357D01*
X049058Y017198D02*
X047952Y017198D01*
X047958Y017040D02*
X051197Y017040D01*
X051197Y017198D02*
X049512Y017198D01*
X049365Y017198D02*
X049205Y017198D01*
X049205Y017357D02*
X049365Y017357D01*
X049365Y017515D02*
X049205Y017515D01*
X049205Y017674D02*
X049365Y017674D01*
X049365Y017832D02*
X051197Y017832D01*
X051197Y017674D02*
X049946Y017674D01*
X049884Y017515D02*
X051197Y017515D01*
X051197Y017357D02*
X049764Y017357D01*
X049951Y017991D02*
X051197Y017991D01*
X051197Y018149D02*
X049895Y018149D01*
X049784Y018308D02*
X051197Y018308D01*
X051197Y018466D02*
X049560Y018466D01*
X049441Y019100D02*
X050113Y019100D01*
X049808Y019259D02*
X049746Y019259D01*
X049129Y019100D02*
X047754Y019100D01*
X047661Y019259D02*
X048824Y019259D01*
X048673Y019417D02*
X047831Y019417D01*
X047914Y019576D02*
X048607Y019576D01*
X048569Y019734D02*
X047958Y019734D01*
X047958Y019893D02*
X048569Y019893D01*
X048609Y020051D02*
X047912Y020051D01*
X047825Y020210D02*
X048675Y020210D01*
X048829Y020368D02*
X047648Y020368D01*
X046721Y020051D02*
X045705Y020051D01*
X045697Y019893D02*
X046674Y019893D01*
X046674Y019734D02*
X045697Y019734D01*
X045697Y019576D02*
X046719Y019576D01*
X046802Y019417D02*
X045697Y019417D01*
X045697Y019259D02*
X046971Y019259D01*
X046879Y019100D02*
X045697Y019100D01*
X045697Y018942D02*
X046751Y018942D01*
X046685Y018783D02*
X045697Y018783D01*
X045697Y018625D02*
X046674Y018625D01*
X046689Y018466D02*
X045697Y018466D01*
X045697Y018308D02*
X046755Y018308D01*
X046668Y018149D02*
X045697Y018149D01*
X045697Y017991D02*
X046603Y017991D01*
X046600Y017832D02*
X045697Y017832D01*
X045697Y017674D02*
X046611Y017674D01*
X046677Y017515D02*
X045697Y017515D01*
X045697Y017357D02*
X046747Y017357D01*
X046681Y017198D02*
X045697Y017198D01*
X045697Y017040D02*
X046674Y017040D01*
X046693Y016881D02*
X045697Y016881D01*
X045697Y016723D02*
X046759Y016723D01*
X046899Y016564D02*
X045697Y016564D01*
X045697Y016406D02*
X046940Y016406D01*
X046782Y016247D02*
X045697Y016247D01*
X045697Y016089D02*
X046711Y016089D01*
X046674Y015930D02*
X045697Y015930D01*
X045697Y015772D02*
X046674Y015772D01*
X046729Y015613D02*
X045697Y015613D01*
X045785Y015455D02*
X046827Y015455D01*
X047033Y015296D02*
X045943Y015296D01*
X045790Y015138D02*
X035687Y015138D01*
X035681Y015296D02*
X045632Y015296D01*
X045477Y015455D02*
X030393Y015455D01*
X030393Y015613D02*
X045477Y015613D01*
X045477Y015772D02*
X030393Y015772D01*
X030393Y015930D02*
X045477Y015930D01*
X045477Y016089D02*
X030393Y016089D01*
X030393Y016247D02*
X045477Y016247D01*
X045477Y016406D02*
X030393Y016406D01*
X030393Y016564D02*
X045477Y016564D01*
X045477Y016723D02*
X030393Y016723D01*
X030393Y016881D02*
X045477Y016881D01*
X045477Y018625D02*
X030393Y018625D01*
X030393Y018783D02*
X045477Y018783D01*
X045477Y018942D02*
X030393Y018942D01*
X030393Y019100D02*
X045477Y019100D01*
X045477Y019259D02*
X030393Y019259D01*
X030393Y019417D02*
X045477Y019417D01*
X045477Y019576D02*
X030393Y019576D01*
X030393Y019734D02*
X045477Y019734D01*
X045477Y019893D02*
X030560Y019893D01*
X030718Y020051D02*
X045477Y020051D01*
X045552Y020210D02*
X030877Y020210D01*
X030393Y021319D02*
X033936Y021319D01*
X035658Y021319D02*
X048110Y021319D01*
X048110Y021478D02*
X030393Y021478D01*
X030393Y021636D02*
X048110Y021636D01*
X048110Y021795D02*
X030393Y021795D01*
X030393Y021953D02*
X048110Y021953D01*
X048110Y022112D02*
X030393Y022112D01*
X030393Y022270D02*
X048110Y022270D01*
X048110Y022429D02*
X035687Y022429D01*
X035687Y022587D02*
X048110Y022587D01*
X048110Y022746D02*
X035687Y022746D01*
X035687Y022904D02*
X048110Y022904D01*
X048110Y023063D02*
X035687Y023063D01*
X035687Y023221D02*
X048110Y023221D01*
X048110Y023380D02*
X030393Y023380D01*
X030393Y023538D02*
X048110Y023538D01*
X048110Y023697D02*
X030393Y023697D01*
X030393Y023855D02*
X048110Y023855D01*
X048110Y024014D02*
X030393Y024014D01*
X030393Y024172D02*
X048110Y024172D01*
X048110Y024331D02*
X030393Y024331D01*
X030393Y024489D02*
X048110Y024489D01*
X048110Y024648D02*
X030393Y024648D01*
X030393Y024806D02*
X048110Y024806D01*
X048110Y024965D02*
X030393Y024965D01*
X030393Y025123D02*
X048110Y025123D01*
X048110Y025282D02*
X030393Y025282D01*
X030393Y025440D02*
X048110Y025440D01*
X048110Y025599D02*
X030393Y025599D01*
X030393Y025757D02*
X048110Y025757D01*
X048110Y025916D02*
X030393Y025916D01*
X030393Y026074D02*
X048110Y026074D01*
X048110Y026233D02*
X030393Y026233D01*
X030393Y026391D02*
X048110Y026391D01*
X048110Y026550D02*
X030393Y026550D01*
X030393Y026708D02*
X048110Y026708D01*
X048110Y026867D02*
X030393Y026867D01*
X030393Y027025D02*
X048110Y027025D01*
X048110Y027184D02*
X030393Y027184D01*
X030393Y027342D02*
X048110Y027342D01*
X048110Y027501D02*
X030393Y027501D01*
X030393Y027659D02*
X048110Y027659D01*
X047957Y027818D02*
X030393Y027818D01*
X030393Y027976D02*
X047798Y027976D01*
X047640Y028135D02*
X030393Y028135D01*
X030393Y028293D02*
X047481Y028293D01*
X047323Y028452D02*
X030393Y028452D01*
X030393Y028610D02*
X047164Y028610D01*
X047006Y028769D02*
X030393Y028769D01*
X030393Y028927D02*
X046847Y028927D01*
X046689Y029086D02*
X030393Y029086D01*
X030393Y029244D02*
X046530Y029244D01*
X046372Y029403D02*
X030393Y029403D01*
X030393Y029561D02*
X046213Y029561D01*
X046487Y029878D02*
X049253Y029878D01*
X049256Y029880D02*
X049003Y029734D01*
X048797Y029528D01*
X048650Y029274D01*
X048575Y028992D01*
X048575Y028700D01*
X048650Y028418D01*
X048797Y028165D01*
X049003Y027958D01*
X049256Y027812D01*
X049539Y027736D01*
X049831Y027736D01*
X050113Y027812D01*
X050366Y027958D01*
X050573Y028165D01*
X050719Y028418D01*
X050795Y028700D01*
X050795Y028992D01*
X050719Y029274D01*
X050573Y029528D01*
X050366Y029734D01*
X050113Y029880D01*
X049831Y029956D01*
X049539Y029956D01*
X049256Y029880D01*
X048989Y029720D02*
X046645Y029720D01*
X046804Y029561D02*
X048830Y029561D01*
X048725Y029403D02*
X046962Y029403D01*
X047121Y029244D02*
X048642Y029244D01*
X048600Y029086D02*
X047279Y029086D01*
X047438Y028927D02*
X048575Y028927D01*
X048575Y028769D02*
X047596Y028769D01*
X047755Y028610D02*
X048599Y028610D01*
X048641Y028452D02*
X047913Y028452D01*
X048072Y028293D02*
X048722Y028293D01*
X048826Y028135D02*
X048230Y028135D01*
X048389Y027976D02*
X048985Y027976D01*
X049246Y027818D02*
X048504Y027818D01*
X048504Y027659D02*
X051961Y027659D01*
X051961Y027501D02*
X048504Y027501D01*
X048504Y027342D02*
X051961Y027342D01*
X051961Y027184D02*
X048504Y027184D01*
X048504Y027025D02*
X051961Y027025D01*
X051961Y026867D02*
X048504Y026867D01*
X048504Y026708D02*
X051961Y026708D01*
X051961Y026550D02*
X048504Y026550D01*
X048504Y026391D02*
X051961Y026391D01*
X051961Y026233D02*
X048504Y026233D01*
X048504Y026074D02*
X051961Y026074D01*
X051961Y025916D02*
X048504Y025916D01*
X048504Y025757D02*
X051961Y025757D01*
X051961Y025599D02*
X048504Y025599D01*
X048504Y025440D02*
X051961Y025440D01*
X051961Y025282D02*
X048504Y025282D01*
X048504Y025123D02*
X051961Y025123D01*
X051961Y024965D02*
X048504Y024965D01*
X048504Y024806D02*
X051961Y024806D01*
X051961Y024648D02*
X048504Y024648D01*
X048504Y024489D02*
X051961Y024489D01*
X051961Y024331D02*
X048504Y024331D01*
X048504Y024172D02*
X051961Y024172D01*
X051961Y024014D02*
X048504Y024014D01*
X048504Y023855D02*
X051961Y023855D01*
X051961Y023697D02*
X048504Y023697D01*
X048504Y023538D02*
X051961Y023538D01*
X051961Y023380D02*
X048504Y023380D01*
X048504Y023221D02*
X051961Y023221D01*
X051961Y023063D02*
X048504Y023063D01*
X048504Y022904D02*
X051961Y022904D01*
X051961Y022746D02*
X048504Y022746D01*
X048504Y022587D02*
X051961Y022587D01*
X051961Y022429D02*
X048504Y022429D01*
X048504Y022270D02*
X051961Y022270D01*
X051961Y022112D02*
X048504Y022112D01*
X048504Y021953D02*
X051961Y021953D01*
X051961Y021795D02*
X048504Y021795D01*
X048504Y021636D02*
X051961Y021636D01*
X051961Y021478D02*
X048504Y021478D01*
X048504Y021319D02*
X051961Y021319D01*
X051961Y021161D02*
X050390Y021161D01*
X048786Y018308D02*
X047878Y018308D01*
X047964Y018149D02*
X048675Y018149D01*
X048619Y017991D02*
X048030Y017991D01*
X047939Y016881D02*
X051197Y016881D01*
X051197Y016723D02*
X047874Y016723D01*
X047734Y016564D02*
X049080Y016564D01*
X049142Y016590D02*
X048879Y016481D01*
X048678Y016280D01*
X048569Y016016D01*
X048569Y015731D01*
X048678Y015468D01*
X048879Y015267D01*
X049142Y015158D01*
X049427Y015158D01*
X049691Y015267D01*
X049777Y015353D01*
X049863Y015267D01*
X050127Y015158D01*
X050412Y015158D01*
X050675Y015267D01*
X050876Y015468D01*
X050985Y015731D01*
X050985Y016016D01*
X050876Y016280D01*
X050675Y016481D01*
X050412Y016590D01*
X050127Y016590D01*
X049863Y016481D01*
X049777Y016395D01*
X049691Y016481D01*
X049427Y016590D01*
X049142Y016590D01*
X049489Y016564D02*
X050065Y016564D01*
X049788Y016406D02*
X049766Y016406D01*
X050474Y016564D02*
X051197Y016564D01*
X051197Y016406D02*
X050750Y016406D01*
X050890Y016247D02*
X051197Y016247D01*
X051197Y016089D02*
X050955Y016089D01*
X050985Y015930D02*
X051197Y015930D01*
X051197Y015772D02*
X050985Y015772D01*
X050936Y015613D02*
X051197Y015613D01*
X051197Y015455D02*
X050863Y015455D01*
X050705Y015296D02*
X051197Y015296D01*
X051197Y015138D02*
X046102Y015138D01*
X045949Y014979D02*
X035687Y014979D01*
X035687Y014821D02*
X046107Y014821D01*
X046260Y014979D02*
X051197Y014979D01*
X051197Y014821D02*
X046419Y014821D01*
X046266Y014662D02*
X035687Y014662D01*
X035687Y014504D02*
X046424Y014504D01*
X046577Y014662D02*
X051197Y014662D01*
X050437Y014187D02*
X048504Y014187D01*
X048504Y014028D02*
X050437Y014028D01*
X050437Y013870D02*
X048504Y013870D01*
X048504Y013711D02*
X049240Y013711D01*
X049233Y013699D02*
X049221Y013653D01*
X049221Y012627D01*
X049685Y012627D01*
X049685Y013810D01*
X049377Y013810D01*
X049331Y013797D01*
X049290Y013774D01*
X049257Y013740D01*
X049233Y013699D01*
X049221Y013553D02*
X048504Y013553D01*
X048504Y013394D02*
X049221Y013394D01*
X049221Y013236D02*
X048504Y013236D01*
X048504Y013077D02*
X049221Y013077D01*
X049221Y012919D02*
X048504Y012919D01*
X048504Y012760D02*
X049221Y012760D01*
X049221Y012467D02*
X049221Y011440D01*
X049233Y011395D01*
X049257Y011354D01*
X049290Y011320D01*
X049331Y011296D01*
X049377Y011284D01*
X049685Y011284D01*
X049685Y012467D01*
X049221Y012467D01*
X049221Y012443D02*
X048504Y012443D01*
X048504Y012285D02*
X049221Y012285D01*
X049221Y012126D02*
X048504Y012126D01*
X048504Y011968D02*
X049221Y011968D01*
X049221Y011809D02*
X048504Y011809D01*
X048504Y011651D02*
X049221Y011651D01*
X049221Y011492D02*
X048504Y011492D01*
X048504Y011334D02*
X049277Y011334D01*
X049685Y011334D02*
X049845Y011334D01*
X049845Y011284D02*
X050153Y011284D01*
X050199Y011296D01*
X050240Y011320D01*
X050273Y011354D01*
X050297Y011395D01*
X050309Y011440D01*
X050309Y012467D01*
X049845Y012467D01*
X049845Y012627D01*
X049685Y012627D01*
X049685Y012467D01*
X049845Y012467D01*
X049845Y011284D01*
X049845Y011492D02*
X049685Y011492D01*
X049685Y011651D02*
X049845Y011651D01*
X049845Y011809D02*
X049685Y011809D01*
X049685Y011968D02*
X049845Y011968D01*
X049845Y012126D02*
X049685Y012126D01*
X049685Y012285D02*
X049845Y012285D01*
X049845Y012443D02*
X049685Y012443D01*
X049685Y012602D02*
X048504Y012602D01*
X049685Y012760D02*
X049845Y012760D01*
X049845Y012627D02*
X049845Y013810D01*
X050153Y013810D01*
X050199Y013797D01*
X050240Y013774D01*
X050273Y013740D01*
X050297Y013699D01*
X050309Y013653D01*
X050309Y012627D01*
X049845Y012627D01*
X049845Y012602D02*
X050437Y012602D01*
X050437Y012760D02*
X050309Y012760D01*
X050309Y012919D02*
X050437Y012919D01*
X050437Y013077D02*
X050309Y013077D01*
X050309Y013236D02*
X050437Y013236D01*
X050437Y013394D02*
X050309Y013394D01*
X050309Y013553D02*
X050437Y013553D01*
X050437Y013711D02*
X050290Y013711D01*
X049845Y013711D02*
X049685Y013711D01*
X049685Y013553D02*
X049845Y013553D01*
X049845Y013394D02*
X049685Y013394D01*
X049685Y013236D02*
X049845Y013236D01*
X049845Y013077D02*
X049685Y013077D01*
X049685Y012919D02*
X049845Y012919D01*
X050309Y012443D02*
X050437Y012443D01*
X050437Y012285D02*
X050309Y012285D01*
X050309Y012126D02*
X050437Y012126D01*
X050437Y011968D02*
X050309Y011968D01*
X050309Y011809D02*
X050437Y011809D01*
X050437Y011651D02*
X050309Y011651D01*
X050309Y011492D02*
X050437Y011492D01*
X050437Y011334D02*
X050254Y011334D01*
X050336Y011175D02*
X048504Y011175D01*
X048504Y011017D02*
X050178Y011017D01*
X050019Y010858D02*
X048504Y010858D01*
X048504Y010700D02*
X049265Y010700D01*
X048504Y009590D02*
X051961Y009590D01*
X051961Y009432D02*
X048600Y009432D01*
X049748Y009273D02*
X051961Y009273D01*
X051961Y009115D02*
X049887Y009115D01*
X049947Y008956D02*
X051961Y008956D01*
X051961Y008798D02*
X049947Y008798D01*
X049891Y008639D02*
X051961Y008639D01*
X051961Y008481D02*
X049760Y008481D01*
X051961Y005469D02*
X029212Y005469D01*
X029212Y005311D02*
X051961Y005311D01*
X051961Y005152D02*
X029212Y005152D01*
X029212Y004994D02*
X051961Y004994D01*
X051961Y004835D02*
X029212Y004835D01*
X029212Y004677D02*
X051961Y004677D01*
X045489Y012285D02*
X035617Y012285D01*
X035687Y012443D02*
X045580Y012443D01*
X045830Y012602D02*
X035687Y012602D01*
X035687Y012760D02*
X047253Y012760D01*
X047253Y012919D02*
X035687Y012919D01*
X035687Y013077D02*
X047253Y013077D01*
X047253Y013236D02*
X035687Y013236D01*
X035678Y014345D02*
X046583Y014345D01*
X047277Y013711D02*
X030393Y013711D01*
X030393Y013553D02*
X047253Y013553D01*
X047253Y013394D02*
X030393Y013394D01*
X030026Y012919D02*
X020317Y012919D01*
X020317Y013077D02*
X022163Y013077D01*
X022108Y013236D02*
X020317Y013236D01*
X020249Y013394D02*
X022131Y013394D01*
X022227Y013553D02*
X020090Y013553D01*
X019932Y013711D02*
X022227Y013711D01*
X022227Y013870D02*
X019773Y013870D01*
X019615Y014028D02*
X022227Y014028D01*
X022227Y014187D02*
X021139Y014187D01*
X021231Y014345D02*
X022227Y014345D01*
X022227Y014504D02*
X021229Y014504D01*
X021197Y014662D02*
X022227Y014662D01*
X022227Y014821D02*
X021197Y014821D01*
X021197Y014979D02*
X022227Y014979D01*
X022227Y015138D02*
X021197Y015138D01*
X021197Y015296D02*
X022227Y015296D01*
X022227Y015455D02*
X021197Y015455D01*
X021197Y015613D02*
X022227Y015613D01*
X022227Y015772D02*
X021197Y015772D01*
X021197Y015930D02*
X022227Y015930D01*
X022227Y016089D02*
X021197Y016089D01*
X021197Y016247D02*
X022227Y016247D01*
X022227Y016406D02*
X021304Y016406D01*
X021463Y016564D02*
X022227Y016564D01*
X022227Y016723D02*
X021621Y016723D01*
X021780Y016881D02*
X022139Y016881D01*
X022108Y017040D02*
X021938Y017040D01*
X022097Y017198D02*
X022153Y017198D01*
X022447Y017022D02*
X022447Y015722D01*
X022931Y015722D02*
X022997Y015788D01*
X022962Y015822D01*
X023353Y015772D02*
X023568Y015772D01*
X023468Y015613D02*
X023353Y015613D01*
X023275Y015455D02*
X023459Y015455D01*
X023797Y014922D02*
X023031Y014922D01*
X023313Y014662D02*
X023577Y014662D01*
X023577Y014504D02*
X023393Y014504D01*
X023393Y014345D02*
X023577Y014345D01*
X023577Y014187D02*
X023393Y014187D01*
X023383Y014028D02*
X023524Y014028D01*
X023458Y013870D02*
X022667Y013870D01*
X022667Y013711D02*
X023477Y013711D01*
X023588Y013553D02*
X022667Y013553D01*
X022978Y014028D02*
X023015Y014028D01*
X023015Y014187D02*
X022978Y014187D01*
X020654Y014187D02*
X019456Y014187D01*
X019298Y014345D02*
X020562Y014345D01*
X020564Y014504D02*
X019139Y014504D01*
X018981Y014662D02*
X020597Y014662D01*
X020597Y014821D02*
X018822Y014821D01*
X018697Y014979D02*
X020597Y014979D01*
X020597Y015138D02*
X018697Y015138D01*
X018697Y015296D02*
X020597Y015296D01*
X020597Y015455D02*
X018697Y015455D01*
X018697Y015613D02*
X020597Y015613D01*
X020597Y015772D02*
X018697Y015772D01*
X018697Y015930D02*
X020597Y015930D01*
X020597Y016089D02*
X018697Y016089D01*
X018697Y016247D02*
X020597Y016247D01*
X020489Y016406D02*
X018697Y016406D01*
X018697Y016564D02*
X020330Y016564D01*
X020172Y016723D02*
X018697Y016723D01*
X018697Y016881D02*
X020013Y016881D01*
X019855Y017040D02*
X018697Y017040D01*
X018697Y017198D02*
X019696Y017198D01*
X019538Y017357D02*
X018697Y017357D01*
X018697Y017515D02*
X019379Y017515D01*
X019221Y017674D02*
X018697Y017674D01*
X018697Y017832D02*
X019062Y017832D01*
X018926Y017991D02*
X018697Y017991D01*
X018697Y018149D02*
X018897Y018149D01*
X019497Y018308D02*
X025618Y018308D01*
X025460Y018466D02*
X019497Y018466D01*
X019497Y018625D02*
X025301Y018625D01*
X025143Y018783D02*
X019497Y018783D01*
X019497Y018942D02*
X023781Y018942D01*
X023902Y019422D02*
X023907Y019427D01*
X023907Y019673D01*
X025777Y018149D02*
X019594Y018149D01*
X019752Y017991D02*
X025935Y017991D01*
X023835Y017040D02*
X028307Y017040D01*
X028307Y016881D02*
X023804Y016881D01*
X023657Y016723D02*
X028307Y016723D01*
X030393Y015296D02*
X033913Y015296D01*
X033916Y014345D02*
X030393Y014345D01*
X030393Y014187D02*
X048110Y014187D01*
X048110Y014028D02*
X030393Y014028D01*
X030393Y013870D02*
X048110Y013870D01*
X047600Y015296D02*
X048849Y015296D01*
X048691Y015455D02*
X047805Y015455D01*
X047903Y015613D02*
X048618Y015613D01*
X048569Y015772D02*
X047958Y015772D01*
X047958Y015930D02*
X048569Y015930D01*
X048599Y016089D02*
X047922Y016089D01*
X047851Y016247D02*
X048664Y016247D01*
X048804Y016406D02*
X047692Y016406D01*
X049720Y015296D02*
X049834Y015296D01*
X033771Y011175D02*
X033155Y011175D01*
X032849Y010858D02*
X032544Y010858D01*
X032385Y010700D02*
X033741Y010700D01*
X032877Y010831D02*
X032877Y010831D01*
X032697Y011322D02*
X032697Y011622D01*
X030020Y012760D02*
X020317Y012760D01*
X020452Y012602D02*
X028340Y012602D01*
X028351Y012614D02*
X028318Y012580D01*
X028294Y012539D01*
X028282Y012493D01*
X028282Y012195D01*
X028717Y012195D01*
X028717Y012035D01*
X028877Y012035D01*
X028877Y011581D01*
X029155Y011581D01*
X029201Y011593D01*
X029242Y011617D01*
X029275Y011651D01*
X028877Y011651D02*
X028717Y011651D01*
X028717Y011581D02*
X028717Y012035D01*
X028282Y012035D01*
X028282Y011737D01*
X028294Y011692D01*
X028318Y011651D01*
X021291Y011651D01*
X021335Y011809D02*
X028282Y011809D01*
X028282Y011968D02*
X021302Y011968D01*
X021146Y012126D02*
X028717Y012126D01*
X028717Y012195D02*
X028717Y012650D01*
X028438Y012650D01*
X028392Y012637D01*
X028351Y012614D01*
X028282Y012443D02*
X020745Y012443D01*
X020958Y012285D02*
X028282Y012285D01*
X028717Y012285D02*
X028877Y012285D01*
X028877Y012195D02*
X028717Y012195D01*
X028717Y011968D02*
X028877Y011968D01*
X028877Y011809D02*
X028717Y011809D01*
X028717Y011581D02*
X028438Y011581D01*
X028392Y011593D01*
X028351Y011617D01*
X028318Y011651D01*
X028717Y012443D02*
X028877Y012443D01*
X028877Y012602D02*
X028717Y012602D01*
X028307Y014504D02*
X027311Y014504D01*
X027082Y014504D02*
X025811Y014504D01*
X025697Y014822D02*
X027197Y014822D01*
X027535Y014821D02*
X028307Y014821D01*
X028307Y014979D02*
X027497Y014979D01*
X027496Y014662D02*
X028307Y014662D01*
X021882Y017832D02*
X019911Y017832D01*
X020069Y017674D02*
X021724Y017674D01*
X021565Y017515D02*
X020228Y017515D01*
X020386Y017357D02*
X021407Y017357D01*
X021248Y017198D02*
X020545Y017198D01*
X020703Y017040D02*
X021090Y017040D01*
X020931Y016881D02*
X020862Y016881D01*
X020849Y019100D02*
X020753Y019100D01*
X020753Y019259D02*
X020849Y019259D01*
X020849Y019576D02*
X020753Y019576D01*
X020753Y019734D02*
X020849Y019734D01*
X019921Y019734D02*
X019497Y019734D01*
X019497Y019100D02*
X019924Y019100D01*
X018775Y021319D02*
X012243Y021319D01*
X012243Y021305D02*
X012243Y021645D01*
X011825Y021645D01*
X011825Y021800D01*
X011670Y021800D01*
X011670Y022296D01*
X011409Y022296D01*
X011340Y022270D02*
X007909Y022270D01*
X005677Y021161D02*
X011364Y021161D01*
X011253Y021319D02*
X011100Y021319D01*
X011100Y021478D02*
X011253Y021478D01*
X011253Y021636D02*
X011100Y021636D01*
X011100Y021795D02*
X011670Y021795D01*
X011825Y021795D02*
X014060Y021795D01*
X014060Y021953D02*
X012243Y021953D01*
X012243Y021800D02*
X012243Y022140D01*
X012230Y022186D01*
X012207Y022227D01*
X012173Y022260D01*
X012132Y022284D01*
X012086Y022296D01*
X011825Y022296D01*
X011825Y021800D01*
X012243Y021800D01*
X012243Y021636D02*
X014062Y021636D01*
X014060Y022112D02*
X012243Y022112D01*
X012155Y022270D02*
X014060Y022270D01*
X014060Y022746D02*
X013926Y022746D01*
X014733Y022746D02*
X016860Y022746D01*
X016860Y022587D02*
X014733Y022587D01*
X015468Y022429D02*
X016860Y022429D01*
X016860Y022270D02*
X015535Y022270D01*
X015517Y022112D02*
X016860Y022112D01*
X016860Y021953D02*
X015406Y021953D01*
X014733Y021795D02*
X016860Y021795D01*
X016862Y021636D02*
X014731Y021636D01*
X015968Y022904D02*
X016436Y022904D01*
X016358Y023063D02*
X016130Y023063D01*
X016288Y023221D02*
X016372Y023221D01*
X016447Y023380D02*
X016476Y023380D01*
X015695Y024014D02*
X015537Y024014D01*
X015537Y023855D02*
X015495Y023855D01*
X015502Y024172D02*
X015854Y024172D01*
X016012Y024331D02*
X015340Y024331D01*
X013652Y024489D02*
X020307Y024489D01*
X020307Y024331D02*
X017881Y024331D01*
X018039Y024172D02*
X020029Y024172D01*
X019953Y024014D02*
X018198Y024014D01*
X018356Y023855D02*
X019953Y023855D01*
X019953Y023697D02*
X018515Y023697D01*
X018673Y023538D02*
X019953Y023538D01*
X020797Y023787D02*
X020797Y024043D01*
X020797Y023787D02*
X020801Y023782D01*
X021287Y024331D02*
X025602Y024331D01*
X025444Y024489D02*
X021287Y024489D01*
X021574Y024172D02*
X023129Y024172D01*
X023053Y024014D02*
X021650Y024014D01*
X021650Y023855D02*
X023053Y023855D01*
X023053Y023697D02*
X021650Y023697D01*
X021650Y023538D02*
X023053Y023538D01*
X023417Y023380D02*
X018832Y023380D01*
X018300Y021795D02*
X017533Y021795D01*
X017531Y021636D02*
X018458Y021636D01*
X018617Y021478D02*
X012243Y021478D01*
X012243Y021305D02*
X012230Y021259D01*
X012207Y021218D01*
X012173Y021185D01*
X012132Y021161D01*
X011825Y021161D02*
X011670Y021161D01*
X011670Y021319D02*
X011825Y021319D01*
X011825Y021478D02*
X011670Y021478D01*
X011670Y021636D02*
X011825Y021636D01*
X011825Y021953D02*
X011670Y021953D01*
X011670Y022112D02*
X011825Y022112D01*
X011825Y022270D02*
X011670Y022270D01*
X011253Y022112D02*
X011100Y022112D01*
X011100Y021953D02*
X011253Y021953D01*
X013237Y023223D02*
X013237Y023332D01*
X013197Y023372D01*
X012742Y023855D02*
X005677Y023855D01*
X005677Y024331D02*
X007238Y024331D01*
X007173Y024489D02*
X005677Y024489D01*
X005677Y024648D02*
X007167Y024648D01*
X007212Y024806D02*
X005677Y024806D01*
X005677Y024965D02*
X007329Y024965D01*
X005677Y025123D02*
X010240Y025123D01*
X011051Y025123D02*
X011342Y025123D01*
X011293Y024965D02*
X011100Y024965D01*
X011100Y024806D02*
X011293Y024806D01*
X011293Y024648D02*
X011100Y024648D01*
X011663Y025282D02*
X005677Y025282D01*
X005677Y025440D02*
X011821Y025440D01*
X011731Y025350D02*
X011731Y025350D01*
X013197Y025053D02*
X013197Y024572D01*
X013197Y025053D02*
X013217Y025073D01*
X008841Y028165D02*
X008987Y028418D01*
X009062Y028700D01*
X009062Y028992D01*
X008987Y029274D01*
X008841Y029528D01*
X008634Y029734D01*
X008381Y029880D01*
X008099Y029956D01*
X007806Y029956D01*
X007524Y029880D01*
X007271Y029734D01*
X007064Y029528D01*
X006918Y029274D01*
X006843Y028992D01*
X006843Y028700D01*
X006918Y028418D01*
X007064Y028165D01*
X007271Y027958D01*
X007524Y027812D01*
X007806Y027736D01*
X008099Y027736D01*
X008381Y027812D01*
X008634Y027958D01*
X008841Y028165D01*
X008811Y028135D02*
X030090Y028135D01*
X030090Y028293D02*
X008915Y028293D01*
X008996Y028452D02*
X030090Y028452D01*
X030090Y028610D02*
X009038Y028610D01*
X009062Y028769D02*
X030090Y028769D01*
X030090Y028927D02*
X009062Y028927D01*
X009037Y029086D02*
X030090Y029086D01*
X030090Y029244D02*
X008995Y029244D01*
X008913Y029403D02*
X030090Y029403D01*
X030090Y029561D02*
X008807Y029561D01*
X008648Y029720D02*
X030090Y029720D01*
X030090Y029878D02*
X008384Y029878D01*
X007521Y029878D02*
X005677Y029878D01*
X005677Y029720D02*
X007257Y029720D01*
X007098Y029561D02*
X005677Y029561D01*
X005677Y029403D02*
X006992Y029403D01*
X006910Y029244D02*
X005677Y029244D01*
X005677Y029086D02*
X006868Y029086D01*
X006843Y028927D02*
X005677Y028927D01*
X005677Y028769D02*
X006843Y028769D01*
X006866Y028610D02*
X005677Y028610D01*
X005677Y028452D02*
X006909Y028452D01*
X006990Y028293D02*
X005677Y028293D01*
X005677Y028135D02*
X007094Y028135D01*
X007252Y027976D02*
X005677Y027976D01*
X005677Y027818D02*
X007513Y027818D01*
X008392Y027818D02*
X030090Y027818D01*
X030090Y027976D02*
X008652Y027976D01*
X005677Y027659D02*
X030090Y027659D01*
X030090Y027501D02*
X005677Y027501D01*
X005677Y027342D02*
X030090Y027342D01*
X030090Y027184D02*
X005677Y027184D01*
X005677Y027025D02*
X030090Y027025D01*
X030090Y026867D02*
X005677Y026867D01*
X005677Y026708D02*
X030090Y026708D01*
X030090Y026550D02*
X005677Y026550D01*
X005677Y026391D02*
X030090Y026391D01*
X030090Y026233D02*
X005677Y026233D01*
X005677Y026074D02*
X030090Y026074D01*
X030090Y025916D02*
X005677Y025916D01*
X005677Y025757D02*
X030090Y025757D01*
X030090Y025599D02*
X005677Y025599D01*
X005677Y030037D02*
X030090Y030037D01*
X030090Y030195D02*
X005677Y030195D01*
X005677Y030354D02*
X030090Y030354D01*
X030090Y030512D02*
X005677Y030512D01*
X005677Y030671D02*
X030090Y030671D01*
X030090Y030829D02*
X005677Y030829D01*
X005677Y030988D02*
X030090Y030988D01*
X029212Y030988D02*
X051961Y030988D01*
X051961Y030829D02*
X029212Y030829D01*
X029212Y030671D02*
X051961Y030671D01*
X051961Y030512D02*
X029212Y030512D01*
X029212Y030354D02*
X051961Y030354D01*
X051961Y030195D02*
X029212Y030195D01*
X029212Y030037D02*
X051961Y030037D01*
X051961Y029878D02*
X050116Y029878D01*
X050380Y029720D02*
X051961Y029720D01*
X051961Y029561D02*
X050539Y029561D01*
X050645Y029403D02*
X051961Y029403D01*
X051961Y029244D02*
X050727Y029244D01*
X050770Y029086D02*
X051961Y029086D01*
X051961Y028927D02*
X050795Y028927D01*
X050795Y028769D02*
X051961Y028769D01*
X051961Y028610D02*
X050771Y028610D01*
X050728Y028452D02*
X051961Y028452D01*
X051961Y028293D02*
X050647Y028293D01*
X050543Y028135D02*
X051961Y028135D01*
X051961Y027976D02*
X050385Y027976D01*
X050124Y027818D02*
X051961Y027818D01*
X030090Y025440D02*
X025879Y025440D01*
X026037Y025282D02*
X030090Y025282D01*
X030090Y025123D02*
X026196Y025123D01*
X026354Y024965D02*
X030090Y024965D01*
X030090Y024806D02*
X026513Y024806D01*
X026671Y024648D02*
X030090Y024648D01*
X030090Y024489D02*
X026830Y024489D01*
X026988Y024331D02*
X030090Y024331D01*
X030090Y024172D02*
X027147Y024172D01*
X027305Y024014D02*
X030090Y024014D01*
X030090Y023855D02*
X027464Y023855D01*
X027622Y023697D02*
X030090Y023697D01*
X030090Y023538D02*
X027781Y023538D01*
X027939Y023380D02*
X030090Y023380D01*
X030090Y023221D02*
X028098Y023221D01*
X028256Y023063D02*
X030090Y023063D01*
X030057Y022904D02*
X028415Y022904D01*
X028573Y022746D02*
X030057Y022746D01*
X030090Y022587D02*
X028732Y022587D01*
X028890Y022429D02*
X030090Y022429D01*
X027504Y022429D02*
X024397Y022429D01*
X024397Y022587D02*
X027346Y022587D01*
X027187Y022746D02*
X024397Y022746D01*
X024397Y022904D02*
X027029Y022904D01*
X026870Y023063D02*
X024397Y023063D01*
X024397Y023221D02*
X026712Y023221D01*
X026553Y023380D02*
X024397Y023380D01*
X024750Y023538D02*
X026395Y023538D01*
X026236Y023697D02*
X024750Y023697D01*
X024750Y023855D02*
X026078Y023855D01*
X025919Y024014D02*
X024750Y024014D01*
X024674Y024172D02*
X025761Y024172D01*
X023907Y023778D02*
X023907Y023523D01*
X023907Y023778D02*
X023902Y023782D01*
X015611Y016881D02*
X015482Y016881D01*
X016787Y015930D02*
X017097Y015930D01*
X017097Y015772D02*
X016855Y015772D01*
X016837Y015613D02*
X017097Y015613D01*
X017029Y015455D02*
X016727Y015455D01*
X016517Y015722D02*
X015881Y015722D01*
X016218Y015455D02*
X016306Y015455D01*
X016995Y014821D02*
X018097Y014821D01*
X018097Y014979D02*
X017154Y014979D01*
X017312Y015138D02*
X018097Y015138D01*
X018097Y015296D02*
X017471Y015296D01*
X017497Y015455D02*
X018097Y015455D01*
X018097Y015613D02*
X017497Y015613D01*
X017497Y015772D02*
X018097Y015772D01*
X018097Y015930D02*
X017497Y015930D01*
X017497Y016089D02*
X018097Y016089D01*
X018097Y016247D02*
X017497Y016247D01*
X017497Y016406D02*
X018097Y016406D01*
X018097Y016564D02*
X017497Y016564D01*
X018138Y014662D02*
X015537Y014662D01*
X015497Y014504D02*
X018291Y014504D01*
X018449Y014345D02*
X015497Y014345D01*
X015497Y014187D02*
X018608Y014187D01*
X018766Y014028D02*
X015497Y014028D01*
X015497Y013870D02*
X018925Y013870D01*
X019083Y013711D02*
X015497Y013711D01*
X015427Y013553D02*
X019242Y013553D01*
X019400Y013394D02*
X015269Y013394D01*
X015110Y013236D02*
X019559Y013236D01*
X019717Y013077D02*
X014997Y013077D01*
X014997Y012919D02*
X019717Y012919D01*
X019717Y012760D02*
X014997Y012760D01*
X014997Y012602D02*
X019582Y012602D01*
X019542Y012443D02*
X014997Y012443D01*
X014997Y012285D02*
X019542Y012285D01*
X019542Y012126D02*
X014997Y012126D01*
X014997Y011968D02*
X019542Y011968D01*
X019542Y011809D02*
X014997Y011809D01*
X014997Y011651D02*
X020702Y011651D01*
X020585Y011809D02*
X020492Y011809D01*
X020771Y011175D02*
X014850Y011175D01*
X014691Y011017D02*
X019611Y011017D01*
X019542Y010858D02*
X014533Y010858D01*
X014374Y010700D02*
X019542Y010700D01*
X019542Y010541D02*
X015809Y010541D01*
X015968Y010383D02*
X019542Y010383D01*
X019542Y010224D02*
X016126Y010224D01*
X016285Y010066D02*
X019600Y010066D01*
X020434Y010066D02*
X020578Y010066D01*
X020542Y009907D02*
X016443Y009907D01*
X016602Y009749D02*
X020542Y009749D01*
X020542Y009590D02*
X016760Y009590D01*
X016919Y009432D02*
X020542Y009432D01*
X020583Y009273D02*
X017077Y009273D01*
X017236Y009115D02*
X020658Y009115D01*
X020699Y008956D02*
X017394Y008956D01*
X017553Y008798D02*
X020896Y008798D01*
X020658Y010858D02*
X020492Y010858D01*
X020423Y011017D02*
X020670Y011017D01*
X016689Y008639D02*
X005677Y008639D01*
X005677Y008481D02*
X016847Y008481D01*
X017006Y008322D02*
X005677Y008322D01*
X005677Y008164D02*
X017164Y008164D01*
X017323Y008005D02*
X005677Y008005D01*
X005677Y007847D02*
X007576Y007847D01*
X007524Y007833D02*
X007271Y007687D01*
X007064Y007480D01*
X006918Y007227D01*
X006843Y006945D01*
X006843Y006653D01*
X006918Y006370D01*
X007064Y006117D01*
X007271Y005911D01*
X007524Y005765D01*
X007806Y005689D01*
X008099Y005689D01*
X008381Y005765D01*
X008634Y005911D01*
X008841Y006117D01*
X008987Y006370D01*
X009062Y006653D01*
X009062Y006945D01*
X008987Y007227D01*
X008841Y007480D01*
X008634Y007687D01*
X008381Y007833D01*
X008099Y007909D01*
X007806Y007909D01*
X007524Y007833D01*
X007273Y007688D02*
X005677Y007688D01*
X005677Y007530D02*
X007114Y007530D01*
X007001Y007371D02*
X005677Y007371D01*
X005677Y007213D02*
X006914Y007213D01*
X006872Y007054D02*
X005677Y007054D01*
X005677Y006896D02*
X006843Y006896D01*
X006843Y006737D02*
X005677Y006737D01*
X005677Y006579D02*
X006862Y006579D01*
X006905Y006420D02*
X005677Y006420D01*
X005677Y006262D02*
X006981Y006262D01*
X007078Y006103D02*
X005677Y006103D01*
X005677Y005945D02*
X007237Y005945D01*
X007486Y005786D02*
X005677Y005786D01*
X005677Y005628D02*
X030090Y005628D01*
X030090Y005786D02*
X008419Y005786D01*
X008668Y005945D02*
X019383Y005945D01*
X019225Y006103D02*
X008827Y006103D01*
X008924Y006262D02*
X019066Y006262D01*
X018908Y006420D02*
X009000Y006420D01*
X009043Y006579D02*
X018749Y006579D01*
X018591Y006737D02*
X009062Y006737D01*
X009062Y006896D02*
X018432Y006896D01*
X018274Y007054D02*
X009033Y007054D01*
X008991Y007213D02*
X018115Y007213D01*
X017957Y007371D02*
X008903Y007371D01*
X008791Y007530D02*
X017798Y007530D01*
X017640Y007688D02*
X008631Y007688D01*
X008329Y007847D02*
X017481Y007847D01*
X016530Y008798D02*
X005677Y008798D01*
X005677Y008956D02*
X016372Y008956D01*
X016213Y009115D02*
X005677Y009115D01*
X005677Y009273D02*
X016055Y009273D01*
X015896Y009432D02*
X005677Y009432D01*
X005677Y009590D02*
X015738Y009590D01*
X015579Y009749D02*
X005677Y009749D01*
X005677Y009907D02*
X010100Y009907D01*
X009942Y010066D02*
X005677Y010066D01*
X005677Y010224D02*
X009783Y010224D01*
X009625Y010383D02*
X005677Y010383D01*
X005677Y010541D02*
X008978Y010541D01*
X008819Y010700D02*
X005677Y010700D01*
X005677Y010858D02*
X008661Y010858D01*
X008502Y011017D02*
X005677Y011017D01*
X005997Y010222D02*
X005997Y013722D01*
X006897Y013394D02*
X010157Y013394D01*
X009999Y013236D02*
X007891Y013236D01*
X007927Y013218D02*
X007855Y013254D01*
X007778Y013280D01*
X007698Y013292D01*
X007685Y013292D01*
X007685Y012806D01*
X007629Y012806D01*
X007629Y013292D01*
X007617Y013292D01*
X007537Y013280D01*
X007460Y013254D01*
X007387Y013218D01*
X007322Y013170D01*
X007265Y013113D01*
X007217Y013047D01*
X007180Y012975D01*
X007155Y012898D01*
X007143Y012818D01*
X007143Y012806D01*
X007629Y012806D01*
X007629Y012749D01*
X007685Y012749D01*
X007685Y012263D01*
X007698Y012263D01*
X007778Y012276D01*
X007855Y012301D01*
X007927Y012337D01*
X007992Y012385D01*
X008050Y012442D01*
X008097Y012508D01*
X008134Y012580D01*
X008159Y012657D01*
X008172Y012737D01*
X008172Y012749D01*
X007685Y012749D01*
X007685Y012806D01*
X008172Y012806D01*
X008172Y012818D01*
X008159Y012898D01*
X008134Y012975D01*
X008097Y013047D01*
X008050Y013113D01*
X007992Y013170D01*
X007927Y013218D01*
X008075Y013077D02*
X009840Y013077D01*
X009682Y012919D02*
X008152Y012919D01*
X008141Y012602D02*
X009477Y012602D01*
X009477Y012443D02*
X008051Y012443D01*
X007806Y012285D02*
X009477Y012285D01*
X009477Y012126D02*
X008493Y012126D01*
X008651Y011968D02*
X009477Y011968D01*
X009477Y011809D02*
X008797Y011809D01*
X008797Y011651D02*
X009477Y011651D01*
X009477Y011492D02*
X008797Y011492D01*
X008797Y011334D02*
X009477Y011334D01*
X009477Y011175D02*
X008844Y011175D01*
X009002Y011017D02*
X009477Y011017D01*
X009477Y010858D02*
X009161Y010858D01*
X009997Y010822D02*
X009997Y011422D01*
X010397Y011822D01*
X010762Y011822D01*
X010797Y011857D01*
X010797Y012688D01*
X011797Y012688D01*
X012133Y012760D02*
X012320Y012760D01*
X012320Y012849D02*
X012320Y012647D01*
X012678Y012647D01*
X012678Y013006D01*
X012476Y013006D01*
X012430Y012993D01*
X012389Y012970D01*
X012356Y012936D01*
X012332Y012895D01*
X012320Y012849D01*
X012346Y012919D02*
X012133Y012919D01*
X012128Y013077D02*
X013530Y013077D01*
X013689Y012919D02*
X013047Y012919D01*
X013073Y012760D02*
X013777Y012760D01*
X013777Y012602D02*
X013073Y012602D01*
X013073Y012443D02*
X013777Y012443D01*
X013777Y012285D02*
X012999Y012285D01*
X013066Y012126D02*
X013777Y012126D01*
X013777Y011968D02*
X013073Y011968D01*
X013073Y011809D02*
X013777Y011809D01*
X013714Y011651D02*
X013073Y011651D01*
X013003Y011492D02*
X013555Y011492D01*
X013861Y011175D02*
X014250Y011175D01*
X014408Y011334D02*
X014019Y011334D01*
X014178Y011492D02*
X014567Y011492D01*
X014597Y011651D02*
X014217Y011651D01*
X014217Y011809D02*
X014597Y011809D01*
X014597Y011968D02*
X014217Y011968D01*
X014217Y012126D02*
X014597Y012126D01*
X014597Y012285D02*
X014217Y012285D01*
X014217Y012443D02*
X014597Y012443D01*
X014597Y012602D02*
X014217Y012602D01*
X014217Y012760D02*
X014597Y012760D01*
X014597Y012919D02*
X014217Y012919D01*
X014153Y013077D02*
X014597Y013077D01*
X014597Y013236D02*
X013994Y013236D01*
X013836Y013394D02*
X014669Y013394D01*
X014497Y014022D02*
X014497Y015822D01*
X012400Y013711D02*
X012054Y013711D01*
X012678Y012919D02*
X012715Y012919D01*
X012715Y012760D02*
X012678Y012760D01*
X012697Y012629D02*
X012697Y011857D01*
X012762Y011922D01*
X013397Y011922D01*
X012715Y011968D02*
X012678Y011968D01*
X012697Y011857D02*
X011797Y011857D01*
X011815Y011876D02*
X011815Y012254D01*
X012017Y012254D01*
X012063Y012241D01*
X012104Y012218D01*
X012137Y012184D01*
X012161Y012143D01*
X012173Y012097D01*
X012173Y011876D01*
X011815Y011876D01*
X011815Y011968D02*
X011778Y011968D01*
X011778Y012126D02*
X011815Y012126D01*
X012166Y012126D02*
X012327Y012126D01*
X012320Y011968D02*
X012173Y011968D01*
X012173Y011809D02*
X012320Y011809D01*
X012320Y011651D02*
X012173Y011651D01*
X012103Y011492D02*
X012390Y011492D01*
X012678Y012126D02*
X012715Y012126D01*
X012715Y012285D02*
X012678Y012285D01*
X012678Y012443D02*
X012715Y012443D01*
X012715Y012602D02*
X012678Y012602D01*
X012320Y012602D02*
X012133Y012602D01*
X012133Y012443D02*
X012320Y012443D01*
X012394Y012285D02*
X011017Y012285D01*
X011133Y012443D02*
X011460Y012443D01*
X011427Y012126D02*
X011139Y012126D01*
X011153Y011968D02*
X011420Y011968D01*
X011420Y011809D02*
X011153Y011809D01*
X011153Y011651D02*
X011420Y011651D01*
X011490Y011492D02*
X011103Y011492D01*
X010490Y011492D02*
X010378Y011492D01*
X010440Y011334D02*
X010219Y011334D01*
X011079Y010858D02*
X011515Y010858D01*
X012079Y010858D02*
X012415Y010858D01*
X012979Y010858D02*
X013933Y010858D01*
X014091Y011017D02*
X013702Y011017D01*
X013372Y013236D02*
X013033Y013236D01*
X009523Y012760D02*
X007685Y012760D01*
X007629Y012760D02*
X006897Y012760D01*
X006897Y012919D02*
X007162Y012919D01*
X007143Y012749D02*
X007143Y012737D01*
X007155Y012657D01*
X007180Y012580D01*
X007217Y012508D01*
X007265Y012442D01*
X007322Y012385D01*
X007387Y012337D01*
X007460Y012301D01*
X007537Y012276D01*
X007617Y012263D01*
X007629Y012263D01*
X007629Y012749D01*
X007143Y012749D01*
X007173Y012602D02*
X006917Y012602D01*
X007076Y012443D02*
X007264Y012443D01*
X007234Y012285D02*
X007508Y012285D01*
X007629Y012285D02*
X007685Y012285D01*
X007685Y012443D02*
X007629Y012443D01*
X007629Y012602D02*
X007685Y012602D01*
X007685Y012919D02*
X007629Y012919D01*
X007629Y013077D02*
X007685Y013077D01*
X007685Y013236D02*
X007629Y013236D01*
X007423Y013236D02*
X006897Y013236D01*
X006897Y013077D02*
X007239Y013077D01*
X007333Y016564D02*
X006897Y016564D01*
X006897Y016723D02*
X007221Y016723D01*
X007183Y016881D02*
X006897Y016881D01*
X006897Y017040D02*
X007197Y017040D01*
X007273Y017198D02*
X006897Y017198D01*
X007794Y017832D02*
X009075Y017832D01*
X008917Y017991D02*
X008030Y017991D01*
X007993Y018625D02*
X009193Y018625D01*
X009064Y018466D02*
X009351Y018466D01*
X009222Y018308D02*
X009510Y018308D01*
X009381Y018149D02*
X009668Y018149D01*
X009539Y017991D02*
X009827Y017991D01*
X009698Y017832D02*
X009985Y017832D01*
X009856Y017674D02*
X010144Y017674D01*
X010015Y017515D02*
X010302Y017515D01*
X010173Y017357D02*
X010461Y017357D01*
X010687Y017442D02*
X008462Y019667D01*
X007657Y019667D01*
X007237Y019893D02*
X006967Y019893D01*
X006897Y019734D02*
X007183Y019734D01*
X007183Y019576D02*
X006897Y019576D01*
X006897Y019417D02*
X007247Y019417D01*
X007403Y019259D02*
X006897Y019259D01*
X006897Y019100D02*
X008717Y019100D01*
X008876Y018942D02*
X006897Y018942D01*
X006897Y018783D02*
X009034Y018783D01*
X009150Y018380D02*
X009150Y018380D01*
X009657Y018783D02*
X010136Y018783D01*
X010294Y018625D02*
X009815Y018625D01*
X009974Y018466D02*
X010453Y018466D01*
X010611Y018308D02*
X010132Y018308D01*
X009977Y018942D02*
X009498Y018942D01*
X009340Y019100D02*
X009819Y019100D01*
X009660Y019259D02*
X009181Y019259D01*
X009023Y019417D02*
X009502Y019417D01*
X009343Y019576D02*
X008864Y019576D01*
X008706Y019734D02*
X009185Y019734D01*
X009026Y019893D02*
X008077Y019893D01*
X007944Y020051D02*
X008868Y020051D01*
X008709Y020210D02*
X007284Y020210D01*
X007370Y020051D02*
X007126Y020051D01*
X007912Y019259D02*
X008559Y019259D01*
X008400Y019417D02*
X008067Y019417D01*
X007321Y018625D02*
X006897Y018625D01*
X005677Y005469D02*
X030090Y005469D01*
X030090Y005311D02*
X005677Y005311D01*
X005677Y005152D02*
X030090Y005152D01*
X030090Y004994D02*
X005677Y004994D01*
X005677Y004835D02*
X030090Y004835D01*
X030090Y004677D02*
X005677Y004677D01*
X027630Y005945D02*
X030090Y005945D01*
X030090Y006103D02*
X027789Y006103D01*
D28*
X027197Y005043D03*
X026897Y007022D03*
X026597Y007822D03*
X025597Y007822D03*
X025097Y007022D03*
X024597Y007822D03*
X023497Y007822D03*
X023497Y007022D03*
X022497Y007822D03*
X021397Y007822D03*
X021697Y007022D03*
X019897Y007022D03*
X021197Y005043D03*
X024197Y005043D03*
X020997Y009122D03*
X020997Y010922D03*
X020997Y011822D03*
X022447Y013272D03*
X023797Y013822D03*
X025697Y014822D03*
X027197Y014822D03*
X027197Y016043D03*
X025197Y017043D03*
X023497Y017022D03*
X022447Y017022D03*
X023797Y015522D03*
X020897Y014422D03*
X018197Y012043D03*
X018197Y011043D03*
X017197Y011043D03*
X018197Y010043D03*
X015197Y007043D03*
X015197Y005043D03*
X018197Y005043D03*
X012197Y005043D03*
X012197Y007043D03*
X009197Y007043D03*
X009197Y005043D03*
X006197Y005043D03*
X013397Y011922D03*
X014497Y014022D03*
X014497Y015822D03*
X016517Y015722D03*
X016517Y017222D03*
X018397Y019322D03*
X020197Y021543D03*
X021197Y021543D03*
X022197Y021543D03*
X025197Y022043D03*
X026197Y023043D03*
X027197Y020043D03*
X027297Y017822D03*
X027897Y017822D03*
X029597Y017822D03*
X030197Y017822D03*
X037797Y015822D03*
X038297Y015822D03*
X038797Y015822D03*
X039297Y015822D03*
X039797Y015822D03*
X040297Y015822D03*
X040797Y015822D03*
X040797Y015322D03*
X040797Y014822D03*
X040797Y014322D03*
X040297Y014322D03*
X040297Y014822D03*
X040297Y015322D03*
X039797Y015322D03*
X039797Y014822D03*
X039297Y014822D03*
X039297Y015322D03*
X038797Y015322D03*
X038797Y014822D03*
X038297Y014822D03*
X038297Y015322D03*
X037797Y015322D03*
X037797Y014822D03*
X037797Y012822D03*
X038297Y012822D03*
X038797Y012822D03*
X039297Y012822D03*
X039797Y012822D03*
X040297Y012822D03*
X040797Y012822D03*
X040797Y012322D03*
X040797Y011822D03*
X040297Y011822D03*
X040297Y012322D03*
X039797Y012322D03*
X039797Y011822D03*
X039297Y011822D03*
X039297Y012322D03*
X038797Y012322D03*
X038797Y011822D03*
X038297Y011822D03*
X038297Y012322D03*
X037797Y012322D03*
X037797Y011822D03*
X040297Y013322D03*
X040797Y013322D03*
X040797Y013822D03*
X040297Y013822D03*
X034397Y011622D03*
X033997Y010922D03*
X032697Y011622D03*
X033197Y012122D03*
X029197Y010043D03*
X028197Y010043D03*
X025697Y011043D03*
X030197Y005043D03*
X033197Y005043D03*
X036197Y005043D03*
X039197Y005043D03*
X042197Y005043D03*
X045197Y005043D03*
X048197Y005043D03*
X051197Y005043D03*
X051197Y007043D03*
X051197Y009043D03*
X049697Y011043D03*
X049197Y011043D03*
X048897Y012543D03*
X049197Y014043D03*
X049697Y014043D03*
X050197Y014043D03*
X040797Y019822D03*
X040797Y020322D03*
X040297Y020322D03*
X040297Y019822D03*
X039797Y019822D03*
X039797Y020322D03*
X039297Y020322D03*
X039297Y019822D03*
X038797Y019822D03*
X038797Y020322D03*
X038297Y020322D03*
X038297Y019822D03*
X037797Y019822D03*
X037797Y020322D03*
X037797Y020822D03*
X038297Y020822D03*
X038797Y020822D03*
X039297Y020822D03*
X039797Y020822D03*
X040297Y020822D03*
X040797Y020822D03*
X040797Y021322D03*
X040797Y021822D03*
X040797Y022322D03*
X040297Y022322D03*
X040297Y021822D03*
X040297Y021322D03*
X040297Y022822D03*
X040797Y022822D03*
X040797Y023322D03*
X040797Y023822D03*
X040297Y023822D03*
X040297Y023322D03*
X039797Y023322D03*
X039797Y022822D03*
X039297Y022822D03*
X039297Y023322D03*
X039297Y023822D03*
X039797Y023822D03*
X038797Y023822D03*
X038797Y023322D03*
X038797Y022822D03*
X038297Y022822D03*
X038297Y023322D03*
X038297Y023822D03*
X037797Y023822D03*
X037797Y023322D03*
X037797Y022822D03*
X029697Y026043D03*
X028197Y026043D03*
X027197Y030543D03*
X030197Y030543D03*
X033197Y030543D03*
X036197Y030543D03*
X039197Y030543D03*
X042197Y030543D03*
X045197Y030543D03*
X048197Y030543D03*
X051197Y030543D03*
X051197Y028543D03*
X051197Y026543D03*
X051197Y024543D03*
X051197Y022543D03*
X024197Y030543D03*
X021197Y030543D03*
X018197Y030543D03*
X015197Y030543D03*
X012197Y030543D03*
X009197Y030543D03*
X006197Y030543D03*
X011197Y026043D03*
X015197Y024022D03*
X016697Y023122D03*
X015197Y022222D03*
X012197Y020543D03*
X011197Y020543D03*
X009397Y016222D03*
X011197Y014022D03*
X019197Y024043D03*
X017697Y026043D03*
D29*
X017597Y023922D02*
X016297Y023922D01*
X015697Y023322D01*
X013897Y023322D01*
X013797Y023223D01*
X013237Y023223D01*
X012057Y023223D01*
X011867Y024793D02*
X012147Y025073D01*
X013217Y025073D01*
X020827Y025073D01*
X020797Y025043D01*
X020797Y024043D01*
X020827Y025073D02*
X025553Y025073D01*
X028797Y021830D01*
X028804Y021822D02*
X030797Y021822D01*
X030797Y020822D02*
X030189Y020215D01*
X028797Y020215D01*
X028797Y013730D01*
X028889Y013822D02*
X030797Y013822D01*
X030797Y012822D02*
X029697Y012822D01*
X030797Y012822D02*
X034797Y012822D01*
X030197Y017822D02*
X029597Y017822D01*
X030197Y017822D02*
X046097Y017822D01*
X050927Y014843D02*
X050927Y011073D01*
X050103Y010249D01*
X049457Y010249D01*
X048468Y008871D02*
X047697Y009643D01*
X047697Y012143D01*
X047676Y012122D02*
X045952Y012122D01*
X048468Y008871D02*
X049457Y008871D01*
X034797Y020822D02*
X030797Y020822D01*
X030797Y022822D02*
X034797Y022822D01*
X027897Y017822D02*
X026797Y017822D01*
X025197Y019422D01*
X023902Y019422D01*
X023907Y019673D02*
X023907Y022843D01*
X023907Y023523D01*
X023907Y022843D02*
X018676Y022843D01*
X017597Y023922D01*
X010437Y023222D02*
X010437Y023213D01*
X010437Y023222D02*
X007657Y023222D01*
X007657Y024600D02*
X010367Y024600D01*
X010367Y024603D01*
X010347Y021723D02*
X007779Y021723D01*
X007657Y021844D01*
D30*
X028797Y021830D02*
X028798Y021827D01*
X028801Y021824D01*
X028804Y021823D01*
X030797Y021822D02*
X039297Y021822D01*
X034797Y014822D02*
X030797Y014822D01*
X030797Y013822D02*
X039297Y013822D01*
X028889Y013822D02*
X028797Y013730D01*
D31*
X023497Y017022D02*
X023497Y017322D01*
X023197Y017622D01*
X022097Y017622D01*
X020897Y016422D01*
X020897Y014422D01*
X020017Y013202D02*
X020017Y012150D01*
X020669Y012150D01*
X020997Y011822D01*
X020997Y010922D02*
X020997Y010416D01*
X020137Y010416D01*
X020017Y010536D01*
X020997Y009629D02*
X020997Y009122D01*
X020017Y013202D02*
X018397Y014822D01*
X018397Y019322D01*
X019197Y018122D02*
X020897Y016422D01*
X019197Y018122D02*
X019197Y021322D01*
X018271Y022248D01*
X017197Y022248D01*
X017197Y022922D01*
X016997Y023122D01*
X016697Y023122D01*
X017197Y022622D02*
X017197Y022248D01*
X015197Y022222D02*
X014422Y022222D01*
X014397Y022248D01*
X013197Y023972D02*
X013247Y024022D01*
X047757Y012547D02*
X047797Y012507D01*
X047797Y012243D01*
X047697Y012143D01*
X047676Y012122D01*
D32*
X012057Y023223D02*
X012056Y023222D01*
X011748Y023222D01*
X010645Y023213D02*
X010645Y023222D01*
X010645Y024603D02*
X010645Y024622D01*
X010645Y024603D02*
X010367Y024603D01*
X011748Y024622D02*
X011867Y024741D01*
X011867Y024793D01*
X010645Y021722D02*
X010347Y021722D01*
X010347Y021723D01*
D33*
X010437Y023213D02*
X010645Y023213D01*
X013247Y024022D02*
X015197Y024022D01*
X023902Y023782D02*
X023902Y023782D01*
D34*
X022997Y014957D02*
X023031Y014922D01*
M02*
