G75*
%MOIN*%
%OFA0B0*%
%FSLAX24Y24*%
%IPPOS*%
%LPD*%
%AMOC8*
5,1,8,0,0,1.08239X$1,22.5*
%
%ADD10C,0.1340*%
%ADD11R,0.0513X0.0474*%
%ADD12R,0.0474X0.0513*%
%ADD13C,0.0680*%
%ADD14R,0.0671X0.0592*%
%ADD15R,0.0340X0.0880*%
%ADD16C,0.0674*%
%ADD17C,0.0749*%
%ADD18R,0.2521X0.2206*%
%ADD19R,0.0710X0.0474*%
%ADD20R,0.0356X0.0198*%
%ADD21R,0.0960X0.0560*%
%ADD22R,0.0946X0.1497*%
%ADD23C,0.1084*%
%ADD24C,0.0552*%
%ADD25R,0.0237X0.0375*%
%ADD26R,0.0631X0.0474*%
%ADD27OC8,0.0680*%
%ADD28R,0.0572X0.0336*%
%ADD29R,0.1080X0.0580*%
%ADD30C,0.0476*%
D10*
X007952Y006799D03*
X007952Y028846D03*
X049685Y028846D03*
X049685Y006799D03*
D11*
X021797Y014388D03*
X021797Y015057D03*
X020011Y014843D03*
X019341Y014843D03*
X015597Y014857D03*
X015597Y014188D03*
X012631Y014022D03*
X011962Y014022D03*
X010531Y014022D03*
X009862Y014022D03*
X015597Y017388D03*
X015597Y018057D03*
X014531Y020222D03*
X013862Y020222D03*
X013862Y021222D03*
X014531Y021222D03*
X015362Y023122D03*
X016031Y023122D03*
X016162Y024022D03*
X016831Y024022D03*
D12*
X014531Y017422D03*
X013862Y017422D03*
X013762Y014922D03*
X014431Y014922D03*
X012631Y013022D03*
X011962Y013022D03*
X010531Y013022D03*
X009862Y013022D03*
X021062Y015922D03*
X021731Y015922D03*
X021731Y016922D03*
X021062Y016922D03*
X022662Y014422D03*
X023331Y014422D03*
X024362Y013122D03*
X025031Y013122D03*
X025031Y012122D03*
X024362Y012122D03*
X026562Y009622D03*
X027231Y009622D03*
X023531Y008822D03*
X022862Y008822D03*
D13*
X030497Y012822D02*
X031097Y012822D01*
X031097Y013822D02*
X030497Y013822D01*
X030497Y014822D02*
X031097Y014822D01*
X031097Y020822D02*
X030497Y020822D01*
X030497Y021822D02*
X031097Y021822D01*
X031097Y022822D02*
X030497Y022822D01*
D14*
X024297Y010796D03*
X024297Y010048D03*
D15*
X023447Y010012D03*
X022947Y010012D03*
X022447Y010012D03*
X021947Y010012D03*
X021947Y012432D03*
X022447Y012432D03*
X022947Y012432D03*
X023447Y012432D03*
D16*
X043197Y012122D03*
X045952Y012122D03*
D17*
X049457Y010249D03*
X049457Y008871D03*
X007657Y012778D03*
X007657Y014156D03*
X007657Y015533D03*
X007657Y016911D03*
X007657Y018289D03*
X007657Y019667D03*
X007657Y021844D03*
X007657Y023222D03*
X007657Y024600D03*
D18*
X011612Y023122D03*
D19*
X014486Y022225D03*
X014486Y024020D03*
D20*
X022682Y016678D03*
X022682Y016422D03*
X022682Y016167D03*
X023311Y016167D03*
X023311Y016422D03*
X023311Y016678D03*
D21*
X016677Y020212D03*
X016677Y021122D03*
X016677Y022032D03*
D22*
X019117Y021122D03*
D23*
X047356Y019791D03*
X047356Y018610D03*
X047356Y017035D03*
X047356Y015854D03*
X049325Y017822D03*
D24*
X047356Y017822D03*
X049325Y015854D03*
X050309Y015854D03*
X050309Y019791D03*
X049325Y019791D03*
D25*
X015852Y016656D03*
X015597Y016656D03*
X015341Y016656D03*
X015341Y015789D03*
X015597Y015789D03*
X015852Y015789D03*
D26*
X038363Y014196D03*
X038363Y013448D03*
X039230Y013822D03*
X038363Y021448D03*
X038363Y022196D03*
X039230Y021822D03*
D27*
X012697Y016722D03*
X011697Y016722D03*
X010697Y016722D03*
X010697Y015722D03*
X011697Y015722D03*
X012697Y015722D03*
D28*
X017264Y015722D03*
X017264Y016222D03*
X017264Y016722D03*
X017264Y017222D03*
X019509Y017222D03*
X019509Y016722D03*
X019509Y016222D03*
X019509Y015722D03*
D29*
X045097Y016843D03*
X045097Y017843D03*
X045097Y018843D03*
D30*
X006197Y005043D03*
X009197Y005043D03*
X009197Y007043D03*
X012197Y007043D03*
X012197Y005043D03*
X015197Y005043D03*
X015197Y007043D03*
X018197Y005043D03*
X019897Y007022D03*
X021397Y007822D03*
X022497Y007822D03*
X023497Y007822D03*
X023497Y007022D03*
X024597Y007822D03*
X025097Y007022D03*
X025597Y007822D03*
X026597Y007822D03*
X026897Y007022D03*
X027197Y005043D03*
X030197Y005043D03*
X033197Y005043D03*
X036197Y005043D03*
X039197Y005043D03*
X042197Y005043D03*
X045197Y005043D03*
X048197Y005043D03*
X051197Y005043D03*
X051197Y007043D03*
X051197Y009043D03*
X049697Y011043D03*
X049197Y011043D03*
X048897Y012543D03*
X049197Y014043D03*
X049697Y014043D03*
X050197Y014043D03*
X040797Y013822D03*
X040797Y013322D03*
X040797Y012822D03*
X040797Y012322D03*
X040797Y011822D03*
X040297Y011822D03*
X040297Y012322D03*
X040297Y012822D03*
X040297Y013322D03*
X040297Y013822D03*
X040297Y014322D03*
X040797Y014322D03*
X040797Y014822D03*
X040797Y015322D03*
X040797Y015822D03*
X040297Y015822D03*
X040297Y015322D03*
X040297Y014822D03*
X039797Y014822D03*
X039797Y015322D03*
X039797Y015822D03*
X039297Y015822D03*
X039297Y015322D03*
X039297Y014822D03*
X038797Y014822D03*
X038797Y015322D03*
X038797Y015822D03*
X038297Y015822D03*
X038297Y015322D03*
X038297Y014822D03*
X037797Y014822D03*
X037797Y015322D03*
X037797Y015822D03*
X037797Y012822D03*
X038297Y012822D03*
X038797Y012822D03*
X039297Y012822D03*
X039797Y012822D03*
X039797Y012322D03*
X039797Y011822D03*
X039297Y011822D03*
X039297Y012322D03*
X038797Y012322D03*
X038797Y011822D03*
X038297Y011822D03*
X038297Y012322D03*
X037797Y012322D03*
X037797Y011822D03*
X034397Y011622D03*
X033997Y010922D03*
X032697Y011622D03*
X033197Y012122D03*
X029197Y010043D03*
X028197Y010043D03*
X025697Y011043D03*
X023797Y013822D03*
X022447Y013272D03*
X020897Y014422D03*
X023797Y015522D03*
X023497Y017022D03*
X022447Y017022D03*
X025197Y017043D03*
X027197Y016043D03*
X027197Y014822D03*
X025697Y014822D03*
X027297Y017822D03*
X027897Y017822D03*
X029597Y017822D03*
X030197Y017822D03*
X027197Y020043D03*
X025197Y022043D03*
X026197Y023043D03*
X028197Y026043D03*
X029697Y026043D03*
X030197Y030543D03*
X027197Y030543D03*
X024197Y030543D03*
X021197Y030543D03*
X018197Y030543D03*
X015197Y030543D03*
X012197Y030543D03*
X009197Y030543D03*
X006197Y030543D03*
X011197Y026043D03*
X015197Y024022D03*
X016697Y023122D03*
X015197Y022222D03*
X012197Y020543D03*
X011197Y020543D03*
X016517Y017222D03*
X016517Y015722D03*
X014497Y015822D03*
X014497Y014022D03*
X013397Y011922D03*
X011197Y014022D03*
X009397Y016222D03*
X017197Y011043D03*
X018197Y011043D03*
X018197Y012043D03*
X018197Y010043D03*
X020997Y010922D03*
X020997Y011822D03*
X020997Y009122D03*
X021697Y007022D03*
X021197Y005043D03*
X024197Y005043D03*
X018397Y019322D03*
X020197Y021543D03*
X021197Y021543D03*
X022197Y021543D03*
X019197Y024043D03*
X017697Y026043D03*
X033197Y030543D03*
X036197Y030543D03*
X039197Y030543D03*
X042197Y030543D03*
X045197Y030543D03*
X048197Y030543D03*
X051197Y030543D03*
X051197Y028543D03*
X051197Y026543D03*
X051197Y024543D03*
X051197Y022543D03*
X040797Y022322D03*
X040797Y021822D03*
X040797Y021322D03*
X040797Y020822D03*
X040297Y020822D03*
X040297Y021322D03*
X040297Y021822D03*
X040297Y022322D03*
X040297Y022822D03*
X040797Y022822D03*
X040797Y023322D03*
X040797Y023822D03*
X040297Y023822D03*
X040297Y023322D03*
X039797Y023322D03*
X039797Y022822D03*
X039297Y022822D03*
X039297Y023322D03*
X039297Y023822D03*
X039797Y023822D03*
X038797Y023822D03*
X038797Y023322D03*
X038797Y022822D03*
X038297Y022822D03*
X038297Y023322D03*
X038297Y023822D03*
X037797Y023822D03*
X037797Y023322D03*
X037797Y022822D03*
X037797Y020822D03*
X038297Y020822D03*
X038797Y020822D03*
X039297Y020822D03*
X039797Y020822D03*
X039797Y020322D03*
X040297Y020322D03*
X040797Y020322D03*
X040797Y019822D03*
X040297Y019822D03*
X039797Y019822D03*
X039297Y019822D03*
X039297Y020322D03*
X038797Y020322D03*
X038797Y019822D03*
X038297Y019822D03*
X038297Y020322D03*
X037797Y020322D03*
X037797Y019822D03*
M02*
