%
M48
M72
T01C0.0236
T02C0.0394
T03C0.0400
T04C0.0433
T05C0.0472
T06C0.0669
T07C0.1260
%
T01
X6197Y5043
X9197Y5043
X9197Y7043
X12197Y7043
X12197Y5043
X15197Y5043
X15197Y7043
X18197Y5043
X19897Y7022
X21397Y7822
X22497Y7822
X23497Y7822
X23497Y7022
X24597Y7822
X25097Y7022
X25597Y7822
X26597Y7822
X26897Y7022
X27197Y5043
X30197Y5043
X33197Y5043
X36197Y5043
X39197Y5043
X42197Y5043
X45197Y5043
X48197Y5043
X51197Y5043
X51197Y7043
X51197Y9043
X49697Y11043
X49197Y11043
X48897Y12543
X49197Y14043
X49697Y14043
X50197Y14043
X40797Y13822
X40797Y13322
X40797Y12822
X40797Y12322
X40797Y11822
X40297Y11822
X40297Y12322
X40297Y12822
X40297Y13322
X40297Y13822
X40297Y14322
X40797Y14322
X40797Y14822
X40797Y15322
X40797Y15822
X40297Y15822
X40297Y15322
X40297Y14822
X39797Y14822
X39797Y15322
X39797Y15822
X39297Y15822
X39297Y15322
X39297Y14822
X38797Y14822
X38797Y15322
X38797Y15822
X38297Y15822
X38297Y15322
X38297Y14822
X37797Y14822
X37797Y15322
X37797Y15822
X37797Y12822
X38297Y12822
X38797Y12822
X39297Y12822
X39797Y12822
X39797Y12322
X39797Y11822
X39297Y11822
X39297Y12322
X38797Y12322
X38797Y11822
X38297Y11822
X38297Y12322
X37797Y12322
X37797Y11822
X34397Y11622
X33997Y10922
X32697Y11622
X33197Y12122
X29197Y10043
X28197Y10043
X25697Y11043
X23797Y13822
X22447Y13272
X20897Y14422
X23797Y15522
X23497Y17022
X22447Y17022
X25197Y17043
X27197Y16043
X27197Y14822
X25697Y14822
X27297Y17822
X27897Y17822
X29597Y17822
X30197Y17822
X27197Y20043
X25197Y22043
X26197Y23043
X28197Y26043
X29697Y26043
X30197Y30543
X27197Y30543
X24197Y30543
X21197Y30543
X18197Y30543
X15197Y30543
X12197Y30543
X9197Y30543
X6197Y30543
X11197Y26043
X15197Y24022
X16697Y23122
X15197Y22222
X12197Y20543
X11197Y20543
X16517Y17222
X16517Y15722
X14497Y15822
X14497Y14022
X13397Y11922
X11197Y14022
X9397Y16222
X17197Y11043
X18197Y11043
X18197Y12043
X18197Y10043
X20997Y10922
X20997Y11822
X20997Y9122
X21697Y7022
X21197Y5043
X24197Y5043
X18397Y19322
X20197Y21543
X21197Y21543
X22197Y21543
X19197Y24043
X17697Y26043
X33197Y30543
X36197Y30543
X39197Y30543
X42197Y30543
X45197Y30543
X48197Y30543
X51197Y30543
X51197Y28543
X51197Y26543
X51197Y24543
X51197Y22543
X40797Y22322
X40797Y21822
X40797Y21322
X40797Y20822
X40297Y20822
X40297Y21322
X40297Y21822
X40297Y22322
X40297Y22822
X40797Y22822
X40797Y23322
X40797Y23822
X40297Y23822
X40297Y23322
X39797Y23322
X39797Y22822
X39297Y22822
X39297Y23322
X39297Y23822
X39797Y23822
X38797Y23822
X38797Y23322
X38797Y22822
X38297Y22822
X38297Y23322
X38297Y23822
X37797Y23822
X37797Y23322
X37797Y22822
X37797Y20822
X38297Y20822
X38797Y20822
X39297Y20822
X39797Y20822
X39797Y20322
X40297Y20322
X40797Y20322
X40797Y19822
X40297Y19822
X39797Y19822
X39297Y19822
X39297Y20322
X38797Y20322
X38797Y19822
X38297Y19822
X38297Y20322
X37797Y20322
X37797Y19822
T02
X43197Y12122
X45952Y12122
T03
X30797Y12822
X30797Y13822
X30797Y14822
X30797Y20822
X30797Y21822
X30797Y22822
X12697Y16722
X11697Y16722
X10697Y16722
X10697Y15722
X11697Y15722
X12697Y15722
T04
X7657Y15533
X7657Y16911
X7657Y18289
X7657Y19667
X7657Y21844
X7657Y23222
X7657Y24600
X7657Y14156
X7657Y12778
X49457Y10249
X49457Y8871
T05
X49285Y15874
X50269Y15874
X47316Y17842
X49285Y19811
X50269Y19811
T06
X49285Y17842
X47316Y17055
X47316Y15874
X47316Y18630
X47316Y19811
T07
X49685Y28846
X49685Y6799
X7952Y6799
X7952Y28846
M30
